<svg xmlns="http://www.w3.org/2000/svg" xmlns:xlink="http://www.w3.org/1999/xlink" width="500" zoomAndPan="magnify" viewBox="0 0 375 374.999991" height="500" preserveAspectRatio="xMidYMid meet" version="1.2"><defs/><g id="cb8551dfe4"><g style="fill:#0080ff;fill-opacity:1;"><g transform="translate(98.821452, 203.749981)"><path style="stroke:none" d="M 43.90625 -57.6875 C 43.789062 -57.957031 43.898438 -58.09375 44.234375 -58.09375 C 44.617188 -58.09375 44.960938 -57.925781 45.265625 -57.59375 C 45.578125 -57.269531 45.816406 -56.941406 45.984375 -56.609375 C 46.535156 -55.773438 46.9375 -54.832031 47.1875 -53.78125 C 47.4375 -52.726562 47.5625 -51.648438 47.5625 -50.546875 C 47.5625 -47.171875 46.5625 -44.515625 44.5625 -42.578125 C 42.570312 -40.640625 39.78125 -39.921875 36.1875 -40.421875 C 34.300781 -40.703125 32.640625 -41.476562 31.203125 -42.75 C 29.765625 -44.019531 28.46875 -45.429688 27.3125 -46.984375 C 27.476562 -45.046875 27.269531 -43.257812 26.6875 -41.625 C 26.101562 -39.988281 25.617188 -38.757812 25.234375 -37.9375 C 24.296875 -35.71875 23.257812 -33.40625 22.125 -31 C 20.988281 -28.59375 19.988281 -26.113281 19.125 -23.5625 C 18.269531 -21.019531 17.707031 -18.476562 17.4375 -15.9375 C 16.988281 -11.394531 17.457031 -8.015625 18.84375 -5.796875 C 20.226562 -3.585938 21.804688 -2.484375 23.578125 -2.484375 C 25.285156 -2.484375 26.648438 -2.941406 27.671875 -3.859375 C 28.703125 -4.773438 29.476562 -5.9375 30 -7.34375 C 30.53125 -8.757812 30.863281 -10.253906 31 -11.828125 C 31.132812 -13.398438 31.148438 -14.828125 31.046875 -16.109375 C 30.929688 -18.203125 30.554688 -20.203125 29.921875 -22.109375 C 29.285156 -24.023438 28.359375 -25.507812 27.140625 -26.5625 C 26.703125 -26.894531 26.257812 -26.976562 25.8125 -26.8125 C 25.59375 -26.75 25.410156 -26.800781 25.265625 -26.96875 C 25.128906 -27.132812 25.203125 -27.332031 25.484375 -27.5625 C 26.421875 -28.5 27.664062 -29.050781 29.21875 -29.21875 C 30.769531 -29.382812 32.148438 -29.328125 33.359375 -29.046875 C 36.296875 -28.328125 38.550781 -26.679688 40.125 -24.109375 C 41.707031 -21.535156 42.46875 -18.703125 42.40625 -15.609375 C 42.40625 -12.003906 41.492188 -9.039062 39.671875 -6.71875 C 37.847656 -4.394531 35.507812 -2.691406 32.65625 -1.609375 C 29.8125 -0.535156 26.835938 0 23.734375 0 C 21.796875 0 19.75 -0.273438 17.59375 -0.828125 C 15.4375 -1.378906 13.429688 -2.222656 11.578125 -3.359375 C 9.722656 -4.492188 8.203125 -5.914062 7.015625 -7.625 C 5.828125 -9.34375 5.203125 -11.335938 5.140625 -13.609375 C 5.085938 -16.484375 5.53125 -18.914062 6.46875 -20.90625 C 7.414062 -22.90625 8.703125 -24.71875 10.328125 -26.34375 C 11.960938 -27.976562 13.722656 -29.65625 15.609375 -31.375 C 17.097656 -32.8125 18.578125 -34.398438 20.046875 -36.140625 C 21.515625 -37.890625 22.691406 -39.734375 23.578125 -41.671875 C 24.460938 -43.609375 24.820312 -45.582031 24.65625 -47.59375 C 24.488281 -49.613281 23.519531 -51.625 21.75 -53.625 C 19.425781 -55.5 16.9375 -55.800781 14.28125 -54.53125 C 13.226562 -53.976562 12.382812 -53.21875 11.75 -52.25 C 11.113281 -51.28125 10.796875 -50.210938 10.796875 -49.046875 C 10.734375 -47.773438 11.003906 -46.597656 11.609375 -45.515625 C 12.222656 -44.441406 13.222656 -43.820312 14.609375 -43.65625 C 15.210938 -43.601562 15.832031 -43.660156 16.46875 -43.828125 C 17.113281 -43.992188 17.628906 -44.320312 18.015625 -44.8125 C 18.117188 -44.976562 18.195312 -45.144531 18.25 -45.3125 C 18.3125 -45.476562 18.34375 -45.675781 18.34375 -45.90625 C 18.289062 -46.0625 18.332031 -46.15625 18.46875 -46.1875 C 18.601562 -46.21875 18.726562 -46.125 18.84375 -45.90625 C 19.28125 -45.34375 19.554688 -44.617188 19.671875 -43.734375 C 19.785156 -42.847656 19.785156 -42.078125 19.671875 -41.421875 C 19.390625 -39.867188 18.65625 -38.5 17.46875 -37.3125 C 16.28125 -36.125 14.882812 -35.390625 13.28125 -35.109375 C 10.84375 -34.609375 8.613281 -34.734375 6.59375 -35.484375 C 4.570312 -36.234375 2.96875 -37.476562 1.78125 -39.21875 C 0.59375 -40.957031 0 -43.046875 0 -45.484375 C 0 -47.972656 0.703125 -50.171875 2.109375 -52.078125 C 3.523438 -53.992188 5.328125 -55.472656 7.515625 -56.515625 C 9.703125 -57.566406 11.984375 -58.09375 14.359375 -58.09375 C 17.179688 -58.09375 19.90625 -57.75 22.53125 -57.0625 C 25.164062 -56.375 27.769531 -55.707031 30.34375 -55.0625 C 32.914062 -54.425781 35.472656 -54.191406 38.015625 -54.359375 C 40.554688 -54.523438 42.460938 -55.328125 43.734375 -56.765625 C 43.960938 -57.046875 44.019531 -57.351562 43.90625 -57.6875 Z M 43.90625 -57.6875 "/></g></g><g style="fill:#0080ff;fill-opacity:1;"><g transform="translate(148.699791, 203.749981)"><path style="stroke:none" d="M 40.59375 -58.09375 C 41.3125 -58.09375 41.671875 -57.816406 41.671875 -57.265625 C 41.671875 -57.046875 41.597656 -56.863281 41.453125 -56.71875 C 41.316406 -56.582031 41.191406 -56.378906 41.078125 -56.109375 C 39.867188 -53.503906 38.941406 -50.582031 38.296875 -47.34375 C 37.660156 -44.113281 37.21875 -40.894531 36.96875 -37.6875 C 36.726562 -34.476562 36.609375 -31.597656 36.609375 -29.046875 C 36.609375 -26.554688 36.726562 -23.707031 36.96875 -20.5 C 37.21875 -17.289062 37.660156 -14.050781 38.296875 -10.78125 C 38.941406 -7.519531 39.867188 -4.585938 41.078125 -1.984375 C 41.191406 -1.710938 41.316406 -1.519531 41.453125 -1.40625 C 41.597656 -1.300781 41.671875 -1.109375 41.671875 -0.828125 C 41.671875 -0.273438 41.3125 0 40.59375 0 C 39.257812 0 37.707031 -0.0507812 35.9375 -0.15625 C 34.164062 -0.269531 32.585938 -0.328125 31.203125 -0.328125 C 29.878906 -0.328125 28.332031 -0.269531 26.5625 -0.15625 C 24.789062 -0.0507812 23.210938 0 21.828125 0 C 20.941406 0 20.5 -0.273438 20.5 -0.828125 C 20.5 -1.328125 20.800781 -1.660156 21.40625 -1.828125 C 23.238281 -2.328125 24.722656 -3.695312 25.859375 -5.9375 C 26.992188 -8.175781 27.863281 -10.757812 28.46875 -13.6875 C 28.582031 -15.238281 28.414062 -16.859375 27.96875 -18.546875 C 27.53125 -20.234375 26.835938 -21.8125 25.890625 -23.28125 C 24.953125 -24.75 23.789062 -25.910156 22.40625 -26.765625 C 21.019531 -27.617188 19.441406 -27.992188 17.671875 -27.890625 C 15.847656 -27.773438 14.328125 -27.164062 13.109375 -26.0625 C 11.890625 -24.957031 11.046875 -23.601562 10.578125 -22 C 10.109375 -20.394531 10.015625 -18.734375 10.296875 -17.015625 C 10.566406 -15.628906 11.078125 -14.410156 11.828125 -13.359375 C 12.578125 -12.304688 13.640625 -11.753906 15.015625 -11.703125 C 15.515625 -11.703125 16.066406 -11.851562 16.671875 -12.15625 C 17.285156 -12.457031 17.675781 -12.941406 17.84375 -13.609375 C 17.84375 -13.941406 17.816406 -14.132812 17.765625 -14.1875 C 17.546875 -14.414062 17.503906 -14.597656 17.640625 -14.734375 C 17.773438 -14.867188 17.984375 -14.882812 18.265625 -14.78125 C 19.253906 -14.445312 19.96875 -13.722656 20.40625 -12.609375 C 20.851562 -11.503906 21.078125 -10.316406 21.078125 -9.046875 C 21.078125 -7.773438 20.882812 -6.695312 20.5 -5.8125 C 19.613281 -3.925781 18.285156 -2.484375 16.515625 -1.484375 C 14.742188 -0.492188 12.863281 0 10.875 0 C 9.101562 0 7.375 -0.453125 5.6875 -1.359375 C 4 -2.273438 2.628906 -3.6875 1.578125 -5.59375 C 0.523438 -7.507812 0 -9.929688 0 -12.859375 C 0 -17.015625 0.785156 -21.066406 2.359375 -25.015625 C 3.941406 -28.972656 6.0625 -32.738281 8.71875 -36.3125 C 11.375 -39.882812 14.332031 -43.175781 17.59375 -46.1875 C 20.863281 -49.207031 24.1875 -51.796875 27.5625 -53.953125 C 26.007812 -53.890625 24.441406 -53.925781 22.859375 -54.0625 C 21.285156 -54.207031 19.921875 -54.304688 18.765625 -54.359375 C 16.492188 -54.472656 14.316406 -54.03125 12.234375 -53.03125 C 10.160156 -52.039062 8.796875 -50.351562 8.140625 -47.96875 C 7.910156 -47.082031 7.863281 -46.15625 8 -45.1875 C 8.144531 -44.21875 8.550781 -43.429688 9.21875 -42.828125 C 9.550781 -42.492188 9.878906 -42.328125 10.203125 -42.328125 C 10.535156 -42.441406 10.71875 -42.375 10.75 -42.125 C 10.78125 -41.875 10.628906 -41.664062 10.296875 -41.5 C 9.179688 -40.894531 7.945312 -40.617188 6.59375 -40.671875 C 5.238281 -40.722656 4.066406 -41.109375 3.078125 -41.828125 C 1.023438 -43.378906 0 -45.398438 0 -47.890625 C 0 -49.546875 0.453125 -51.160156 1.359375 -52.734375 C 2.273438 -54.316406 3.601562 -55.601562 5.34375 -56.59375 C 7.09375 -57.59375 9.210938 -58.09375 11.703125 -58.09375 C 14.023438 -58.09375 16.140625 -57.992188 18.046875 -57.796875 C 19.960938 -57.609375 21.859375 -57.429688 23.734375 -57.265625 C 25.617188 -57.097656 27.664062 -57.046875 29.875 -57.109375 C 31.8125 -57.210938 33.609375 -57.398438 35.265625 -57.671875 C 36.929688 -57.953125 38.707031 -58.09375 40.59375 -58.09375 Z M 11.125 -28.296875 C 12.226562 -29.242188 13.457031 -29.976562 14.8125 -30.5 C 16.164062 -31.03125 17.617188 -31.320312 19.171875 -31.375 C 21.160156 -31.425781 23.097656 -31.050781 24.984375 -30.25 C 26.867188 -29.445312 28.5 -28.328125 29.875 -26.890625 C 29.875 -27.273438 29.875 -27.644531 29.875 -28 C 29.875 -28.363281 29.875 -28.710938 29.875 -29.046875 L 29.875 -43.578125 C 29.875 -45.679688 30.300781 -47.726562 31.15625 -49.71875 C 32.019531 -51.707031 33.195312 -53.453125 34.6875 -54.953125 C 32.363281 -53.898438 30.164062 -52.597656 28.09375 -51.046875 C 26.019531 -49.492188 24.125 -47.914062 22.40625 -46.3125 C 20.082031 -44.101562 17.882812 -41.40625 15.8125 -38.21875 C 13.738281 -35.039062 12.175781 -31.734375 11.125 -28.296875 Z M 11.125 -28.296875 "/></g></g><g style="fill:#0080ff;fill-opacity:1;"><g transform="translate(192.768685, 203.749981)"><path style="stroke:none" d="M 35.6875 -57.6875 C 35.582031 -57.957031 35.691406 -58.09375 36.015625 -58.09375 C 36.410156 -58.09375 36.742188 -57.925781 37.015625 -57.59375 C 37.296875 -57.269531 37.546875 -56.941406 37.765625 -56.609375 C 38.316406 -55.773438 38.71875 -54.832031 38.96875 -53.78125 C 39.21875 -52.726562 39.34375 -51.648438 39.34375 -50.546875 C 39.34375 -47.671875 38.46875 -45.234375 36.71875 -43.234375 C 34.976562 -41.242188 32.585938 -40.332031 29.546875 -40.5 C 28.054688 -40.613281 26.742188 -41.070312 25.609375 -41.875 C 24.472656 -42.675781 23.445312 -43.671875 22.53125 -44.859375 C 21.625 -46.046875 20.738281 -47.257812 19.875 -48.5 C 19.019531 -49.75 18.125 -50.847656 17.1875 -51.796875 C 15.519531 -53.453125 13.992188 -54.289062 12.609375 -54.3125 C 11.234375 -54.34375 10.046875 -53.847656 9.046875 -52.828125 C 8.046875 -51.804688 7.242188 -50.519531 6.640625 -48.96875 C 6.035156 -47.3125 5.660156 -45.28125 5.515625 -42.875 C 5.378906 -40.46875 5.460938 -37.878906 5.765625 -35.109375 C 6.066406 -32.335938 6.601562 -29.597656 7.375 -26.890625 C 8.15625 -24.179688 9.128906 -21.71875 10.296875 -19.5 C 11.734375 -16.789062 13.429688 -14.84375 15.390625 -13.65625 C 17.359375 -12.46875 19.378906 -11.914062 21.453125 -12 C 23.523438 -12.082031 25.460938 -12.644531 27.265625 -13.6875 C 29.066406 -14.738281 30.546875 -16.132812 31.703125 -17.875 C 32.867188 -19.625 33.503906 -21.523438 33.609375 -23.578125 C 33.609375 -23.847656 33.59375 -24.160156 33.5625 -24.515625 C 33.539062 -24.878906 33.421875 -25.117188 33.203125 -25.234375 C 32.984375 -25.335938 32.898438 -25.554688 32.953125 -25.890625 C 33.003906 -26.222656 33.335938 -26.304688 33.953125 -26.140625 C 35.722656 -25.753906 37.050781 -24.8125 37.9375 -23.3125 C 38.820312 -21.820312 39.289062 -20.164062 39.34375 -18.34375 C 39.394531 -14.914062 38.644531 -11.800781 37.09375 -9 C 35.550781 -6.207031 33.453125 -4.007812 30.796875 -2.40625 C 28.140625 -0.800781 25.125 0 21.75 0 C 17.65625 0 14.207031 -0.953125 11.40625 -2.859375 C 8.613281 -4.773438 6.382812 -7.265625 4.71875 -10.328125 C 3.0625 -13.398438 1.859375 -16.734375 1.109375 -20.328125 C 0.367188 -23.929688 0 -27.421875 0 -30.796875 C 0 -32.953125 0.109375 -35.273438 0.328125 -37.765625 C 0.546875 -40.253906 0.957031 -42.703125 1.5625 -45.109375 C 2.175781 -47.515625 3.050781 -49.695312 4.1875 -51.65625 C 5.320312 -53.625 6.800781 -55.1875 8.625 -56.34375 C 10.457031 -57.507812 12.703125 -58.09375 15.359375 -58.09375 C 17.347656 -58.09375 19.0625 -57.757812 20.5 -57.09375 C 21.9375 -56.4375 23.375 -55.789062 24.8125 -55.15625 C 26.25 -54.519531 27.910156 -54.253906 29.796875 -54.359375 C 32.335938 -54.523438 34.25 -55.328125 35.53125 -56.765625 C 35.75 -57.046875 35.800781 -57.351562 35.6875 -57.6875 Z M 35.6875 -57.6875 "/></g></g><g style="fill:#0080ff;fill-opacity:1;"><g transform="translate(234.762766, 203.749981)"><path style="stroke:none" d="M 19.671875 -58.09375 C 22.378906 -58.09375 24.921875 -57.347656 27.296875 -55.859375 C 29.679688 -54.367188 31.769531 -52.28125 33.5625 -49.59375 C 35.363281 -46.90625 36.773438 -43.804688 37.796875 -40.296875 C 38.828125 -36.785156 39.34375 -33.035156 39.34375 -29.046875 C 39.34375 -25.066406 38.828125 -21.316406 37.796875 -17.796875 C 36.773438 -14.285156 35.363281 -11.1875 33.5625 -8.5 C 31.769531 -5.820312 29.679688 -3.734375 27.296875 -2.234375 C 24.921875 -0.742188 22.378906 0 19.671875 0 C 16.960938 0 14.414062 -0.742188 12.03125 -2.234375 C 9.65625 -3.734375 7.566406 -5.820312 5.765625 -8.5 C 3.972656 -11.1875 2.5625 -14.285156 1.53125 -17.796875 C 0.507812 -21.316406 0 -25.066406 0 -29.046875 C 0 -33.035156 0.507812 -36.785156 1.53125 -40.296875 C 2.5625 -43.804688 3.972656 -46.90625 5.765625 -49.59375 C 7.566406 -52.28125 9.65625 -54.367188 12.03125 -55.859375 C 14.414062 -57.347656 16.960938 -58.09375 19.671875 -58.09375 Z M 24.8125 -5.96875 C 26.863281 -5.695312 28.507812 -6.457031 29.75 -8.25 C 31 -10.050781 31.734375 -12.625 31.953125 -15.96875 C 32.171875 -19.320312 31.8125 -23.128906 30.875 -27.390625 C 29.9375 -31.648438 28.582031 -35.59375 26.8125 -39.21875 C 25.039062 -42.84375 23.070312 -45.828125 20.90625 -48.171875 C 18.75 -50.523438 16.625 -51.84375 14.53125 -52.125 C 12.476562 -52.457031 10.84375 -51.707031 9.625 -49.875 C 8.40625 -48.050781 7.671875 -45.460938 7.421875 -42.109375 C 7.179688 -38.765625 7.53125 -34.960938 8.46875 -30.703125 C 9.40625 -26.503906 10.757812 -22.578125 12.53125 -18.921875 C 14.300781 -15.273438 16.28125 -12.285156 18.46875 -9.953125 C 20.65625 -7.628906 22.769531 -6.300781 24.8125 -5.96875 Z M 24.8125 -5.96875 "/></g></g></g></svg>