<svg xmlns="http://www.w3.org/2000/svg" xmlns:xlink="http://www.w3.org/1999/xlink" width="500" zoomAndPan="magnify" viewBox="0 0 375 374.999991" height="500" preserveAspectRatio="xMidYMid meet" version="1.2"><defs><clipPath id="a163a3a291"><path d="M 118 44.734375 L 250 44.734375 L 250 173 L 118 173 Z M 118 44.734375 "/></clipPath><clipPath id="fa4b924bf3"><path d="M 53.300781 123 L 123 123 L 123 186 L 53.300781 186 Z M 53.300781 123 "/></clipPath><clipPath id="7e9ec2b2a4"><rect x="0" width="60" y="0" height="25"/></clipPath><clipPath id="f9dc4ebb2d"><rect x="0" width="142" y="0" height="60"/></clipPath></defs><g id="f2903a662b"><rect x="0" width="375" y="0" height="374.999991" style="fill:#ffffff;fill-opacity:1;stroke:none;"/><rect x="0" width="375" y="0" height="374.999991" style="fill:#ffffff;fill-opacity:1;stroke:none;"/><path style=" stroke:none;fill-rule:nonzero;fill:#000000;fill-opacity:1;" d="M 251.515625 190.523438 L 266.898438 177.78125 L 263.183594 173.101562 L 240.164062 190.578125 C 243.640625 190.558594 247.441406 190.539062 251.515625 190.523438 Z M 251.515625 190.523438 "/><path style=" stroke:none;fill-rule:nonzero;fill:#000000;fill-opacity:1;" d="M 125.929688 184.273438 C 161.175781 184.253906 187.164062 184.542969 187.582031 184.546875 C 187.960938 184.542969 214.832031 184.242188 250.992188 184.273438 L 257.917969 179.007812 C 218.28125 178.929688 187.941406 179.265625 187.582031 179.269531 C 187.1875 179.265625 158.28125 178.945312 120.054688 179.003906 Z M 125.929688 184.273438 "/><path style=" stroke:none;fill-rule:nonzero;fill:#000000;fill-opacity:1;" d="M 304.042969 181.65625 C 303.914062 180.316406 302.792969 179.285156 301.445312 179.269531 C 299.773438 179.25 298.109375 179.234375 296.445312 179.222656 L 288.558594 184.425781 C 292.023438 184.453125 295.511719 184.484375 299.019531 184.519531 L 307.222656 270.519531 C 273.894531 261.765625 231.597656 256.960938 187.554688 256.960938 C 143.511719 256.960938 101.210938 261.765625 67.886719 270.519531 L 76.089844 184.519531 C 79.992188 184.480469 83.878906 184.445312 87.726562 184.417969 C 85.371094 182.792969 83.019531 180.992188 80.8125 179.199219 C 78.4375 179.222656 76.054688 179.242188 73.660156 179.269531 C 72.3125 179.28125 71.191406 180.3125 71.0625 181.65625 L 62.273438 273.808594 C 62.191406 274.671875 62.539062 275.523438 63.203125 276.078125 C 63.867188 276.636719 64.765625 276.832031 65.601562 276.601562 C 99.023438 267.335938 142.332031 262.234375 187.554688 262.234375 C 232.773438 262.234375 276.082031 267.335938 309.503906 276.601562 C 309.738281 276.664062 309.972656 276.695312 310.210938 276.695312 C 310.820312 276.695312 311.421875 276.480469 311.902344 276.078125 C 312.566406 275.523438 312.914062 274.671875 312.832031 273.808594 Z M 304.042969 181.65625 "/><path style=" stroke:none;fill-rule:nonzero;fill:#000000;fill-opacity:1;" d="M 138.707031 190.59375 L 109.359375 168.421875 L 105.648438 173.101562 L 126.730469 190.535156 C 131.085938 190.550781 135.101562 190.574219 138.707031 190.59375 Z M 138.707031 190.59375 "/><g clip-rule="nonzero" clip-path="url(#a163a3a291)"><path style=" stroke:none;fill-rule:nonzero;fill:#da420e;fill-opacity:1;" d="M 130.019531 143.691406 C 125.386719 128.011719 125.269531 116.21875 118.941406 111.558594 C 118.941406 111.558594 130.269531 112.800781 137.265625 123.046875 C 144.261719 133.292969 153.589844 133.292969 158.917969 128.636719 C 164.25 123.980469 160.917969 110.308594 152.589844 98.523438 C 147.277344 91.003906 148.59375 74.929688 163.253906 69.339844 C 177.910156 63.75 179.242188 44.734375 179.242188 44.734375 C 179.242188 44.734375 195.066406 63.207031 190.734375 78.730469 C 186.402344 94.253906 189.570312 103.800781 197.898438 101.9375 C 206.226562 100.074219 205.726562 96.972656 203.726562 88.277344 C 201.730469 79.585938 206.5625 68.71875 212.558594 66.546875 C 212.558594 66.546875 208.476562 80.828125 218.21875 87.816406 C 225.523438 93.050781 231.546875 111.875 222.550781 121.1875 C 213.554688 130.5 223.714844 138.261719 233.710938 131.125 C 243.707031 123.984375 242.207031 110.632812 242.207031 110.632812 C 242.207031 110.632812 258.777344 141.371094 242.996094 158.132812 C 227.214844 174.898438 206.5625 172.101562 206.5625 172.101562 C 206.5625 172.101562 224.882812 164.339844 228.546875 151.925781 C 228.546875 151.925781 213.945312 157.925781 203.894531 153.164062 C 193.734375 148.351562 201.5625 130.191406 206.558594 124.914062 C 211.558594 119.636719 212.222656 114.050781 212.222656 114.050781 C 212.222656 114.050781 206.644531 124.835938 191.984375 122.972656 C 177.324219 121.109375 175.027344 101.320312 175.027344 101.320312 C 175.027344 101.320312 169.449219 116.351562 175.027344 126.46875 C 182.988281 140.902344 182.394531 148.78125 173.746094 149.285156 C 161.75 149.984375 151.921875 141.371094 151.921875 141.371094 C 151.921875 141.371094 157.5 165.585938 175.027344 172.28125 C 175.027344 172.273438 139.511719 175.824219 130.019531 143.691406 Z M 130.019531 143.691406 "/></g><path style=" stroke:none;fill-rule:nonzero;fill:#000000;fill-opacity:1;" d="M 73.972656 196.054688 L 89.425781 194.796875 L 73.859375 201.03125 L 71.03125 227.847656 L 82.070312 226.195312 L 70.933594 231.753906 L 69.558594 244.757812 L 78.226562 242.386719 L 69.421875 248.019531 L 67.84375 261.355469 C 67.84375 261.355469 80.660156 256.683594 102.320312 254.71875 C 102.320312 254.71875 70.972656 261.839844 65.730469 265.359375 L 72.84375 190.761719 Z M 73.972656 196.054688 "/><path style=" stroke:none;fill-rule:nonzero;fill:#000000;fill-opacity:1;" d="M 307.597656 265.359375 C 307.597656 265.359375 295.972656 261.03125 285.273438 259.3125 L 306.222656 262.15625 L 304.773438 241.15625 L 292.300781 236.988281 L 304.421875 238.460938 L 302.378906 220.886719 L 295.613281 218.835938 L 302.214844 218.753906 L 300.007812 196.59375 C 300.007812 196.59375 283.574219 193.8125 268.691406 194.140625 C 268.691406 194.140625 287.085938 192.625 300.761719 193.679688 Z M 307.597656 265.359375 "/><path style=" stroke:none;fill-rule:nonzero;fill:#000000;fill-opacity:1;" d="M 188.890625 259.601562 C 188.890625 259.601562 123.609375 257.65625 64.898438 274.0625 L 75.527344 280.066406 C 75.527344 280.066406 102.359375 273.851562 140.761719 271.046875 L 151.492188 262.160156 L 145.1875 270.742188 C 158.664062 269.875 173.441406 269.449219 188.890625 269.859375 C 203.230469 269.476562 216.984375 269.820312 229.660156 270.5625 L 223.488281 262.160156 L 233.960938 270.835938 C 273.988281 273.519531 302.253906 280.066406 302.253906 280.066406 L 312.886719 274.0625 C 254.175781 257.652344 188.890625 259.601562 188.890625 259.601562 Z M 188.890625 259.601562 "/><path style=" stroke:none;fill-rule:nonzero;fill:#000000;fill-opacity:1;" d="M 272.371094 287.691406 L 242.253906 264.828125 C 236.378906 263.988281 230.335938 263.238281 224.140625 262.589844 L 265.257812 296.65625 C 267.730469 298.703125 271.398438 298.320312 273.394531 295.804688 C 275.386719 293.296875 274.929688 289.632812 272.371094 287.691406 Z M 270.308594 295.398438 C 270.308594 295.398438 270.351562 292.1875 268.136719 290.398438 L 244.878906 269.796875 L 269.289062 288.628906 C 269.289062 288.628906 273.007812 291.5625 270.308594 295.398438 Z M 270.308594 295.398438 "/><path style=" stroke:none;fill-rule:nonzero;fill:#000000;fill-opacity:1;" d="M 133.695312 264.1875 L 102.734375 287.695312 C 100.179688 289.636719 99.714844 293.296875 101.710938 295.808594 C 103.703125 298.324219 107.375 298.707031 109.84375 296.660156 L 151.488281 262.160156 C 145.414062 262.742188 139.480469 263.421875 133.695312 264.1875 Z M 106.992188 290.105469 C 104.679688 291.761719 104.53125 294.972656 104.53125 294.972656 C 102.0625 290.988281 105.945312 288.273438 105.945312 288.273438 L 131.410156 270.894531 Z M 106.992188 290.105469 "/><g clip-rule="nonzero" clip-path="url(#fa4b924bf3)"><path style=" stroke:none;fill-rule:nonzero;fill:#000000;fill-opacity:1;" d="M 108.878906 148.683594 L 69.316406 123.832031 L 68.644531 124.679688 L 101.414062 151.851562 C 107.921875 157.25 110.46875 165.1875 106.738281 169.890625 C 103.003906 174.59375 94.699219 173.917969 87.960938 168.808594 L 54.046875 143.082031 L 53.375 143.929688 L 86.578125 176.796875 C 97.410156 187.519531 111.777344 188.839844 119.058594 179.660156 C 126.339844 170.484375 121.785156 156.792969 108.878906 148.683594 Z M 113.160156 180.652344 C 113.160156 180.652344 120.5 173.945312 116.414062 163.300781 C 113.109375 154.699219 94.5 142.464844 94.5 142.464844 C 94.5 142.464844 114.734375 154.359375 117.679688 162.660156 C 120.148438 169.617188 119.171875 176.828125 113.160156 180.652344 Z M 113.160156 180.652344 "/></g><path style=" stroke:none;fill-rule:nonzero;fill:#000000;fill-opacity:1;" d="M 319.957031 150.390625 L 301.929688 127.664062 C 300.253906 125.554688 297.140625 125.3125 295.160156 127.136719 L 257.492188 161.859375 C 255.707031 163.503906 255.496094 166.246094 257.003906 168.148438 L 270.3125 184.929688 C 271.820312 186.828125 274.539062 187.242188 276.546875 185.882812 L 318.929688 157.101562 C 321.160156 155.585938 321.628906 152.5 319.957031 150.390625 Z M 259 166.980469 C 257.777344 165.570312 257.90625 163.4375 259.300781 162.1875 L 296.347656 128.929688 L 260.324219 163.070312 C 259.433594 163.914062 259.222656 165.25 259.808594 166.324219 L 262.097656 170.539062 Z M 262.359375 164.65625 L 297.457031 133.785156 L 300.023438 137.023438 L 264.4375 167.277344 Z M 269.683594 173.890625 L 267.605469 171.269531 L 303.929688 141.949219 L 306.5 145.1875 Z M 274.929688 180.503906 L 272.847656 177.882812 L 310.40625 150.117188 L 312.976562 153.351562 Z M 274.929688 180.503906 "/><g transform="matrix(1,0,0,1,158,270)"><g clip-path="url(#7e9ec2b2a4)"><g style="fill:#000000;fill-opacity:1;"><g transform="translate(1.102343, 18.091878)"><path style="stroke:none" d="M 0.609375 0 L 0.609375 -13.75 L 6.125 -13.75 L 6.125 -11.09375 L 3.40625 -11.09375 L 3.40625 -8.421875 L 6 -8.421875 L 6 -5.828125 L 3.40625 -5.828125 L 3.40625 -2.671875 L 6.296875 -2.671875 L 6.296875 0 Z M 0.609375 0 "/></g></g><g style="fill:#000000;fill-opacity:1;"><g transform="translate(7.700882, 18.091878)"><path style="stroke:none" d="M 3.875 0.125 C 2.625 0.125 1.722656 -0.179688 1.171875 -0.796875 C 0.617188 -1.421875 0.34375 -2.421875 0.34375 -3.796875 L 0.34375 -5.140625 L 3.046875 -5.140625 L 3.046875 -3.421875 C 3.046875 -2.742188 3.265625 -2.40625 3.703125 -2.40625 C 3.941406 -2.40625 4.109375 -2.472656 4.203125 -2.609375 C 4.304688 -2.753906 4.359375 -3 4.359375 -3.34375 C 4.359375 -3.789062 4.300781 -4.160156 4.1875 -4.453125 C 4.082031 -4.753906 3.945312 -5.003906 3.78125 -5.203125 C 3.625 -5.398438 3.332031 -5.707031 2.90625 -6.125 L 1.71875 -7.296875 C 0.800781 -8.191406 0.34375 -9.1875 0.34375 -10.28125 C 0.34375 -11.457031 0.609375 -12.351562 1.140625 -12.96875 C 1.679688 -13.582031 2.46875 -13.890625 3.5 -13.890625 C 4.738281 -13.890625 5.628906 -13.5625 6.171875 -12.90625 C 6.722656 -12.25 7 -11.21875 7 -9.8125 L 4.203125 -9.8125 L 4.1875 -10.765625 C 4.1875 -10.941406 4.132812 -11.082031 4.03125 -11.1875 C 3.925781 -11.300781 3.785156 -11.359375 3.609375 -11.359375 C 3.390625 -11.359375 3.226562 -11.296875 3.125 -11.171875 C 3.019531 -11.054688 2.96875 -10.898438 2.96875 -10.703125 C 2.96875 -10.253906 3.222656 -9.789062 3.734375 -9.3125 L 5.328125 -7.765625 C 5.703125 -7.398438 6.007812 -7.054688 6.25 -6.734375 C 6.5 -6.410156 6.695312 -6.023438 6.84375 -5.578125 C 7 -5.140625 7.078125 -4.613281 7.078125 -4 C 7.078125 -2.644531 6.828125 -1.617188 6.328125 -0.921875 C 5.835938 -0.222656 5.019531 0.125 3.875 0.125 Z M 3.875 0.125 "/></g></g><g style="fill:#000000;fill-opacity:1;"><g transform="translate(15.084205, 18.091878)"><path style="stroke:none" d="M 1.796875 0 L 1.796875 -11.109375 L 0.15625 -11.109375 L 0.15625 -13.75 L 6.1875 -13.75 L 6.1875 -11.109375 L 4.546875 -11.109375 L 4.546875 0 Z M 1.796875 0 "/></g></g><g style="fill:#000000;fill-opacity:1;"><g transform="translate(21.426496, 18.091878)"><path style="stroke:none" d="M 0.4375 0 L 0.4375 -2.34375 L 3.234375 -2.34375 L 3.234375 0 Z M 0.4375 0 "/></g></g><g style="fill:#000000;fill-opacity:1;"><g transform="translate(25.094133, 18.091878)"><path style="stroke:none" d=""/></g></g><g style="fill:#000000;fill-opacity:1;"><g transform="translate(28.841852, 18.091878)"><path style="stroke:none" d="M 0.484375 -0.65625 C 0.484375 -1.28125 0.582031 -1.859375 0.78125 -2.390625 C 0.976562 -2.929688 1.21875 -3.414062 1.5 -3.84375 C 1.789062 -4.269531 2.171875 -4.769531 2.640625 -5.34375 C 3.117188 -5.945312 3.5 -6.457031 3.78125 -6.875 C 4.070312 -7.289062 4.3125 -7.765625 4.5 -8.296875 C 4.695312 -8.835938 4.796875 -9.425781 4.796875 -10.0625 C 4.796875 -10.4375 4.742188 -10.726562 4.640625 -10.9375 C 4.535156 -11.144531 4.34375 -11.25 4.0625 -11.25 C 3.601562 -11.25 3.375 -10.835938 3.375 -10.015625 L 3.375 -8.328125 L 0.484375 -8.328125 L 0.453125 -9.171875 C 0.453125 -10.222656 0.554688 -11.082031 0.765625 -11.75 C 0.984375 -12.425781 1.359375 -12.941406 1.890625 -13.296875 C 2.421875 -13.648438 3.15625 -13.828125 4.09375 -13.828125 C 5.25 -13.828125 6.140625 -13.503906 6.765625 -12.859375 C 7.398438 -12.210938 7.71875 -11.296875 7.71875 -10.109375 C 7.71875 -9.347656 7.613281 -8.660156 7.40625 -8.046875 C 7.195312 -7.429688 6.941406 -6.894531 6.640625 -6.4375 C 6.335938 -5.976562 5.929688 -5.441406 5.421875 -4.828125 C 5.066406 -4.378906 4.765625 -3.984375 4.515625 -3.640625 C 4.273438 -3.304688 4.0625 -2.957031 3.875 -2.59375 L 7.625 -2.59375 L 7.625 0 L 0.484375 0 Z M 0.484375 -0.65625 "/></g></g><g style="fill:#000000;fill-opacity:1;"><g transform="translate(36.753699, 18.091878)"><path style="stroke:none" d="M 3.953125 0.125 C 2.785156 0.125 1.882812 -0.203125 1.25 -0.859375 C 0.625 -1.515625 0.3125 -2.453125 0.3125 -3.671875 L 0.3125 -9.875 C 0.3125 -11.175781 0.613281 -12.171875 1.21875 -12.859375 C 1.832031 -13.546875 2.742188 -13.890625 3.953125 -13.890625 C 5.171875 -13.890625 6.082031 -13.546875 6.6875 -12.859375 C 7.300781 -12.171875 7.609375 -11.175781 7.609375 -9.875 L 7.609375 -3.671875 C 7.609375 -2.441406 7.289062 -1.5 6.65625 -0.84375 C 6.03125 -0.195312 5.128906 0.125 3.953125 0.125 Z M 3.953125 -2.40625 C 4.160156 -2.40625 4.328125 -2.5 4.453125 -2.6875 C 4.578125 -2.875 4.640625 -3.09375 4.640625 -3.34375 L 4.640625 -10.140625 C 4.640625 -10.535156 4.59375 -10.835938 4.5 -11.046875 C 4.414062 -11.253906 4.234375 -11.359375 3.953125 -11.359375 C 3.679688 -11.359375 3.5 -11.253906 3.40625 -11.046875 C 3.320312 -10.835938 3.28125 -10.535156 3.28125 -10.140625 L 3.28125 -3.34375 C 3.28125 -3.09375 3.34375 -2.875 3.46875 -2.6875 C 3.59375 -2.5 3.753906 -2.40625 3.953125 -2.40625 Z M 3.953125 -2.40625 "/></g></g><g style="fill:#000000;fill-opacity:1;"><g transform="translate(44.665547, 18.091878)"><path style="stroke:none" d="M 1.890625 -10.609375 C 1.710938 -10.378906 1.457031 -10.191406 1.125 -10.046875 C 0.800781 -9.910156 0.488281 -9.84375 0.1875 -9.84375 L 0.1875 -12.046875 C 0.65625 -12.117188 1.125 -12.300781 1.59375 -12.59375 C 2.0625 -12.894531 2.394531 -13.285156 2.59375 -13.765625 L 4.796875 -13.765625 L 4.796875 0 L 1.890625 0 Z M 1.890625 -10.609375 "/></g></g><g style="fill:#000000;fill-opacity:1;"><g transform="translate(49.966805, 18.091878)"><path style="stroke:none" d="M 3.78125 0.15625 C 2.570312 0.15625 1.6875 -0.160156 1.125 -0.796875 C 0.570312 -1.429688 0.296875 -2.398438 0.296875 -3.703125 L 0.296875 -5.140625 L 3.125 -5.140625 L 3.125 -3.703125 C 3.125 -3.285156 3.175781 -2.960938 3.28125 -2.734375 C 3.382812 -2.503906 3.597656 -2.390625 3.921875 -2.390625 C 4.148438 -2.390625 4.3125 -2.46875 4.40625 -2.625 C 4.507812 -2.78125 4.570312 -2.96875 4.59375 -3.1875 C 4.613281 -3.40625 4.625 -3.722656 4.625 -4.140625 L 4.625 -4.484375 C 4.625 -5.671875 4.234375 -6.265625 3.453125 -6.265625 C 3.316406 -6.265625 3.226562 -6.257812 3.1875 -6.25 L 3.1875 -8.71875 C 3.675781 -8.71875 4.039062 -8.828125 4.28125 -9.046875 C 4.53125 -9.265625 4.65625 -9.613281 4.65625 -10.09375 C 4.65625 -10.875 4.429688 -11.265625 3.984375 -11.265625 C 3.710938 -11.265625 3.535156 -11.191406 3.453125 -11.046875 C 3.367188 -10.910156 3.3125 -10.734375 3.28125 -10.515625 C 3.257812 -10.304688 3.242188 -10.15625 3.234375 -10.0625 L 3.234375 -9.640625 L 0.390625 -9.640625 L 0.375 -10.125 C 0.382812 -11.382812 0.679688 -12.3125 1.265625 -12.90625 C 1.847656 -13.5 2.75 -13.796875 3.96875 -13.796875 C 6.3125 -13.796875 7.484375 -12.570312 7.484375 -10.125 C 7.484375 -9.40625 7.382812 -8.832031 7.1875 -8.40625 C 7 -7.988281 6.671875 -7.695312 6.203125 -7.53125 C 6.585938 -7.332031 6.867188 -7.09375 7.046875 -6.8125 C 7.234375 -6.53125 7.359375 -6.1875 7.421875 -5.78125 C 7.484375 -5.375 7.515625 -4.828125 7.515625 -4.140625 C 7.515625 -2.722656 7.21875 -1.648438 6.625 -0.921875 C 6.03125 -0.203125 5.082031 0.15625 3.78125 0.15625 Z M 3.78125 0.15625 "/></g></g></g></g><g transform="matrix(1,0,0,1,116,192)"><g clip-path="url(#f9dc4ebb2d)"><g style="fill:#000000;fill-opacity:1;"><g transform="translate(1.159234, 42.799915)"><path style="stroke:none" d="M 1.296875 -0.304688 L 1.296875 5.839844 L 24.09375 5.839844 L 24.09375 -8.089844 L 17.949219 -8.089844 L 17.949219 -0.304688 L 10.25 -0.304688 L 10.25 -11.722656 L 17.949219 -11.722656 L 17.949219 -17.90625 L 10.25 -17.90625 L 10.25 -25.605469 L 17.949219 -25.605469 L 17.949219 -20.460938 L 24.09375 -20.460938 L 24.09375 -31.75 L 1.296875 -31.75 L 1.296875 -25.605469 L 4.109375 -25.605469 L 4.109375 -0.304688 Z M 1.296875 -0.304688 "/></g></g><g style="fill:#000000;fill-opacity:1;"><g transform="translate(24.554395, 42.799915)"><path style="stroke:none" d="M 1.296875 -31.75 L 1.296875 -25.605469 L 4.109375 -25.605469 L 4.109375 -0.304688 L 1.296875 -0.304688 L 1.296875 5.839844 L 24.09375 5.839844 L 24.09375 -9.082031 L 17.949219 -9.082031 L 17.949219 -0.304688 L 10.25 -0.304688 L 10.25 -25.605469 L 13.0625 -25.605469 L 13.0625 -31.75 Z M 1.296875 -31.75 "/></g></g><g style="fill:#000000;fill-opacity:1;"><g transform="translate(47.949557, 42.799915)"><path style="stroke:none" d=""/></g></g><g style="fill:#000000;fill-opacity:1;"><g transform="translate(57.289972, 42.799915)"><path style="stroke:none" d="M 1.296875 5.839844 L 20.242188 5.839844 L 24.09375 1.945312 L 24.09375 -12.371094 L 21.367188 -15.183594 L 24.09375 -17.90625 L 24.09375 -28.027344 L 20.285156 -31.75 L 1.296875 -31.75 L 1.296875 -25.605469 L 4.109375 -25.605469 L 4.109375 -0.304688 L 1.296875 -0.304688 Z M 10.25 -25.605469 L 17.949219 -25.605469 L 17.949219 -17.777344 L 10.25 -17.777344 Z M 17.949219 -11.59375 L 17.949219 -0.304688 L 10.25 -0.304688 L 10.25 -11.59375 Z M 17.949219 -11.59375 "/></g></g><g style="fill:#000000;fill-opacity:1;"><g transform="translate(80.685133, 42.799915)"><path style="stroke:none" d="M 1.296875 5.839844 L 13.0625 5.839844 L 13.0625 -0.304688 L 10.25 -0.304688 L 10.25 -25.605469 L 13.0625 -25.605469 L 13.0625 -31.75 L 1.296875 -31.75 L 1.296875 -25.605469 L 4.109375 -25.605469 L 4.109375 -0.304688 L 1.296875 -0.304688 Z M 1.296875 5.839844 "/></g></g><g style="fill:#000000;fill-opacity:1;"><g transform="translate(93.052722, 42.799915)"><path style="stroke:none" d="M 1.296875 5.839844 L 13.0625 5.839844 L 13.0625 -0.304688 L 10.25 -0.304688 L 10.25 -11.679688 L 17.949219 -11.679688 L 17.949219 -17.734375 L 10.25 -17.734375 L 10.25 -25.605469 L 17.949219 -25.605469 L 17.949219 -20.371094 L 24.09375 -20.371094 L 24.09375 -31.75 L 1.296875 -31.75 L 1.296875 -25.605469 L 4.109375 -25.605469 L 4.109375 -0.304688 L 1.296875 -0.304688 Z M 1.296875 5.839844 "/></g></g><g style="fill:#000000;fill-opacity:1;"><g transform="translate(116.447884, 42.799915)"><path style="stroke:none" d="M 1.296875 -0.304688 L 1.296875 5.839844 L 24.09375 5.839844 L 24.09375 -8.089844 L 17.949219 -8.089844 L 17.949219 -0.304688 L 10.25 -0.304688 L 10.25 -11.722656 L 17.949219 -11.722656 L 17.949219 -17.90625 L 10.25 -17.90625 L 10.25 -25.605469 L 17.949219 -25.605469 L 17.949219 -20.460938 L 24.09375 -20.460938 L 24.09375 -31.75 L 1.296875 -31.75 L 1.296875 -25.605469 L 4.109375 -25.605469 L 4.109375 -0.304688 Z M 1.296875 -0.304688 "/></g></g></g></g></g></svg>