<svg xmlns="http://www.w3.org/2000/svg" xmlns:xlink="http://www.w3.org/1999/xlink" width="340" zoomAndPan="magnify" viewBox="0 0 255 296.999993" height="396" preserveAspectRatio="xMidYMid meet" version="1.2"><defs><clipPath id="6a30933a69"><path d="M 63.769531 116 L 173 116 L 173 182 L 63.769531 182 Z M 63.769531 116 "/></clipPath><clipPath id="52849d23d1"><path d="M 147 112 L 190.519531 112 L 190.519531 152 L 147 152 Z M 147 112 "/></clipPath><clipPath id="c695e6d509"><path d="M 81 116 L 190.519531 116 L 190.519531 182 L 81 182 Z M 81 116 "/></clipPath></defs><g id="4be274a6a8"><path style=" stroke:none;fill-rule:nonzero;fill:#b86000;fill-opacity:1;" d="M 118.261719 118.621094 C 119.976562 118.621094 121.6875 118.707031 123.390625 118.875 C 125.097656 119.042969 126.789062 119.292969 128.46875 119.628906 C 130.148438 119.960938 131.808594 120.378906 133.449219 120.875 C 135.089844 121.371094 136.699219 121.949219 138.28125 122.605469 C 139.867188 123.261719 141.414062 123.992188 142.921875 124.800781 C 144.433594 125.609375 145.902344 126.488281 147.328125 127.4375 C 148.75 128.390625 150.125 129.410156 151.449219 130.496094 C 152.773438 131.585938 154.042969 132.734375 155.253906 133.945312 C 156.464844 135.15625 157.613281 136.425781 158.703125 137.75 C 159.789062 139.074219 160.808594 140.449219 161.761719 141.871094 C 162.710938 143.296875 163.59375 144.765625 164.398438 146.277344 C 165.207031 147.789062 165.9375 149.335938 166.59375 150.917969 C 167.25 152.5 167.828125 154.109375 168.324219 155.75 C 168.820312 157.390625 169.238281 159.050781 169.570312 160.730469 C 169.90625 162.410156 170.15625 164.105469 170.324219 165.808594 C 170.492188 167.515625 170.578125 169.222656 170.578125 170.9375 L 170.578125 179.65625 L 74.667969 179.65625 C 74.097656 179.65625 73.527344 179.597656 72.96875 179.488281 C 72.40625 179.375 71.859375 179.210938 71.332031 178.992188 C 70.804688 178.773438 70.300781 178.503906 69.824219 178.1875 C 69.347656 177.867188 68.910156 177.507812 68.503906 177.101562 C 68.097656 176.695312 67.738281 176.257812 67.417969 175.78125 C 67.101562 175.304688 66.832031 174.800781 66.613281 174.273438 C 66.394531 173.746094 66.230469 173.199219 66.117188 172.636719 C 66.003906 172.074219 65.949219 171.507812 65.949219 170.9375 C 65.949219 169.222656 66.035156 167.515625 66.203125 165.808594 C 66.371094 164.105469 66.621094 162.410156 66.953125 160.730469 C 67.289062 159.050781 67.703125 157.390625 68.203125 155.75 C 68.699219 154.109375 69.277344 152.5 69.933594 150.917969 C 70.585938 149.335938 71.320312 147.789062 72.125 146.277344 C 72.933594 144.765625 73.8125 143.296875 74.765625 141.871094 C 75.71875 140.449219 76.738281 139.074219 77.824219 137.75 C 78.910156 136.425781 80.058594 135.15625 81.273438 133.945312 C 82.484375 132.734375 83.75 131.585938 85.074219 130.496094 C 86.398438 129.410156 87.773438 128.390625 89.199219 127.4375 C 90.625 126.488281 92.089844 125.609375 93.601562 124.800781 C 95.113281 123.992188 96.660156 123.261719 98.242188 122.605469 C 99.828125 121.949219 101.4375 121.371094 103.078125 120.875 C 104.71875 120.378906 106.375 119.960938 108.058594 119.628906 C 109.738281 119.292969 111.429688 119.042969 113.136719 118.875 C 114.839844 118.707031 116.550781 118.621094 118.261719 118.621094 Z M 118.261719 118.621094 "/><g clip-rule="nonzero" clip-path="url(#6a30933a69)"><path style="fill:none;stroke-width:2;stroke-linecap:round;stroke-linejoin:round;stroke:#000000;stroke-opacity:1;stroke-miterlimit:4;" d="M 27.999338 21.499117 C 28.786062 21.499117 29.570994 21.538543 30.352341 21.615602 C 31.135481 21.692662 31.911452 21.807355 32.682047 21.961474 C 33.452642 22.113801 34.214277 22.305554 34.966951 22.533148 C 35.719626 22.760742 36.457963 23.02597 37.183757 23.32704 C 37.911342 23.62811 38.621006 23.963229 39.31275 24.33419 C 40.006285 24.705151 40.680108 25.108369 41.334218 25.543845 C 41.986535 25.981113 42.617348 26.448846 43.224864 26.947045 C 43.83238 27.447036 44.414806 27.973908 44.970351 28.529453 C 45.525897 29.084999 46.052769 29.667425 46.55276 30.274941 C 47.050958 30.882457 47.518692 31.513269 47.95596 32.165587 C 48.391435 32.819697 48.796446 33.49352 49.165615 34.187055 C 49.536576 34.880591 49.871695 35.590255 50.172765 36.316048 C 50.473834 37.041841 50.739062 37.780179 50.966657 38.532853 C 51.194251 39.285528 51.386004 40.047162 51.538331 40.817757 C 51.69245 41.588353 51.807143 42.366116 51.884203 43.147464 C 51.961262 43.930603 52.000688 44.713743 52.000688 45.500467 L 52.000688 49.500393 L 7.999706 49.500393 C 7.738062 49.500393 7.476418 49.473512 7.220151 49.423334 C 6.962091 49.371363 6.711199 49.296096 6.469268 49.195739 C 6.227337 49.095383 5.996159 48.971729 5.777525 48.826571 C 5.558891 48.67962 5.358178 48.514748 5.171801 48.328372 C 4.985425 48.141995 4.820553 47.941282 4.673603 47.722648 C 4.528444 47.504014 4.40479 47.272836 4.304434 47.030905 C 4.204077 46.788974 4.12881 46.538082 4.076839 46.280022 C 4.024869 46.021963 3.99978 45.762111 3.99978 45.500467 C 3.99978 44.713743 4.039206 43.930603 4.116265 43.147464 C 4.193325 42.366116 4.308018 41.588353 4.460345 40.817757 C 4.614464 40.047162 4.804425 39.285528 5.033811 38.532853 C 5.261405 37.780179 5.526633 37.041841 5.827703 36.316048 C 6.126981 35.590255 6.463892 34.880591 6.833061 34.187055 C 7.204022 33.49352 7.60724 32.819697 8.044508 32.165587 C 8.481776 31.513269 8.949509 30.882457 9.447708 30.274941 C 9.945907 29.667425 10.472779 29.084999 11.030116 28.529453 C 11.585662 27.973908 12.166296 27.447036 12.773812 26.947045 C 13.381327 26.448846 14.01214 25.981113 14.66625 25.543845 C 15.32036 25.108369 15.992391 24.705151 16.685926 24.33419 C 17.379462 23.963229 18.089126 23.62811 18.814919 23.32704 C 19.542504 23.02597 20.280842 22.760742 21.033516 22.533148 C 21.786191 22.305554 22.546033 22.113801 23.31842 21.961474 C 24.089016 21.807355 24.864987 21.692662 25.648127 21.615602 C 26.429474 21.538543 27.214406 21.499117 27.999338 21.499117 Z M 27.999338 21.499117 " transform="matrix(2.179728,0,0,2.179728,57.230788,71.758875)"/></g><path style="fill-rule:nonzero;fill:#d11300;fill-opacity:1;stroke-width:2;stroke-linecap:round;stroke-linejoin:round;stroke:#000000;stroke-opacity:1;stroke-miterlimit:4;" d="M 24.999393 41.500541 C 24.999393 41.762185 24.986849 42.023828 24.961759 42.28368 C 24.93667 42.545324 24.897244 42.803384 24.847066 43.061444 C 24.795096 43.317711 24.732373 43.572187 24.655313 43.823078 C 24.580046 44.072178 24.490442 44.319485 24.391877 44.561416 C 24.291521 44.803347 24.17862 45.039902 24.054966 45.27108 C 23.931312 45.502259 23.796906 45.726269 23.651748 45.944903 C 23.506589 46.161745 23.350678 46.373211 23.184014 46.575716 C 23.017351 46.778221 22.841727 46.971766 22.657142 47.15635 C 22.470766 47.342727 22.277221 47.518351 22.074716 47.683222 C 21.872211 47.849886 21.662537 48.005797 21.443903 48.150956 C 21.227061 48.297906 21.003051 48.432313 20.771872 48.555966 C 20.540694 48.67962 20.304139 48.790729 20.062208 48.891085 C 19.820277 48.991442 19.57297 49.079254 19.322078 49.156314 C 19.071187 49.231581 18.818503 49.294304 18.560444 49.346274 C 18.304176 49.398245 18.044324 49.435878 17.784472 49.460967 C 17.522828 49.487849 17.261184 49.500393 16.99954 49.500393 C 16.737897 49.500393 16.476253 49.487849 16.216401 49.460967 C 15.954757 49.435878 15.696697 49.398245 15.438637 49.346274 C 15.18237 49.294304 14.927894 49.231581 14.677003 49.156314 C 14.426111 49.079254 14.180596 48.991442 13.938665 48.891085 C 13.696734 48.790729 13.460179 48.67962 13.229001 48.555966 C 12.997822 48.432313 12.773812 48.297906 12.555178 48.150956 C 12.338336 48.005797 12.12687 47.849886 11.924365 47.683222 C 11.72186 47.518351 11.528315 47.342727 11.343731 47.15635 C 11.157354 46.971766 10.98173 46.778221 10.815067 46.575716 C 10.650195 46.373211 10.494284 46.161745 10.349125 45.944903 C 10.202175 45.726269 10.067768 45.502259 9.944115 45.27108 C 9.820461 45.039902 9.709352 44.803347 9.608996 44.561416 C 9.508639 44.319485 9.420827 44.072178 9.343767 43.823078 C 9.2685 43.572187 9.203985 43.317711 9.153807 43.061444 C 9.101836 42.803384 9.064203 42.545324 9.039114 42.28368 C 9.012232 42.023828 8.999688 41.762185 8.999688 41.500541 C 8.999688 41.237105 9.012232 40.977253 9.039114 40.715609 C 9.064203 40.455757 9.101836 40.195905 9.153807 39.939637 C 9.203985 39.681578 9.2685 39.428894 9.343767 39.178003 C 9.420827 38.927111 9.508639 38.679804 9.608996 38.437873 C 9.709352 38.195942 9.820461 37.959387 9.944115 37.728209 C 10.067768 37.49703 10.202175 37.27302 10.349125 37.056178 C 10.494284 36.837544 10.650195 36.62787 10.815067 36.425365 C 10.98173 36.22286 11.157354 36.027523 11.343731 35.842939 C 11.528315 35.658354 11.72186 35.48273 11.924365 35.316067 C 12.12687 35.149403 12.338336 34.993492 12.555178 34.848333 C 12.773812 34.703175 12.997822 34.568769 13.229001 34.445115 C 13.460179 34.321461 13.696734 34.20856 13.938665 34.108204 C 14.180596 34.007847 14.426111 33.920035 14.677003 33.844768 C 14.927894 33.767708 15.18237 33.704985 15.438637 33.653015 C 15.696697 33.602837 15.954757 33.563411 16.216401 33.538322 C 16.476253 33.513232 16.737897 33.500688 16.99954 33.500688 C 17.261184 33.500688 17.522828 33.513232 17.784472 33.538322 C 18.044324 33.563411 18.304176 33.602837 18.560444 33.653015 C 18.818503 33.704985 19.071187 33.767708 19.322078 33.844768 C 19.57297 33.920035 19.820277 34.007847 20.062208 34.108204 C 20.304139 34.20856 20.540694 34.321461 20.771872 34.445115 C 21.003051 34.568769 21.227061 34.703175 21.443903 34.848333 C 21.662537 34.993492 21.872211 35.149403 22.074716 35.316067 C 22.277221 35.48273 22.470766 35.658354 22.657142 35.842939 C 22.841727 36.027523 23.017351 36.22286 23.184014 36.425365 C 23.350678 36.62787 23.506589 36.837544 23.651748 37.056178 C 23.796906 37.27302 23.931312 37.49703 24.054966 37.728209 C 24.17862 37.959387 24.291521 38.195942 24.391877 38.437873 C 24.490442 38.679804 24.580046 38.927111 24.655313 39.178003 C 24.732373 39.428894 24.795096 39.681578 24.847066 39.939637 C 24.897244 40.195905 24.93667 40.455757 24.961759 40.715609 C 24.986849 40.977253 24.999393 41.237105 24.999393 41.500541 Z M 24.999393 41.500541 " transform="matrix(2.179728,0,0,2.179728,57.230788,71.758875)"/><path style="fill-rule:nonzero;fill:#4fad00;fill-opacity:1;stroke-width:2;stroke-linecap:round;stroke-linejoin:round;stroke:#000000;stroke-opacity:1;stroke-miterlimit:4;" d="M 28.180338 19.90058 C 27.57103 19.707035 26.943802 19.597718 26.304029 19.576213 C 25.664255 19.554708 25.033443 19.619223 24.409798 19.77155 C 23.787946 19.923877 23.196559 20.156848 22.639222 20.470462 C 22.080092 20.784076 21.574725 21.167582 21.121328 21.620978 C 20.667932 22.074375 20.284426 22.579742 19.970812 23.138872 C 19.657198 23.696209 19.424227 24.287596 19.2719 24.909448 C 19.119573 25.533093 19.055058 26.163905 19.076563 26.803679 C 19.098068 27.445244 19.205593 28.07068 19.399138 28.68178 C 19.060434 28.653107 18.723523 28.658483 18.38482 28.699701 C 18.047908 28.739127 17.716373 28.812602 17.393798 28.921919 C 17.071224 29.029444 16.762986 29.169226 16.469084 29.339474 C 16.175183 29.509722 15.900994 29.708643 15.648311 29.934445 C 15.393835 30.16204 15.166241 30.411139 14.963736 30.685328 C 14.76123 30.957724 14.587398 31.249833 14.444032 31.558071 C 14.302457 31.866309 14.191348 32.1853 14.112497 32.516835 C 14.035437 32.84837 13.990635 33.183489 13.981675 33.523985 C 13.972714 33.862688 13.997804 34.201392 14.056942 34.536511 C 14.116081 34.869838 14.209269 35.195997 14.334715 35.511404 C 14.460161 35.828602 14.616072 36.12788 14.802448 36.412821 C 14.990617 36.69597 15.203875 36.959406 15.444014 37.199545 C 15.685945 37.439683 15.947588 37.652941 16.232529 37.84111 C 16.515678 38.027486 16.816748 38.183397 17.132154 38.308843 C 17.447561 38.434289 17.77372 38.527477 18.108839 38.586616 C 18.443958 38.645754 18.78087 38.670844 19.121365 38.661883 C 19.460069 38.651131 19.79698 38.608121 20.126723 38.529269 C 20.458258 38.45221 20.777249 38.341101 21.087279 38.197734 C 21.395517 38.054368 21.685834 37.882328 21.95823 37.67803 C 22.232419 37.475525 22.481518 37.247931 22.709113 36.995247 C 22.934915 36.740772 23.133836 36.466583 23.304084 36.172682 C 23.474332 35.87878 23.614114 35.570542 23.721639 35.247968 C 23.829164 34.925393 23.904431 34.593858 23.943857 34.256946 C 23.985075 33.920035 23.990451 33.581332 23.961778 33.242628 C 24.572878 33.436173 25.198314 33.543698 25.838087 33.565203 C 26.479653 33.586708 27.110465 33.522193 27.732318 33.369866 C 28.35417 33.219331 28.945557 32.98636 29.504686 32.670954 C 30.062024 32.35734 30.567391 31.973834 31.020788 31.520438 C 31.474184 31.068833 31.85769 30.561674 32.171304 30.004337 C 32.484918 29.445207 32.717889 28.855612 32.870216 28.231968 C 33.022543 27.610115 33.087058 26.979303 33.065553 26.337737 C 33.044048 25.697964 32.936523 25.072528 32.741186 24.461428 C 33.081682 24.490101 33.418593 24.484725 33.757296 24.445299 C 34.094208 24.404081 34.423951 24.330606 34.748318 24.223081 C 35.070892 24.113764 35.37913 23.975774 35.673032 23.803734 C 35.966933 23.633486 36.241122 23.434565 36.493805 23.208763 C 36.748281 22.981168 36.975875 22.732069 37.17838 22.459673 C 37.380886 22.185484 37.554717 21.895167 37.698084 21.586929 C 37.841451 21.278691 37.95256 20.957908 38.029619 20.628165 C 38.108471 20.29663 38.151481 19.961511 38.160441 19.621015 C 38.171194 19.28052 38.146104 18.943608 38.086966 18.608489 C 38.027827 18.27337 37.934639 17.947211 37.809193 17.631805 C 37.683747 17.316398 37.527836 17.015328 37.339668 16.73218 C 37.153291 16.447239 36.940033 16.185595 36.699894 15.945456 C 36.457963 15.703525 36.19632 15.490267 35.913171 15.30389 C 35.62823 15.115722 35.328952 14.959811 35.011754 14.834365 C 34.696347 14.708919 34.370188 14.615731 34.035069 14.556592 C 33.701742 14.497454 33.363038 14.472365 33.024335 14.481325 C 32.683839 14.492077 32.34872 14.535087 32.017185 14.612147 C 31.68565 14.690998 31.366659 14.802108 31.058421 14.945474 C 30.748391 15.088841 30.458074 15.26088 30.185678 15.463386 C 29.911489 15.665891 29.66239 15.893485 29.434795 16.147961 C 29.208993 16.400644 29.010072 16.674833 28.839824 16.968734 C 28.667784 17.264428 28.529794 17.572666 28.420477 17.895241 C 28.312952 18.217815 28.239477 18.547558 28.198259 18.88447 C 28.158833 19.223173 28.151665 19.561877 28.180338 19.90058 Z M 28.180338 19.90058 " transform="matrix(2.179728,0,0,2.179728,57.230788,71.758875)"/><path style="fill-rule:nonzero;fill:#d11300;fill-opacity:1;stroke-width:2;stroke-linecap:round;stroke-linejoin:round;stroke:#000000;stroke-opacity:1;stroke-miterlimit:4;" d="M 47.00078 20.499135 C 47.00078 20.893393 46.961354 21.284067 46.884295 21.671157 C 46.807235 22.056454 46.694334 22.432791 46.543799 22.796584 C 46.393264 23.160377 46.206888 23.506248 45.988254 23.834199 C 45.76962 24.160358 45.520521 24.46322 45.242748 24.742785 C 44.963183 25.020557 44.660321 25.269657 44.334162 25.488291 C 44.006212 25.706925 43.66034 25.893301 43.296547 26.043836 C 42.932755 26.194371 42.556417 26.307272 42.17112 26.384332 C 41.78403 26.461391 41.393356 26.500817 41.000891 26.500817 C 40.606633 26.500817 40.215959 26.461391 39.828869 26.384332 C 39.443572 26.307272 39.067234 26.194371 38.703442 26.043836 C 38.339649 25.893301 37.993777 25.706925 37.665827 25.488291 C 37.339668 25.269657 37.036806 25.020557 36.757241 24.742785 C 36.479468 24.46322 36.230369 24.160358 36.011735 23.834199 C 35.793101 23.506248 35.606725 23.160377 35.45619 22.796584 C 35.305655 22.432791 35.192754 22.056454 35.115694 21.671157 C 35.038635 21.284067 34.999209 20.893393 34.999209 20.499135 C 34.999209 20.106669 35.038635 19.715996 35.115694 19.328906 C 35.192754 18.943608 35.305655 18.567271 35.45619 18.203479 C 35.606725 17.839686 35.793101 17.493814 36.011735 17.165863 C 36.230369 16.839704 36.479468 16.535051 36.757241 16.257278 C 37.036806 15.979505 37.339668 15.730406 37.665827 15.511772 C 37.993777 15.293138 38.339649 15.106761 38.703442 14.956227 C 39.067234 14.805692 39.443572 14.692791 39.828869 14.615731 C 40.215959 14.538672 40.606633 14.499246 41.000891 14.499246 C 41.393356 14.499246 41.78403 14.538672 42.17112 14.615731 C 42.556417 14.692791 42.932755 14.805692 43.296547 14.956227 C 43.66034 15.106761 44.006212 15.293138 44.334162 15.511772 C 44.660321 15.730406 44.963183 15.979505 45.242748 16.257278 C 45.520521 16.535051 45.76962 16.839704 45.988254 17.165863 C 46.206888 17.493814 46.393264 17.839686 46.543799 18.203479 C 46.694334 18.567271 46.807235 18.943608 46.884295 19.328906 C 46.961354 19.715996 47.00078 20.106669 47.00078 20.499135 Z M 47.00078 20.499135 " transform="matrix(2.179728,0,0,2.179728,57.230788,71.758875)"/><path style=" stroke:none;fill-rule:nonzero;fill:#a6c861;fill-opacity:1;" d="M 177.117188 122.746094 C 176.375 122.007812 175.546875 121.390625 174.628906 120.890625 C 173.714844 120.394531 172.742188 120.035156 171.722656 119.8125 C 170.703125 119.59375 169.671875 119.523438 168.628906 119.597656 C 167.585938 119.675781 166.578125 119.898438 165.601562 120.265625 C 165.214844 119.007812 164.5625 117.90625 163.636719 116.964844 C 163.398438 116.722656 163.140625 116.492188 162.871094 116.28125 C 162.601562 116.070312 162.320312 115.875 162.027344 115.699219 C 161.730469 115.523438 161.425781 115.367188 161.113281 115.226562 C 160.800781 115.089844 160.476562 114.972656 160.148438 114.875 C 159.820312 114.777344 159.488281 114.699219 159.148438 114.644531 C 158.808594 114.585938 158.46875 114.554688 158.125 114.539062 C 157.78125 114.527344 157.441406 114.535156 157.097656 114.566406 C 156.757812 114.597656 156.417969 114.648438 156.082031 114.722656 C 155.746094 114.792969 155.417969 114.886719 155.09375 115.003906 C 154.769531 115.117188 154.457031 115.25 154.148438 115.40625 C 153.84375 115.558594 153.546875 115.730469 153.261719 115.921875 C 152.976562 116.113281 152.707031 116.324219 152.445312 116.546875 C 152.1875 116.773438 151.945312 117.015625 151.714844 117.269531 C 151.488281 117.527344 151.277344 117.796875 151.082031 118.078125 C 150.886719 118.363281 150.710938 118.65625 150.554688 118.960938 C 150.398438 119.265625 150.257812 119.578125 150.140625 119.902344 C 150.023438 120.222656 149.925781 120.550781 149.851562 120.886719 C 149.773438 121.222656 149.71875 121.558594 149.683594 121.898438 C 149.648438 122.242188 149.636719 122.585938 149.648438 122.925781 C 149.65625 123.269531 149.6875 123.609375 149.738281 123.949219 C 149.789062 124.289062 149.863281 124.625 149.957031 124.953125 C 150.050781 125.285156 150.167969 125.605469 150.300781 125.921875 C 150.4375 126.238281 150.589844 126.542969 150.761719 126.839844 C 150.9375 127.136719 151.128906 127.421875 151.335938 127.691406 C 151.546875 127.964844 151.769531 128.222656 152.011719 128.464844 C 152.253906 128.710938 152.511719 128.9375 152.78125 129.148438 C 153.050781 129.359375 153.332031 129.554688 153.628906 129.730469 C 153.921875 129.90625 154.226562 130.0625 154.542969 130.199219 C 154.855469 130.339844 155.175781 130.457031 155.507812 130.550781 C 155.835938 130.648438 156.167969 130.726562 156.507812 130.78125 C 156.847656 130.835938 157.1875 130.871094 157.53125 130.882812 C 157.875 130.894531 158.214844 130.882812 158.558594 130.851562 C 158.574219 131.433594 158.636719 132.007812 158.742188 132.574219 C 158.851562 133.144531 159.003906 133.699219 159.203125 134.246094 C 159.402344 134.789062 159.644531 135.3125 159.929688 135.816406 C 160.210938 136.324219 160.535156 136.800781 160.894531 137.253906 C 161.257812 137.707031 161.652344 138.125 162.082031 138.515625 C 162.511719 138.902344 162.972656 139.253906 163.457031 139.566406 C 163.945312 139.882812 164.453125 140.152344 164.984375 140.386719 C 165.515625 140.617188 166.0625 140.804688 166.621094 140.945312 C 166.78125 141.5625 166.996094 142.164062 167.257812 142.746094 C 167.523438 143.324219 167.835938 143.878906 168.199219 144.40625 C 168.5625 144.929688 168.96875 145.421875 169.414062 145.875 C 169.863281 146.328125 170.347656 146.742188 170.871094 147.113281 C 171.390625 147.480469 171.9375 147.800781 172.515625 148.074219 C 173.09375 148.347656 173.691406 148.570312 174.304688 148.738281 C 174.921875 148.90625 175.546875 149.019531 176.183594 149.074219 C 176.820312 149.132812 177.457031 149.136719 178.09375 149.082031 C 178.730469 149.027344 179.355469 148.917969 179.972656 148.753906 C 180.589844 148.59375 181.1875 148.375 181.765625 148.105469 C 182.347656 147.835938 182.898438 147.519531 183.421875 147.152344 C 183.945312 146.789062 184.429688 146.378906 184.882812 145.929688 C 185.335938 145.476562 185.742188 144.988281 186.109375 144.464844 C 186.472656 143.941406 186.792969 143.390625 187.058594 142.8125 C 187.328125 142.234375 187.546875 141.632812 187.710938 141.019531 C 187.875 140.402344 187.980469 139.773438 188.035156 139.136719 C 188.089844 138.5 188.085938 137.863281 188.027344 137.230469 C 187.96875 136.59375 187.859375 135.96875 187.6875 135.351562 C 187.519531 134.734375 187.300781 134.140625 187.027344 133.5625 C 186.753906 132.984375 186.433594 132.4375 186.0625 131.914062 C 185.695312 131.394531 185.28125 130.910156 184.828125 130.460938 C 184.371094 130.011719 183.882812 129.609375 183.355469 129.246094 C 182.832031 128.882812 182.277344 128.570312 181.695312 128.304688 C 181.113281 128.039062 180.515625 127.828125 179.898438 127.667969 C 179.414062 125.777344 178.488281 124.136719 177.117188 122.746094 Z M 177.117188 122.746094 "/><g clip-rule="nonzero" clip-path="url(#52849d23d1)"><path style="fill:none;stroke-width:2;stroke-linecap:round;stroke-linejoin:round;stroke:#000000;stroke-opacity:1;stroke-miterlimit:4;" d="M 55.000633 23.391555 C 54.660137 23.052852 54.280216 22.769703 53.859077 22.540316 C 53.43973 22.312722 52.993501 22.14785 52.525768 22.045702 C 52.058035 21.945345 51.584925 21.913088 51.106439 21.947137 C 50.627953 21.982979 50.165596 22.085128 49.717576 22.253583 C 49.54016 21.676533 49.240882 21.171166 48.816159 20.739274 C 48.706842 20.628165 48.588564 20.522432 48.464911 20.42566 C 48.341257 20.328887 48.212227 20.239283 48.077821 20.15864 C 47.941623 20.077996 47.801841 20.006313 47.658474 19.941798 C 47.515107 19.879075 47.366365 19.825313 47.21583 19.78051 C 47.065295 19.735708 46.912968 19.699867 46.757057 19.674778 C 46.601146 19.647896 46.445235 19.63356 46.287532 19.626391 C 46.129828 19.621015 45.973917 19.624599 45.816214 19.638936 C 45.660303 19.653273 45.504392 19.67657 45.350273 19.710619 C 45.196154 19.742877 45.045619 19.785887 44.896876 19.839649 C 44.748133 19.89162 44.604767 19.95255 44.463192 20.024234 C 44.32341 20.094125 44.187212 20.172976 44.05639 20.260788 C 43.925568 20.3486 43.801914 20.445373 43.681845 20.547521 C 43.563567 20.651462 43.452458 20.762571 43.346725 20.879057 C 43.242785 20.997334 43.146012 21.120988 43.056408 21.250017 C 42.966804 21.380839 42.88616 21.515246 42.814477 21.655028 C 42.742794 21.79481 42.678279 21.938177 42.624517 22.08692 C 42.570754 22.23387 42.525952 22.384405 42.491902 22.538524 C 42.456061 22.692643 42.430972 22.846762 42.414843 23.002673 C 42.398714 23.160377 42.393338 23.31808 42.398714 23.473991 C 42.402298 23.631694 42.416635 23.787605 42.439932 23.943516 C 42.463229 24.099427 42.497279 24.253546 42.540289 24.404081 C 42.583299 24.556408 42.637061 24.703359 42.697992 24.848518 C 42.760715 24.993676 42.830606 25.133459 42.909458 25.269657 C 42.990101 25.405855 43.077913 25.536677 43.172894 25.660331 C 43.269666 25.785776 43.371815 25.904054 43.482924 26.015163 C 43.594033 26.128064 43.71231 26.232005 43.835964 26.328777 C 43.959617 26.425549 44.088647 26.515153 44.224845 26.595797 C 44.359252 26.676441 44.499034 26.748124 44.644193 26.810847 C 44.787559 26.875362 44.93451 26.929124 45.086837 26.972134 C 45.237372 27.016936 45.389699 27.052778 45.54561 27.077867 C 45.701521 27.102956 45.857432 27.119085 46.015135 27.124461 C 46.172838 27.129838 46.328749 27.124461 46.486453 27.110125 C 46.493621 27.377145 46.522294 27.640581 46.57068 27.900433 C 46.620859 28.162077 46.69075 28.416552 46.782146 28.667444 C 46.873542 28.916543 46.984651 29.156682 47.115473 29.38786 C 47.244503 29.620831 47.393246 29.839465 47.558117 30.047347 C 47.724781 30.255228 47.905781 30.446981 48.10291 30.626189 C 48.300039 30.803605 48.511505 30.964892 48.733723 31.108259 C 48.957733 31.253417 49.190704 31.377071 49.434427 31.484596 C 49.67815 31.590329 49.929042 31.676349 50.185309 31.740864 C 50.258785 32.024013 50.357349 32.299993 50.477419 32.567013 C 50.59928 32.832241 50.742647 33.086717 50.90931 33.328648 C 51.075974 33.568787 51.26235 33.794589 51.466648 34.002471 C 51.672737 34.210352 51.894955 34.400313 52.135094 34.570561 C 52.373441 34.739016 52.624332 34.885967 52.88956 35.011413 C 53.154789 35.136859 53.428977 35.239007 53.710334 35.316067 C 53.993483 35.393126 54.280216 35.445097 54.572325 35.470186 C 54.864434 35.497067 55.156544 35.498859 55.448653 35.47377 C 55.740762 35.448681 56.027496 35.398502 56.310644 35.323235 C 56.593793 35.24976 56.867982 35.149403 57.13321 35.025749 C 57.40023 34.902096 57.652914 34.756937 57.893053 34.588482 C 58.133192 34.421818 58.35541 34.233649 58.563291 34.02756 C 58.771173 33.819678 58.957549 33.595668 59.126005 33.355529 C 59.292668 33.11539 59.439619 32.862707 59.561481 32.597479 C 59.685134 32.332251 59.785491 32.05627 59.860758 31.774913 C 59.936026 31.491764 59.984412 31.203239 60.009501 30.91113 C 60.03459 30.619021 60.032798 30.326911 60.005917 30.036594 C 59.979036 29.744485 59.928857 29.457752 59.850006 29.174603 C 59.772946 28.891454 59.67259 28.619057 59.547144 28.353829 C 59.421698 28.088601 59.274748 27.83771 59.1045 27.597571 C 58.936044 27.359224 58.746083 27.137006 58.538202 26.930916 C 58.328528 26.724827 58.104518 26.540243 57.862587 26.373579 C 57.622448 26.206915 57.367973 26.063549 57.100952 25.941687 C 56.833932 25.819826 56.559744 25.723053 56.276595 25.649578 C 56.054377 24.78221 55.629653 24.029536 55.000633 23.391555 Z M 55.000633 23.391555 " transform="matrix(2.179728,0,0,2.179728,57.230788,71.758875)"/></g><path style=" stroke:none;fill-rule:nonzero;fill:#e69d38;fill-opacity:1;" d="M 135.699219 118.621094 C 112.828125 118.621094 104.3125 133.300781 101.757812 153.753906 C 101.601562 155.101562 101.363281 156.433594 101.042969 157.75 C 100.722656 159.070312 100.324219 160.363281 99.84375 161.632812 C 99.363281 162.898438 98.808594 164.132812 98.175781 165.335938 C 97.546875 166.535156 96.84375 167.691406 96.066406 168.804688 C 95.292969 169.917969 94.453125 170.980469 93.546875 171.988281 C 92.644531 173 91.679688 173.949219 90.65625 174.84375 C 89.636719 175.734375 88.5625 176.558594 87.4375 177.316406 C 86.3125 178.078125 85.148438 178.761719 83.9375 179.378906 L 83.386719 179.65625 L 188.015625 179.65625 L 188.015625 170.9375 C 188.015625 169.222656 187.929688 167.515625 187.761719 165.808594 C 187.59375 164.105469 187.34375 162.410156 187.007812 160.730469 C 186.675781 159.050781 186.257812 157.390625 185.761719 155.75 C 185.265625 154.109375 184.6875 152.5 184.03125 150.917969 C 183.375 149.335938 182.644531 147.785156 181.835938 146.277344 C 181.03125 144.765625 180.148438 143.296875 179.199219 141.871094 C 178.246094 140.449219 177.226562 139.074219 176.140625 137.75 C 175.054688 136.425781 173.902344 135.15625 172.691406 133.945312 C 171.480469 132.734375 170.210938 131.585938 168.886719 130.496094 C 167.5625 129.410156 166.1875 128.390625 164.765625 127.4375 C 163.339844 126.488281 161.871094 125.609375 160.363281 124.800781 C 158.851562 123.992188 157.304688 123.261719 155.71875 122.605469 C 154.136719 121.949219 152.527344 121.371094 150.886719 120.875 C 149.246094 120.378906 147.585938 119.960938 145.90625 119.628906 C 144.226562 119.292969 142.535156 119.042969 140.828125 118.875 C 139.125 118.707031 137.414062 118.621094 135.699219 118.621094 Z M 135.699219 118.621094 "/><g clip-rule="nonzero" clip-path="url(#c695e6d509)"><path style="fill:none;stroke-width:2;stroke-linecap:round;stroke-linejoin:round;stroke:#000000;stroke-opacity:1;stroke-miterlimit:4;" d="M 35.999191 21.499117 C 25.506552 21.499117 21.599814 28.23376 20.427793 37.6171 C 20.356109 38.235368 20.246792 38.846468 20.099842 39.450399 C 19.952891 40.056123 19.770099 40.649302 19.549673 41.231728 C 19.329247 41.812363 19.074771 42.378661 18.784454 42.930622 C 18.495929 43.480791 18.173354 44.011247 17.81673 44.52199 C 17.461898 45.032734 17.0766 45.52018 16.660837 45.982537 C 16.246866 46.446686 15.804222 46.882162 15.334697 47.292549 C 14.866963 47.701143 14.374141 48.079272 13.858021 48.426936 C 13.341902 48.776392 12.807861 49.090007 12.252316 49.373155 L 11.999633 49.500393 L 60.000541 49.500393 L 60.000541 45.500467 C 60.000541 44.713743 59.961115 43.930603 59.884055 43.147464 C 59.806996 42.366116 59.692303 41.588353 59.538184 40.817757 C 59.385857 40.047162 59.194104 39.285528 58.966509 38.532853 C 58.738915 37.780179 58.473687 37.041841 58.172617 36.316048 C 57.871548 35.590255 57.536428 34.878799 57.165467 34.187055 C 56.796299 33.49352 56.391288 32.819697 55.955812 32.165587 C 55.518544 31.513269 55.050811 30.882457 54.552612 30.274941 C 54.054414 29.667425 53.525749 29.084999 52.970204 28.529453 C 52.414659 27.973908 51.832232 27.447036 51.224717 26.947045 C 50.617201 26.448846 49.986388 25.981113 49.33407 25.543845 C 48.679961 25.108369 48.006138 24.705151 47.314394 24.33419 C 46.620859 23.963229 45.911194 23.62811 45.183609 23.32704 C 44.457816 23.02597 43.719478 22.760742 42.966804 22.533148 C 42.21413 22.305554 41.452495 22.113801 40.6819 21.961474 C 39.911305 21.807355 39.135333 21.692662 38.352194 21.615602 C 37.570846 21.538543 36.785914 21.499117 35.999191 21.499117 Z M 35.999191 21.499117 " transform="matrix(2.179728,0,0,2.179728,57.230788,71.758875)"/></g><path style=" stroke:none;fill-rule:nonzero;fill:#b86000;fill-opacity:1;" d="M 172.757812 164.707031 C 172.757812 164.996094 172.699219 165.273438 172.589844 165.539062 C 172.480469 165.808594 172.324219 166.042969 172.117188 166.25 C 171.914062 166.453125 171.679688 166.609375 171.410156 166.71875 C 171.144531 166.832031 170.867188 166.886719 170.578125 166.886719 C 170.289062 166.886719 170.007812 166.832031 169.742188 166.71875 C 169.476562 166.609375 169.238281 166.453125 169.035156 166.25 C 168.832031 166.042969 168.671875 165.808594 168.5625 165.539062 C 168.453125 165.273438 168.398438 164.996094 168.398438 164.707031 C 168.398438 164.417969 168.453125 164.140625 168.5625 163.871094 C 168.671875 163.605469 168.832031 163.371094 169.035156 163.164062 C 169.238281 162.960938 169.476562 162.804688 169.742188 162.691406 C 170.007812 162.582031 170.289062 162.527344 170.578125 162.527344 C 170.867188 162.527344 171.144531 162.582031 171.410156 162.691406 C 171.679688 162.804688 171.914062 162.960938 172.117188 163.164062 C 172.324219 163.371094 172.480469 163.605469 172.589844 163.871094 C 172.699219 164.140625 172.757812 164.417969 172.757812 164.707031 Z M 172.757812 164.707031 "/><path style=" stroke:none;fill-rule:nonzero;fill:#b86000;fill-opacity:1;" d="M 148.78125 162.527344 C 148.78125 162.816406 148.722656 163.09375 148.613281 163.359375 C 148.503906 163.628906 148.34375 163.863281 148.140625 164.070312 C 147.9375 164.273438 147.699219 164.429688 147.433594 164.539062 C 147.167969 164.652344 146.886719 164.707031 146.601562 164.707031 C 146.3125 164.707031 146.03125 164.652344 145.765625 164.539062 C 145.5 164.429688 145.261719 164.273438 145.058594 164.070312 C 144.855469 163.863281 144.695312 163.628906 144.585938 163.359375 C 144.476562 163.09375 144.417969 162.816406 144.417969 162.527344 C 144.417969 162.238281 144.476562 161.960938 144.585938 161.691406 C 144.695312 161.425781 144.855469 161.191406 145.058594 160.984375 C 145.261719 160.78125 145.5 160.625 145.765625 160.511719 C 146.03125 160.402344 146.3125 160.347656 146.601562 160.347656 C 146.886719 160.347656 147.167969 160.402344 147.433594 160.511719 C 147.699219 160.625 147.9375 160.78125 148.140625 160.984375 C 148.34375 161.191406 148.503906 161.425781 148.613281 161.691406 C 148.722656 161.960938 148.78125 162.238281 148.78125 162.527344 Z M 148.78125 162.527344 "/><path style=" stroke:none;fill-rule:nonzero;fill:#b86000;fill-opacity:1;" d="M 126.980469 166.886719 C 126.980469 167.175781 126.925781 167.453125 126.816406 167.71875 C 126.707031 167.988281 126.546875 168.222656 126.34375 168.429688 C 126.140625 168.632812 125.902344 168.789062 125.636719 168.898438 C 125.371094 169.011719 125.089844 169.066406 124.800781 169.066406 C 124.511719 169.066406 124.234375 169.011719 123.96875 168.898438 C 123.699219 168.789062 123.464844 168.632812 123.261719 168.429688 C 123.058594 168.222656 122.898438 167.988281 122.789062 167.71875 C 122.679688 167.453125 122.621094 167.175781 122.621094 166.886719 C 122.621094 166.597656 122.679688 166.320312 122.789062 166.050781 C 122.898438 165.785156 123.058594 165.550781 123.261719 165.34375 C 123.464844 165.140625 123.699219 164.984375 123.96875 164.871094 C 124.234375 164.761719 124.511719 164.707031 124.800781 164.707031 C 125.089844 164.707031 125.371094 164.761719 125.636719 164.871094 C 125.902344 164.984375 126.140625 165.140625 126.34375 165.34375 C 126.546875 165.550781 126.707031 165.785156 126.816406 166.050781 C 126.925781 166.320312 126.980469 166.597656 126.980469 166.886719 Z M 126.980469 166.886719 "/><path style=" stroke:none;fill-rule:nonzero;fill:#b86000;fill-opacity:1;" d="M 124.800781 147.269531 C 124.800781 147.558594 124.746094 147.835938 124.636719 148.101562 C 124.527344 148.371094 124.367188 148.605469 124.164062 148.808594 C 123.960938 149.015625 123.722656 149.171875 123.457031 149.28125 C 123.191406 149.394531 122.910156 149.449219 122.621094 149.449219 C 122.332031 149.449219 122.054688 149.394531 121.789062 149.28125 C 121.519531 149.171875 121.285156 149.015625 121.082031 148.808594 C 120.875 148.605469 120.71875 148.371094 120.609375 148.101562 C 120.5 147.835938 120.441406 147.558594 120.441406 147.269531 C 120.441406 146.980469 120.5 146.703125 120.609375 146.433594 C 120.71875 146.167969 120.875 145.933594 121.082031 145.726562 C 121.285156 145.523438 121.519531 145.367188 121.789062 145.253906 C 122.054688 145.144531 122.332031 145.089844 122.621094 145.089844 C 122.910156 145.089844 123.191406 145.144531 123.457031 145.253906 C 123.722656 145.367188 123.960938 145.523438 124.164062 145.726562 C 124.367188 145.933594 124.527344 146.167969 124.636719 146.433594 C 124.746094 146.703125 124.800781 146.980469 124.800781 147.269531 Z M 124.800781 147.269531 "/><path style=" stroke:none;fill-rule:nonzero;fill:#b86000;fill-opacity:1;" d="M 148.78125 147.269531 C 148.78125 147.558594 148.722656 147.835938 148.613281 148.101562 C 148.503906 148.371094 148.34375 148.605469 148.140625 148.808594 C 147.9375 149.015625 147.699219 149.171875 147.433594 149.28125 C 147.167969 149.394531 146.886719 149.449219 146.601562 149.449219 C 146.3125 149.449219 146.03125 149.394531 145.765625 149.28125 C 145.5 149.171875 145.261719 149.015625 145.058594 148.808594 C 144.855469 148.605469 144.695312 148.371094 144.585938 148.101562 C 144.476562 147.835938 144.417969 147.558594 144.417969 147.269531 C 144.417969 146.980469 144.476562 146.703125 144.585938 146.433594 C 144.695312 146.167969 144.855469 145.933594 145.058594 145.726562 C 145.261719 145.523438 145.5 145.367188 145.765625 145.253906 C 146.03125 145.144531 146.3125 145.089844 146.601562 145.089844 C 146.886719 145.089844 147.167969 145.144531 147.433594 145.253906 C 147.699219 145.367188 147.9375 145.523438 148.140625 145.726562 C 148.34375 145.933594 148.503906 146.167969 148.613281 146.433594 C 148.722656 146.703125 148.78125 146.980469 148.78125 147.269531 Z M 148.78125 147.269531 "/><path style=" stroke:none;fill-rule:nonzero;fill:#b86000;fill-opacity:1;" d="M 166.21875 147.269531 C 166.21875 147.558594 166.160156 147.835938 166.050781 148.101562 C 165.941406 148.371094 165.78125 148.605469 165.578125 148.808594 C 165.375 149.015625 165.136719 149.171875 164.871094 149.28125 C 164.605469 149.394531 164.328125 149.449219 164.039062 149.449219 C 163.75 149.449219 163.46875 149.394531 163.203125 149.28125 C 162.9375 149.171875 162.699219 149.015625 162.496094 148.808594 C 162.292969 148.605469 162.132812 148.371094 162.023438 148.101562 C 161.914062 147.835938 161.859375 147.558594 161.859375 147.269531 C 161.859375 146.980469 161.914062 146.703125 162.023438 146.433594 C 162.132812 146.167969 162.292969 145.933594 162.496094 145.726562 C 162.699219 145.523438 162.9375 145.367188 163.203125 145.253906 C 163.46875 145.144531 163.75 145.089844 164.039062 145.089844 C 164.328125 145.089844 164.605469 145.144531 164.871094 145.253906 C 165.136719 145.367188 165.375 145.523438 165.578125 145.726562 C 165.78125 145.933594 165.941406 146.167969 166.050781 146.433594 C 166.160156 146.703125 166.21875 146.980469 166.21875 147.269531 Z M 166.21875 147.269531 "/><path style=" stroke:none;fill-rule:nonzero;fill:#b86000;fill-opacity:1;" d="M 135.699219 132.011719 C 135.699219 132.300781 135.644531 132.578125 135.535156 132.84375 C 135.425781 133.113281 135.265625 133.347656 135.0625 133.550781 C 134.859375 133.757812 134.621094 133.914062 134.355469 134.023438 C 134.089844 134.136719 133.808594 134.191406 133.519531 134.191406 C 133.230469 134.191406 132.953125 134.136719 132.6875 134.023438 C 132.421875 133.914062 132.183594 133.757812 131.980469 133.550781 C 131.777344 133.347656 131.617188 133.113281 131.507812 132.84375 C 131.398438 132.578125 131.339844 132.300781 131.339844 132.011719 C 131.339844 131.722656 131.398438 131.445312 131.507812 131.175781 C 131.617188 130.910156 131.777344 130.675781 131.980469 130.46875 C 132.183594 130.265625 132.421875 130.109375 132.6875 129.996094 C 132.953125 129.886719 133.230469 129.832031 133.519531 129.832031 C 133.808594 129.832031 134.089844 129.886719 134.355469 129.996094 C 134.621094 130.109375 134.859375 130.265625 135.0625 130.46875 C 135.265625 130.675781 135.425781 130.910156 135.535156 131.175781 C 135.644531 131.445312 135.699219 131.722656 135.699219 132.011719 Z M 135.699219 132.011719 "/><g style="fill:#007bff;fill-opacity:1;"><g transform="translate(51.754633, 69.859325)"><path style="stroke:none" d="M 9.171875 -38.5625 C 10.046875 -38.757812 10.832031 -38.691406 11.53125 -38.359375 C 12.238281 -38.023438 12.804688 -37.539062 13.234375 -36.90625 C 13.671875 -36.28125 13.914062 -35.613281 13.96875 -34.90625 C 14.03125 -34.195312 13.878906 -33.550781 13.515625 -32.96875 C 13.148438 -32.394531 12.523438 -32.019531 11.640625 -31.84375 C 10.148438 -31.5 8.65625 -31.097656 7.15625 -30.640625 C 8.15625 -27.265625 9.15625 -23.90625 10.15625 -20.5625 C 11.164062 -17.21875 12.171875 -13.863281 13.171875 -10.5 C 13.460938 -9.625 13.457031 -8.832031 13.15625 -8.125 C 12.851562 -7.414062 12.390625 -6.851562 11.765625 -6.4375 C 11.148438 -6.03125 10.484375 -5.785156 9.765625 -5.703125 C 9.046875 -5.617188 8.378906 -5.765625 7.765625 -6.140625 C 7.148438 -6.523438 6.703125 -7.15625 6.421875 -8.03125 C 5.421875 -11.382812 4.410156 -14.75 3.390625 -18.125 C 2.378906 -21.5 1.378906 -24.863281 0.390625 -28.21875 C -0.953125 -27.6875 -2.242188 -27.109375 -3.484375 -26.484375 C -4.335938 -26.109375 -5.097656 -26.015625 -5.765625 -26.203125 C -6.429688 -26.398438 -6.96875 -26.800781 -7.375 -27.40625 C -7.789062 -28.007812 -8.03125 -28.6875 -8.09375 -29.4375 C -8.164062 -30.1875 -8.035156 -30.90625 -7.703125 -31.59375 C -7.378906 -32.289062 -6.796875 -32.84375 -5.953125 -33.25 C -1.117188 -35.59375 3.921875 -37.363281 9.171875 -38.5625 Z M 9.171875 -38.5625 "/></g></g><g style="fill:#007bff;fill-opacity:1;"><g transform="translate(90.961717, 57.113679)"><path style="stroke:none" d="M 22.0625 -24 C 22.5625 -20.820312 23.039062 -17.648438 23.5 -14.484375 C 23.957031 -11.316406 24.429688 -8.148438 24.921875 -4.984375 C 25.066406 -4.078125 24.9375 -3.3125 24.53125 -2.6875 C 24.125 -2.070312 23.582031 -1.632812 22.90625 -1.375 C 22.226562 -1.113281 21.519531 -1.035156 20.78125 -1.140625 C 20.039062 -1.242188 19.390625 -1.535156 18.828125 -2.015625 C 18.265625 -2.492188 17.910156 -3.1875 17.765625 -4.09375 C 17.617188 -5.039062 17.476562 -5.988281 17.34375 -6.9375 C 17.207031 -7.894531 17.066406 -8.84375 16.921875 -9.78125 L 9.75 -9.140625 C 9.644531 -7.929688 9.554688 -6.710938 9.484375 -5.484375 C 9.410156 -4.253906 9.332031 -3.019531 9.25 -1.78125 C 9.207031 -0.875 8.929688 -0.179688 8.421875 0.296875 C 7.921875 0.785156 7.304688 1.070312 6.578125 1.15625 C 5.847656 1.25 5.128906 1.144531 4.421875 0.84375 C 3.722656 0.550781 3.148438 0.0976562 2.703125 -0.515625 C 2.253906 -1.140625 2.0625 -1.910156 2.125 -2.828125 C 2.300781 -6.003906 2.554688 -9.160156 2.890625 -12.296875 C 3.222656 -15.441406 3.859375 -18.539062 4.796875 -21.59375 C 5.265625 -23.09375 5.882812 -24.726562 6.65625 -26.5 C 7.4375 -28.28125 8.367188 -29.9375 9.453125 -31.46875 C 10.546875 -33.007812 11.804688 -34.210938 13.234375 -35.078125 C 14.585938 -35.847656 15.734375 -36.097656 16.671875 -35.828125 C 17.609375 -35.554688 18.390625 -34.953125 19.015625 -34.015625 C 19.648438 -33.085938 20.164062 -32 20.5625 -30.75 C 20.96875 -29.507812 21.285156 -28.273438 21.515625 -27.046875 C 21.753906 -25.816406 21.9375 -24.800781 22.0625 -24 Z M 11.015625 -17.28125 C 11.003906 -17.144531 10.976562 -17.015625 10.9375 -16.890625 C 10.90625 -16.765625 10.863281 -16.632812 10.8125 -16.5 C 11.675781 -16.5625 12.519531 -16.628906 13.34375 -16.703125 C 14.175781 -16.773438 15.007812 -16.847656 15.84375 -16.921875 C 15.6875 -17.929688 15.535156 -18.945312 15.390625 -19.96875 C 15.242188 -21 15.082031 -22.046875 14.90625 -23.109375 C 14.820312 -23.503906 14.75 -23.929688 14.6875 -24.390625 C 14.632812 -24.859375 14.582031 -25.328125 14.53125 -25.796875 C 14.070312 -25.097656 13.691406 -24.421875 13.390625 -23.765625 C 12.878906 -22.742188 12.421875 -21.6875 12.015625 -20.59375 C 11.617188 -19.507812 11.285156 -18.40625 11.015625 -17.28125 Z M 11.015625 -17.28125 "/></g></g><g style="fill:#007bff;fill-opacity:1;"><g transform="translate(132.064246, 53.530406)"><path style="stroke:none" d="M 22.453125 -9.296875 C 23.367188 -9.429688 24.132812 -9.3125 24.75 -8.9375 C 25.375 -8.570312 25.835938 -8.050781 26.140625 -7.375 C 26.441406 -6.707031 26.5625 -5.992188 26.5 -5.234375 C 26.4375 -4.484375 26.171875 -3.828125 25.703125 -3.265625 C 25.242188 -2.703125 24.554688 -2.335938 23.640625 -2.171875 C 21.972656 -1.910156 20.273438 -1.75 18.546875 -1.6875 C 16.816406 -1.625 15.125 -1.789062 13.46875 -2.1875 C 11.820312 -2.59375 10.285156 -3.304688 8.859375 -4.328125 C 6.992188 -5.648438 5.644531 -7.347656 4.8125 -9.421875 C 3.988281 -11.503906 3.753906 -13.6875 4.109375 -15.96875 C 4.460938 -18.195312 5.238281 -20.273438 6.4375 -22.203125 C 7.644531 -24.140625 9.148438 -25.804688 10.953125 -27.203125 C 12.765625 -28.597656 14.753906 -29.609375 16.921875 -30.234375 C 19.097656 -30.859375 21.304688 -30.953125 23.546875 -30.515625 C 24.453125 -30.359375 25.15625 -29.988281 25.65625 -29.40625 C 26.164062 -28.820312 26.472656 -28.15625 26.578125 -27.40625 C 26.679688 -26.65625 26.601562 -25.9375 26.34375 -25.25 C 26.09375 -24.5625 25.664062 -24.035156 25.0625 -23.671875 C 24.457031 -23.304688 23.695312 -23.203125 22.78125 -23.359375 C 21.15625 -23.671875 19.554688 -23.53125 17.984375 -22.9375 C 16.421875 -22.34375 15.0625 -21.4375 13.90625 -20.21875 C 12.75 -19.007812 11.945312 -17.59375 11.5 -15.96875 C 11.050781 -14.5625 10.992188 -13.398438 11.328125 -12.484375 C 11.671875 -11.566406 12.25 -10.84375 13.0625 -10.3125 C 13.875 -9.789062 14.820312 -9.429688 15.90625 -9.234375 C 17 -9.046875 18.117188 -8.960938 19.265625 -8.984375 C 20.410156 -9.015625 21.472656 -9.117188 22.453125 -9.296875 Z M 22.453125 -9.296875 "/></g></g><g style="fill:#007bff;fill-opacity:1;"><g transform="translate(173.294686, 59.319478)"><path style="stroke:none" d="M 35.40625 -19.828125 C 35.71875 -18.390625 35.75 -16.890625 35.5 -15.328125 C 35.25 -13.765625 34.835938 -12.242188 34.265625 -10.765625 C 33.703125 -9.285156 33.085938 -7.941406 32.421875 -6.734375 C 31.410156 -4.847656 30.117188 -3.179688 28.546875 -1.734375 C 26.972656 -0.296875 25.175781 0.789062 23.15625 1.53125 C 21.207031 2.226562 19.132812 2.503906 16.9375 2.359375 C 14.738281 2.222656 12.800781 1.519531 11.125 0.25 C 10 -0.59375 9.128906 -1.632812 8.515625 -2.875 C 7.898438 -4.113281 7.484375 -5.425781 7.265625 -6.8125 C 7.046875 -8.195312 7.007812 -9.546875 7.15625 -10.859375 C 7.257812 -12.304688 7.585938 -13.90625 8.140625 -15.65625 C 8.691406 -17.414062 9.441406 -19.144531 10.390625 -20.84375 C 11.347656 -22.550781 12.453125 -24.0625 13.703125 -25.375 C 14.960938 -26.695312 16.363281 -27.660156 17.90625 -28.265625 C 19.539062 -29.078125 21.289062 -29.4375 23.15625 -29.34375 C 25.03125 -29.25 26.828125 -28.800781 28.546875 -28 C 30.265625 -27.207031 31.738281 -26.101562 32.96875 -24.6875 C 34.207031 -23.28125 35.019531 -21.660156 35.40625 -19.828125 Z M 20.90625 -5.1875 C 22.269531 -5.78125 23.429688 -6.625 24.390625 -7.71875 C 25.347656 -8.820312 26.132812 -10.050781 26.75 -11.40625 C 27.375 -12.769531 27.835938 -14.144531 28.140625 -15.53125 C 28.421875 -16.925781 28.28125 -18.195312 27.71875 -19.34375 C 27.164062 -20.5 26.175781 -21.3125 24.75 -21.78125 C 23.96875 -22.0625 23.140625 -22.132812 22.265625 -22 C 21.390625 -21.875 20.59375 -21.585938 19.875 -21.140625 C 19.0625 -20.578125 18.347656 -19.8125 17.734375 -18.84375 C 17.117188 -17.875 16.585938 -16.957031 16.140625 -16.09375 C 15.148438 -14.175781 14.546875 -12.148438 14.328125 -10.015625 C 14.273438 -9.390625 14.273438 -8.742188 14.328125 -8.078125 C 14.378906 -7.410156 14.578125 -6.8125 14.921875 -6.28125 C 15.515625 -5.4375 16.34375 -4.914062 17.40625 -4.71875 C 18.476562 -4.53125 19.5 -4.613281 20.46875 -4.96875 C 20.601562 -5.03125 20.75 -5.101562 20.90625 -5.1875 Z M 20.90625 -5.1875 "/></g></g><g style="fill:#007bff;fill-opacity:1;"><g transform="translate(12.870814, 245.003506)"><path style="stroke:none" d="M 16.8125 1.03125 C 17.394531 1.394531 17.769531 1.84375 17.9375 2.375 C 18.113281 2.90625 18.125 3.4375 17.96875 3.96875 C 17.8125 4.507812 17.535156 4.976562 17.140625 5.375 C 16.753906 5.769531 16.289062 6.007812 15.75 6.09375 C 15.21875 6.175781 14.664062 6.03125 14.09375 5.65625 C 12.707031 4.78125 11.289062 3.960938 9.84375 3.203125 C 8.40625 2.441406 6.914062 1.753906 5.375 1.140625 C 4.894531 0.984375 4.460938 0.6875 4.078125 0.25 C 3.691406 -0.1875 3.4375 -0.675781 3.3125 -1.21875 C 3.195312 -1.757812 3.351562 -2.28125 3.78125 -2.78125 C 5.8125 -5.46875 7.875 -8.113281 9.96875 -10.71875 C 12.070312 -13.320312 14.207031 -15.894531 16.375 -18.4375 C 16.644531 -18.757812 16.953125 -18.992188 17.296875 -19.140625 C 17.628906 -19.335938 18.003906 -19.4375 18.421875 -19.4375 C 18.847656 -19.4375 19.289062 -19.316406 19.75 -19.078125 C 22.039062 -17.859375 24.253906 -16.503906 26.390625 -15.015625 C 26.972656 -14.628906 27.34375 -14.15625 27.5 -13.59375 C 27.65625 -13.039062 27.65625 -12.5 27.5 -11.96875 C 27.34375 -11.4375 27.070312 -10.972656 26.6875 -10.578125 C 26.300781 -10.191406 25.84375 -9.957031 25.3125 -9.875 C 24.78125 -9.800781 24.226562 -9.96875 23.65625 -10.375 C 22.1875 -11.363281 20.65625 -12.328125 19.0625 -13.265625 C 18.613281 -12.722656 18.160156 -12.179688 17.703125 -11.640625 C 17.242188 -11.109375 16.789062 -10.566406 16.34375 -10.015625 C 17.1875 -9.492188 17.984375 -8.972656 18.734375 -8.453125 C 19.304688 -8.003906 19.710938 -7.445312 19.953125 -6.78125 C 20.191406 -6.125 20.109375 -5.453125 19.703125 -4.765625 C 19.472656 -4.367188 19.140625 -4.046875 18.703125 -3.796875 C 18.265625 -3.546875 17.800781 -3.410156 17.3125 -3.390625 C 16.820312 -3.367188 16.382812 -3.503906 16 -3.796875 C 15.007812 -4.515625 13.976562 -5.175781 12.90625 -5.78125 C 12.488281 -5.25 12.0625 -4.710938 11.625 -4.171875 C 11.195312 -3.628906 10.769531 -3.085938 10.34375 -2.546875 C 11.457031 -2.015625 12.550781 -1.457031 13.625 -0.875 C 14.707031 -0.300781 15.769531 0.332031 16.8125 1.03125 Z M 16.8125 1.03125 "/></g></g><g style="fill:#007bff;fill-opacity:1;"><g transform="translate(42.955273, 261.565184)"><path style="stroke:none" d="M 29.65625 -3.015625 C 28.988281 -1.097656 28.226562 0.78125 27.375 2.625 C 26.519531 4.46875 25.664062 6.3125 24.8125 8.15625 C 24.507812 8.75 24.101562 9.175781 23.59375 9.4375 C 23.082031 9.707031 22.539062 9.8125 21.96875 9.75 C 21.40625 9.6875 20.898438 9.503906 20.453125 9.203125 C 20.003906 8.898438 19.691406 8.503906 19.515625 8.015625 C 19.347656 7.523438 19.421875 6.960938 19.734375 6.328125 C 20.421875 4.890625 21.140625 3.410156 21.890625 1.890625 C 22.640625 0.378906 23.320312 -1.148438 23.9375 -2.703125 C 24.5625 -4.265625 25.007812 -5.835938 25.28125 -7.421875 C 25.332031 -7.722656 25.351562 -8.023438 25.34375 -8.328125 C 25.332031 -8.628906 25.367188 -8.925781 25.453125 -9.21875 C 25.109375 -9.007812 24.726562 -8.816406 24.3125 -8.640625 C 23.90625 -8.472656 23.582031 -8.289062 23.34375 -8.09375 C 22.53125 -7.488281 21.832031 -6.8125 21.25 -6.0625 C 20.664062 -5.320312 20.132812 -4.53125 19.65625 -3.6875 C 19.351562 -3.15625 18.957031 -2.8125 18.46875 -2.65625 C 17.976562 -2.5 17.476562 -2.488281 16.96875 -2.625 C 16.457031 -2.757812 16 -3 15.59375 -3.34375 C 15.1875 -3.695312 14.898438 -4.117188 14.734375 -4.609375 C 14.578125 -5.109375 14.640625 -5.625 14.921875 -6.15625 C 15.191406 -6.75 15.445312 -7.347656 15.6875 -7.953125 C 15.9375 -8.566406 16.164062 -9.179688 16.375 -9.796875 C 16.4375 -9.992188 16.539062 -10.28125 16.6875 -10.65625 C 16.832031 -11.03125 16.957031 -11.398438 17.0625 -11.765625 C 17.164062 -12.140625 17.164062 -12.445312 17.0625 -12.6875 C 17.039062 -12.75 17.046875 -12.800781 17.078125 -12.84375 C 17.054688 -12.851562 17.046875 -12.859375 17.046875 -12.859375 C 17.046875 -12.859375 17.03125 -12.863281 17 -12.875 C 16.789062 -12.894531 16.53125 -12.765625 16.21875 -12.484375 C 15.90625 -12.203125 15.671875 -12.007812 15.515625 -11.90625 C 15.128906 -11.582031 14.757812 -11.238281 14.40625 -10.875 C 14.0625 -10.507812 13.734375 -10.132812 13.421875 -9.75 C 11.941406 -7.988281 10.703125 -6.078125 9.703125 -4.015625 C 8.710938 -1.960938 7.765625 0.109375 6.859375 2.203125 C 6.578125 2.835938 6.179688 3.28125 5.671875 3.53125 C 5.171875 3.78125 4.644531 3.882812 4.09375 3.84375 C 3.550781 3.800781 3.050781 3.617188 2.59375 3.296875 C 2.144531 2.984375 1.828125 2.578125 1.640625 2.078125 C 1.453125 1.585938 1.492188 1.019531 1.765625 0.375 C 2.535156 -1.363281 3.316406 -3.09375 4.109375 -4.8125 C 4.898438 -6.53125 5.796875 -8.191406 6.796875 -9.796875 C 7.410156 -10.773438 8.113281 -11.78125 8.90625 -12.8125 C 9.695312 -13.84375 10.554688 -14.785156 11.484375 -15.640625 C 12.421875 -16.492188 13.429688 -17.179688 14.515625 -17.703125 C 15.523438 -18.148438 16.578125 -18.320312 17.671875 -18.21875 C 18.773438 -18.125 19.75 -17.753906 20.59375 -17.109375 C 21.445312 -16.460938 22.015625 -15.554688 22.296875 -14.390625 C 22.296875 -14.316406 22.304688 -14.238281 22.328125 -14.15625 C 22.347656 -14.070312 22.363281 -14.003906 22.375 -13.953125 C 23.300781 -14.484375 24.238281 -14.84375 25.1875 -15.03125 C 26.144531 -15.21875 27.03125 -15.132812 27.84375 -14.78125 C 28.65625 -14.425781 29.367188 -13.710938 29.984375 -12.640625 C 30.523438 -11.660156 30.804688 -10.613281 30.828125 -9.5 C 30.859375 -8.382812 30.753906 -7.273438 30.515625 -6.171875 C 30.273438 -5.066406 29.988281 -4.015625 29.65625 -3.015625 Z M 29.65625 -3.015625 "/></g></g><g style="fill:#007bff;fill-opacity:1;"><g transform="translate(84.480441, 274.648305)"><path style="stroke:none" d="M 18.078125 -22.15625 C 19.140625 -21.519531 20.082031 -20.753906 20.90625 -19.859375 C 21.726562 -18.960938 22.351562 -17.976562 22.78125 -16.90625 C 23.21875 -15.832031 23.390625 -14.71875 23.296875 -13.5625 C 23.210938 -12.414062 22.789062 -11.265625 22.03125 -10.109375 C 21.070312 -8.734375 19.867188 -7.703125 18.421875 -7.015625 C 16.984375 -6.328125 15.457031 -5.972656 13.84375 -5.953125 C 12.226562 -5.941406 10.675781 -6.238281 9.1875 -6.84375 C 8.832031 -5.507812 8.484375 -4.175781 8.140625 -2.84375 C 7.804688 -1.519531 7.460938 -0.1875 7.109375 1.15625 C 6.941406 1.800781 6.628906 2.300781 6.171875 2.65625 C 5.710938 3.019531 5.203125 3.222656 4.640625 3.265625 C 4.078125 3.316406 3.539062 3.238281 3.03125 3.03125 C 2.519531 2.820312 2.144531 2.488281 1.90625 2.03125 C 1.664062 1.582031 1.617188 1.019531 1.765625 0.34375 C 2.578125 -2.8125 3.378906 -5.960938 4.171875 -9.109375 C 4.972656 -12.253906 5.789062 -15.390625 6.625 -18.515625 C 6.988281 -19.742188 7.503906 -20.820312 8.171875 -21.75 C 8.847656 -22.675781 9.859375 -23.285156 11.203125 -23.578125 C 12.367188 -23.816406 13.554688 -23.785156 14.765625 -23.484375 C 15.972656 -23.191406 17.078125 -22.75 18.078125 -22.15625 Z M 10.546875 -12.125 C 11.109375 -11.863281 11.765625 -11.664062 12.515625 -11.53125 C 13.273438 -11.394531 14.039062 -11.363281 14.8125 -11.4375 C 15.582031 -11.519531 16.25 -11.753906 16.8125 -12.140625 C 17.375 -12.535156 17.753906 -13.128906 17.953125 -13.921875 C 18.085938 -14.429688 17.988281 -14.957031 17.65625 -15.5 C 17.320312 -16.050781 16.859375 -16.550781 16.265625 -17 C 15.679688 -17.457031 15.082031 -17.8125 14.46875 -18.0625 C 13.851562 -18.3125 13.3125 -18.414062 12.84375 -18.375 C 12.5625 -18.3125 12.390625 -18.273438 12.328125 -18.265625 C 12.265625 -18.253906 12.226562 -18.210938 12.21875 -18.140625 C 12.207031 -18.066406 12.125 -17.921875 11.96875 -17.703125 C 11.78125 -17.410156 11.644531 -17.003906 11.5625 -16.484375 C 11.488281 -15.960938 11.410156 -15.515625 11.328125 -15.140625 C 11.203125 -14.617188 11.070312 -14.113281 10.9375 -13.625 C 10.800781 -13.144531 10.671875 -12.644531 10.546875 -12.125 Z M 10.546875 -12.125 "/></g></g><g style="fill:#007bff;fill-opacity:1;"><g transform="translate(121.666564, 278.902937)"><path style="stroke:none" d="M 15.671875 -9.328125 C 16.367188 -9.378906 16.921875 -9.25 17.328125 -8.9375 C 17.742188 -8.625 18.03125 -8.207031 18.1875 -7.6875 C 18.351562 -7.164062 18.367188 -6.625 18.234375 -6.0625 C 18.097656 -5.507812 17.828125 -5.03125 17.421875 -4.625 C 17.015625 -4.21875 16.472656 -3.984375 15.796875 -3.921875 C 13.972656 -3.765625 12.179688 -3.492188 10.421875 -3.109375 C 8.671875 -2.734375 6.925781 -2.273438 5.1875 -1.734375 C 4.6875 -1.578125 4.15625 -1.59375 3.59375 -1.78125 C 3.039062 -1.976562 2.578125 -2.289062 2.203125 -2.71875 C 1.835938 -3.15625 1.671875 -3.679688 1.703125 -4.296875 C 1.929688 -7.097656 2.148438 -9.90625 2.359375 -12.71875 C 2.578125 -15.539062 2.785156 -18.359375 2.984375 -21.171875 C 3.035156 -21.847656 3.257812 -22.398438 3.65625 -22.828125 C 4.0625 -23.253906 4.535156 -23.539062 5.078125 -23.6875 C 5.628906 -23.832031 6.164062 -23.84375 6.6875 -23.71875 C 7.207031 -23.59375 7.632812 -23.332031 7.96875 -22.9375 C 8.300781 -22.539062 8.441406 -21.992188 8.390625 -21.296875 C 8.222656 -19.054688 8.054688 -16.820312 7.890625 -14.59375 C 7.722656 -12.375 7.554688 -10.160156 7.390625 -7.953125 C 10.085938 -8.585938 12.847656 -9.046875 15.671875 -9.328125 Z M 15.671875 -9.328125 "/></g></g><g style="fill:#007bff;fill-opacity:1;"><g transform="translate(156.389234, 276.903053)"><path style="stroke:none" d="M 13.328125 -10.28125 C 14.023438 -10.394531 14.613281 -10.304688 15.09375 -10.015625 C 15.570312 -9.734375 15.925781 -9.335938 16.15625 -8.828125 C 16.382812 -8.328125 16.484375 -7.796875 16.453125 -7.234375 C 16.429688 -6.671875 16.242188 -6.179688 15.890625 -5.765625 C 15.546875 -5.359375 15.023438 -5.109375 14.328125 -5.015625 C 12.710938 -4.753906 11.109375 -4.4375 9.515625 -4.0625 C 7.929688 -3.695312 6.359375 -3.234375 4.796875 -2.671875 C 4.328125 -2.472656 3.804688 -2.410156 3.234375 -2.484375 C 2.660156 -2.566406 2.148438 -2.769531 1.703125 -3.09375 C 1.253906 -3.425781 1.023438 -3.921875 1.015625 -4.578125 C 0.785156 -7.941406 0.601562 -11.296875 0.46875 -14.640625 C 0.34375 -17.984375 0.253906 -21.320312 0.203125 -24.65625 C 0.203125 -25.0625 0.273438 -25.441406 0.421875 -25.796875 C 0.554688 -26.171875 0.78125 -26.492188 1.09375 -26.765625 C 1.414062 -27.046875 1.828125 -27.242188 2.328125 -27.359375 C 4.847656 -27.941406 7.40625 -28.378906 10 -28.671875 C 10.695312 -28.765625 11.285156 -28.65625 11.765625 -28.34375 C 12.253906 -28.03125 12.613281 -27.617188 12.84375 -27.109375 C 13.070312 -26.597656 13.171875 -26.070312 13.140625 -25.53125 C 13.109375 -25 12.914062 -24.523438 12.5625 -24.109375 C 12.21875 -23.703125 11.695312 -23.457031 11 -23.375 C 9.226562 -23.15625 7.4375 -22.875 5.625 -22.53125 C 5.632812 -21.832031 5.644531 -21.128906 5.65625 -20.421875 C 5.675781 -19.710938 5.703125 -19.003906 5.734375 -18.296875 C 6.703125 -18.460938 7.640625 -18.59375 8.546875 -18.6875 C 9.273438 -18.71875 9.945312 -18.5625 10.5625 -18.21875 C 11.175781 -17.875 11.5625 -17.3125 11.71875 -16.53125 C 11.800781 -16.082031 11.757812 -15.625 11.59375 -15.15625 C 11.425781 -14.695312 11.164062 -14.296875 10.8125 -13.953125 C 10.457031 -13.609375 10.039062 -13.414062 9.5625 -13.375 C 8.332031 -13.28125 7.117188 -13.101562 5.921875 -12.84375 C 5.953125 -12.164062 5.984375 -11.484375 6.015625 -10.796875 C 6.046875 -10.109375 6.078125 -9.414062 6.109375 -8.71875 C 7.296875 -9.0625 8.484375 -9.363281 9.671875 -9.625 C 10.867188 -9.894531 12.085938 -10.113281 13.328125 -10.28125 Z M 13.328125 -10.28125 "/></g></g><g style="fill:#007bff;fill-opacity:1;"><g transform="translate(189.734555, 269.476215)"><path style="stroke:none" d="M 10.671875 -28.515625 C 11.535156 -27.835938 12.273438 -26.988281 12.890625 -25.96875 C 13.503906 -24.957031 14.003906 -23.890625 14.390625 -22.765625 C 14.785156 -21.648438 15.085938 -20.578125 15.296875 -19.546875 C 15.640625 -17.984375 15.707031 -16.40625 15.5 -14.8125 C 15.300781 -13.226562 14.800781 -11.738281 14 -10.34375 C 13.21875 -9 12.164062 -7.832031 10.84375 -6.84375 C 9.519531 -5.851562 8.070312 -5.316406 6.5 -5.234375 C 5.4375 -5.171875 4.429688 -5.347656 3.484375 -5.765625 C 2.535156 -6.179688 1.660156 -6.734375 0.859375 -7.421875 C 0.0546875 -8.109375 -0.617188 -8.859375 -1.171875 -9.671875 C -1.816406 -10.554688 -2.398438 -11.632812 -2.921875 -12.90625 C -3.453125 -14.1875 -3.859375 -15.539062 -4.140625 -16.96875 C -4.421875 -18.40625 -4.519531 -19.804688 -4.4375 -21.171875 C -4.363281 -22.535156 -4.035156 -23.765625 -3.453125 -24.859375 C -2.890625 -26.117188 -2.050781 -27.175781 -0.9375 -28.03125 C 0.164062 -28.882812 1.40625 -29.492188 2.78125 -29.859375 C 4.15625 -30.234375 5.535156 -30.316406 6.921875 -30.109375 C 8.304688 -29.910156 9.554688 -29.378906 10.671875 -28.515625 Z M 9.46875 -13.09375 C 9.957031 -14.101562 10.207031 -15.148438 10.21875 -16.234375 C 10.226562 -17.328125 10.082031 -18.414062 9.78125 -19.5 C 9.476562 -20.582031 9.078125 -21.59375 8.578125 -22.53125 C 8.078125 -23.46875 7.382812 -24.128906 6.5 -24.515625 C 5.625 -24.898438 4.660156 -24.882812 3.609375 -24.46875 C 3.023438 -24.25 2.507812 -23.890625 2.0625 -23.390625 C 1.625 -22.890625 1.316406 -22.332031 1.140625 -21.71875 C 0.941406 -21.007812 0.898438 -20.226562 1.015625 -19.375 C 1.128906 -18.519531 1.273438 -17.738281 1.453125 -17.03125 C 1.804688 -15.457031 2.4375 -14.003906 3.34375 -12.671875 C 3.625 -12.296875 3.941406 -11.929688 4.296875 -11.578125 C 4.648438 -11.222656 5.050781 -10.972656 5.5 -10.828125 C 6.238281 -10.628906 6.960938 -10.734375 7.671875 -11.140625 C 8.390625 -11.546875 8.941406 -12.09375 9.328125 -12.78125 C 9.359375 -12.863281 9.40625 -12.96875 9.46875 -13.09375 Z M 9.46875 -13.09375 "/></g></g><g style="fill:#007bff;fill-opacity:1;"><g transform="translate(224.702878, 254.814583)"><path style="stroke:none" d="M 3.65625 -20.265625 C 5.28125 -20.160156 6.800781 -19.671875 8.21875 -18.796875 C 9.632812 -17.921875 10.6875 -16.738281 11.375 -15.25 C 11.957031 -13.914062 12.160156 -12.59375 11.984375 -11.28125 C 11.804688 -9.976562 11.347656 -8.78125 10.609375 -7.6875 C 9.878906 -6.59375 8.953125 -5.679688 7.828125 -4.953125 C 6.710938 -4.234375 5.5 -3.78125 4.1875 -3.59375 C 2.875 -3.414062 1.578125 -3.585938 0.296875 -4.109375 C -0.367188 -4.378906 -0.796875 -4.75 -0.984375 -5.21875 C -1.179688 -5.695312 -1.210938 -6.191406 -1.078125 -6.703125 C -0.953125 -7.222656 -0.6875 -7.691406 -0.28125 -8.109375 C 0.113281 -8.523438 0.585938 -8.816406 1.140625 -8.984375 C 1.703125 -9.148438 2.289062 -9.097656 2.90625 -8.828125 C 3.21875 -8.691406 3.609375 -8.738281 4.078125 -8.96875 C 4.554688 -9.195312 5 -9.484375 5.40625 -9.828125 C 5.8125 -10.171875 6.085938 -10.441406 6.234375 -10.640625 C 6.535156 -11.097656 6.679688 -11.59375 6.671875 -12.125 C 6.660156 -12.65625 6.484375 -13.144531 6.140625 -13.59375 C 5.734375 -14.125 5.238281 -14.476562 4.65625 -14.65625 C 4.082031 -14.832031 3.472656 -14.910156 2.828125 -14.890625 C 2.179688 -14.867188 1.535156 -14.84375 0.890625 -14.8125 C 0.253906 -14.789062 -0.347656 -14.820312 -0.921875 -14.90625 C -2.484375 -15.207031 -3.695312 -15.828125 -4.5625 -16.765625 C -5.425781 -17.703125 -5.972656 -18.8125 -6.203125 -20.09375 C -6.441406 -21.382812 -6.410156 -22.703125 -6.109375 -24.046875 C -5.816406 -25.390625 -5.300781 -26.613281 -4.5625 -27.71875 C -4.144531 -28.300781 -3.664062 -28.671875 -3.125 -28.828125 C -2.582031 -28.992188 -2.035156 -29 -1.484375 -28.84375 C -0.929688 -28.695312 -0.460938 -28.429688 -0.078125 -28.046875 C 0.304688 -27.671875 0.535156 -27.226562 0.609375 -26.71875 C 0.691406 -26.207031 0.550781 -25.660156 0.1875 -25.078125 C -0.0820312 -24.703125 -0.363281 -24.234375 -0.65625 -23.671875 C -0.945312 -23.109375 -1.125 -22.535156 -1.1875 -21.953125 C -1.257812 -21.378906 -1.050781 -20.894531 -0.5625 -20.5 C -0.269531 -20.238281 0.132812 -20.097656 0.65625 -20.078125 C 1.175781 -20.066406 1.707031 -20.09375 2.25 -20.15625 C 2.800781 -20.226562 3.269531 -20.265625 3.65625 -20.265625 Z M 3.65625 -20.265625 "/></g></g></g></svg>