<svg xmlns="http://www.w3.org/2000/svg" xmlns:xlink="http://www.w3.org/1999/xlink" width="500" zoomAndPan="magnify" viewBox="0 0 375 374.999991" height="500" preserveAspectRatio="xMidYMid meet" version="1.2"><defs><clipPath id="d0304d133f"><path d="M 246 97.765625 L 251 97.765625 L 251 119 L 246 119 Z M 246 97.765625 "/></clipPath><clipPath id="e8e7b63ae4"><path d="M 101.371094 208 L 268 208 L 268 212 L 101.371094 212 Z M 101.371094 208 "/></clipPath><clipPath id="a8c855c0e4"><rect x="0" width="234" y="0" height="52"/></clipPath><clipPath id="c6dc7fca23"><path d="M 251.257812 221.066406 L 271.964844 221.066406 L 271.964844 241.777344 L 251.257812 241.777344 Z M 251.257812 221.066406 "/></clipPath><clipPath id="44ce3d5ec4"><path d="M 261.609375 221.066406 C 255.890625 221.066406 251.257812 225.703125 251.257812 231.421875 C 251.257812 237.140625 255.890625 241.777344 261.609375 241.777344 C 267.328125 241.777344 271.964844 237.140625 271.964844 231.421875 C 271.964844 225.703125 267.328125 221.066406 261.609375 221.066406 Z M 261.609375 221.066406 "/></clipPath><clipPath id="7e3413c86e"><path d="M 0.257812 0.0664062 L 20.964844 0.0664062 L 20.964844 20.777344 L 0.257812 20.777344 Z M 0.257812 0.0664062 "/></clipPath><clipPath id="971a35e95a"><path d="M 10.609375 0.0664062 C 4.890625 0.0664062 0.257812 4.703125 0.257812 10.421875 C 0.257812 16.140625 4.890625 20.777344 10.609375 20.777344 C 16.328125 20.777344 20.964844 16.140625 20.964844 10.421875 C 20.964844 4.703125 16.328125 0.0664062 10.609375 0.0664062 Z M 10.609375 0.0664062 "/></clipPath><clipPath id="c478c935e9"><rect x="0" width="21" y="0" height="21"/></clipPath></defs><g id="315dd19e42"><rect x="0" width="375" y="0" height="374.999991" style="fill:#ffffff;fill-opacity:1;stroke:none;"/><rect x="0" width="375" y="0" height="374.999991" style="fill:#ffffff;fill-opacity:1;stroke:none;"/><path style=" stroke:none;fill-rule:nonzero;fill:#000000;fill-opacity:1;" d="M 138.054688 189.234375 C 137.550781 189.234375 137.054688 189.007812 136.730469 188.585938 C 136.164062 187.851562 136.308594 186.796875 137.039062 186.238281 L 158.445312 169.730469 C 158.714844 169.515625 159.058594 169.386719 159.425781 169.378906 C 159.445312 169.378906 159.464844 169.378906 159.480469 169.378906 L 196.644531 169.378906 C 197.003906 169.378906 197.355469 169.496094 197.652344 169.710938 L 217.96875 185.011719 C 218.546875 185.445312 218.78125 186.191406 218.554688 186.878906 C 218.332031 187.566406 217.691406 188.023438 216.96875 188.023438 L 177.90625 188.023438 C 177.515625 188.023438 177.140625 187.890625 176.839844 187.636719 L 159.445312 173.195312 L 139.085938 188.890625 C 138.769531 189.125 138.40625 189.234375 138.054688 189.234375 Z M 178.507812 184.667969 L 211.949219 184.667969 L 196.085938 172.71875 L 164.113281 172.71875 Z M 178.507812 184.667969 "/><path style=" stroke:none;fill-rule:nonzero;fill:#000000;fill-opacity:1;" d="M 207.9375 188.015625 C 207.585938 188.015625 207.234375 187.90625 206.9375 187.683594 L 186.621094 172.382812 C 185.882812 171.824219 185.738281 170.777344 186.289062 170.039062 C 186.847656 169.296875 187.890625 169.144531 188.632812 169.703125 L 208.949219 185 C 209.6875 185.5625 209.832031 186.609375 209.28125 187.347656 C 208.949219 187.789062 208.441406 188.015625 207.9375 188.015625 Z M 207.9375 188.015625 "/><path style=" stroke:none;fill-rule:nonzero;fill:#000000;fill-opacity:1;" d="M 198.925781 188.015625 C 198.574219 188.015625 198.222656 187.90625 197.925781 187.683594 L 177.597656 172.382812 C 176.859375 171.824219 176.714844 170.777344 177.265625 170.039062 C 177.824219 169.296875 178.871094 169.144531 179.609375 169.703125 L 199.925781 185 C 200.664062 185.5625 200.808594 186.609375 200.257812 187.347656 C 199.933594 187.789062 199.429688 188.015625 198.925781 188.015625 Z M 198.925781 188.015625 "/><path style=" stroke:none;fill-rule:nonzero;fill:#000000;fill-opacity:1;" d="M 189.902344 188.015625 C 189.550781 188.015625 189.199219 187.90625 188.902344 187.683594 L 168.585938 172.382812 C 167.847656 171.824219 167.703125 170.777344 168.25 170.039062 C 168.8125 169.296875 169.855469 169.144531 170.59375 169.703125 L 190.910156 185 C 191.652344 185.5625 191.792969 186.609375 191.246094 187.347656 C 190.910156 187.789062 190.40625 188.015625 189.902344 188.015625 Z M 189.902344 188.015625 "/><path style=" stroke:none;fill-rule:nonzero;fill:#000000;fill-opacity:1;" d="M 177.90625 211.589844 L 141.527344 211.589844 C 140.605469 211.589844 139.851562 210.839844 139.851562 209.910156 L 139.851562 184.882812 C 139.851562 183.964844 140.597656 183.207031 141.527344 183.207031 C 142.445312 183.207031 143.203125 183.953125 143.203125 184.882812 L 143.203125 208.242188 L 176.238281 208.242188 L 176.238281 186.347656 C 176.238281 185.425781 176.984375 184.667969 177.914062 184.667969 C 178.832031 184.667969 179.589844 185.417969 179.589844 186.347656 L 179.589844 209.921875 C 179.574219 210.839844 178.824219 211.589844 177.90625 211.589844 Z M 177.90625 211.589844 "/><path style=" stroke:none;fill-rule:nonzero;fill:#000000;fill-opacity:1;" d="M 212.238281 211.589844 L 177.90625 211.589844 C 176.984375 211.589844 176.230469 210.839844 176.230469 209.910156 C 176.230469 208.992188 176.976562 208.234375 177.90625 208.234375 L 210.5625 208.234375 L 210.5625 186.347656 C 210.5625 185.425781 211.308594 184.667969 212.238281 184.667969 C 213.15625 184.667969 213.914062 185.417969 213.914062 186.347656 L 213.914062 209.921875 C 213.90625 210.839844 213.15625 211.589844 212.238281 211.589844 Z M 212.238281 211.589844 "/><path style=" stroke:none;fill-rule:nonzero;fill:#000000;fill-opacity:1;" d="M 187.621094 201.636719 L 183.566406 201.636719 L 183.566406 194.613281 L 187.621094 194.613281 Z M 187.621094 201.636719 "/><path style=" stroke:none;fill-rule:nonzero;fill:#000000;fill-opacity:1;" d="M 195.0625 201.636719 L 191.007812 201.636719 L 191.007812 194.613281 L 195.0625 194.613281 Z M 195.0625 201.636719 "/><path style=" stroke:none;fill-rule:nonzero;fill:#000000;fill-opacity:1;" d="M 202.515625 201.636719 L 198.460938 201.636719 L 198.460938 194.613281 L 202.515625 194.613281 Z M 202.515625 201.636719 "/><path style=" stroke:none;fill-rule:nonzero;fill:#000000;fill-opacity:1;" d="M 153.453125 208.414062 L 149.398438 208.414062 L 149.398438 194.617188 L 153.453125 194.617188 Z M 153.453125 208.414062 "/><path style=" stroke:none;fill-rule:nonzero;fill:#000000;fill-opacity:1;" d="M 160.894531 208.414062 L 156.839844 208.414062 L 156.839844 194.617188 L 160.894531 194.617188 Z M 160.894531 208.414062 "/><path style=" stroke:none;fill-rule:nonzero;fill:#000000;fill-opacity:1;" d="M 165.394531 188.703125 L 161.335938 188.703125 L 161.335938 181.527344 L 165.394531 181.527344 Z M 165.394531 188.703125 "/><path style=" stroke:none;fill-rule:nonzero;fill:#000000;fill-opacity:1;" d="M 156.835938 188.703125 L 152.78125 188.703125 L 152.78125 181.527344 L 156.835938 181.527344 Z M 156.835938 188.703125 "/><path style=" stroke:none;fill-rule:nonzero;fill:#000000;fill-opacity:1;" d="M 168.339844 208.414062 L 164.28125 208.414062 L 164.28125 194.617188 L 168.339844 194.617188 Z M 168.339844 208.414062 "/><path style=" stroke:none;fill-rule:nonzero;fill:#000000;fill-opacity:1;" d="M 252.078125 158.648438 C 251.714844 158.648438 251.363281 158.53125 251.058594 158.296875 L 230.695312 142.601562 L 213.300781 157.039062 C 213.003906 157.292969 212.625 157.429688 212.238281 157.429688 L 173.171875 157.429688 C 172.453125 157.429688 171.8125 156.96875 171.585938 156.28125 C 171.363281 155.597656 171.597656 154.847656 172.171875 154.414062 L 192.488281 139.117188 C 192.777344 138.898438 193.128906 138.78125 193.5 138.78125 L 230.644531 138.78125 C 230.660156 138.78125 230.679688 138.78125 230.695312 138.78125 C 231.066406 138.792969 231.410156 138.925781 231.679688 139.132812 L 253.09375 155.640625 C 253.824219 156.203125 253.960938 157.257812 253.402344 157.988281 C 253.078125 158.421875 252.574219 158.648438 252.078125 158.648438 Z M 178.175781 154.070312 L 211.617188 154.070312 L 226 142.121094 L 194.046875 142.121094 Z M 178.175781 154.070312 "/><path style=" stroke:none;fill-rule:nonzero;fill:#000000;fill-opacity:1;" d="M 182.1875 157.429688 C 181.683594 157.429688 181.175781 157.195312 180.84375 156.761719 C 180.285156 156.019531 180.4375 154.972656 181.175781 154.414062 L 201.492188 139.117188 C 202.234375 138.558594 203.277344 138.710938 203.835938 139.449219 C 204.394531 140.191406 204.242188 141.238281 203.503906 141.796875 L 183.195312 157.085938 C 182.890625 157.3125 182.539062 157.429688 182.1875 157.429688 Z M 182.1875 157.429688 "/><path style=" stroke:none;fill-rule:nonzero;fill:#000000;fill-opacity:1;" d="M 191.210938 157.429688 C 190.703125 157.429688 190.199219 157.195312 189.867188 156.761719 C 189.308594 156.019531 189.460938 154.972656 190.199219 154.414062 L 210.515625 139.117188 C 211.253906 138.558594 212.300781 138.710938 212.859375 139.449219 C 213.417969 140.191406 213.265625 141.238281 212.527344 141.796875 L 192.210938 157.09375 C 191.910156 157.3125 191.5625 157.429688 191.210938 157.429688 Z M 191.210938 157.429688 "/><path style=" stroke:none;fill-rule:nonzero;fill:#000000;fill-opacity:1;" d="M 200.230469 157.429688 C 199.726562 157.429688 199.222656 157.195312 198.886719 156.761719 C 198.328125 156.019531 198.484375 154.972656 199.222656 154.414062 L 219.539062 139.117188 C 220.277344 138.558594 221.324219 138.710938 221.882812 139.449219 C 222.441406 140.191406 222.289062 141.238281 221.546875 141.796875 L 201.230469 157.09375 C 200.933594 157.3125 200.574219 157.429688 200.230469 157.429688 Z M 200.230469 157.429688 "/><path style=" stroke:none;fill-rule:nonzero;fill:#000000;fill-opacity:1;" d="M 248.605469 211.589844 L 212.226562 211.589844 C 211.308594 211.589844 210.550781 210.839844 210.550781 209.910156 C 210.550781 208.992188 211.300781 208.234375 212.226562 208.234375 L 246.929688 208.234375 L 246.929688 154.296875 C 246.929688 153.375 247.679688 152.617188 248.605469 152.617188 C 249.527344 152.617188 250.285156 153.367188 250.285156 154.296875 L 250.285156 209.921875 C 250.273438 210.839844 249.527344 211.589844 248.605469 211.589844 Z M 248.605469 211.589844 "/><path style=" stroke:none;fill-rule:nonzero;fill:#000000;fill-opacity:1;" d="M 212.226562 183.441406 C 211.308594 183.441406 210.550781 182.691406 210.550781 181.761719 L 210.550781 155.75 C 210.550781 154.828125 211.300781 154.070312 212.226562 154.070312 C 213.148438 154.070312 213.90625 154.820312 213.90625 155.75 L 213.90625 181.769531 C 213.894531 182.691406 213.148438 183.441406 212.226562 183.441406 Z M 212.226562 183.441406 "/><path style=" stroke:none;fill-rule:nonzero;fill:#000000;fill-opacity:1;" d="M 177.894531 172.71875 C 176.976562 172.71875 176.21875 171.96875 176.21875 171.039062 L 176.21875 155.75 C 176.21875 154.828125 176.96875 154.070312 177.894531 154.070312 C 178.816406 154.070312 179.574219 154.820312 179.574219 155.75 L 179.574219 171.046875 C 179.5625 171.96875 178.816406 172.71875 177.894531 172.71875 Z M 177.894531 172.71875 "/><path style=" stroke:none;fill-rule:nonzero;fill:#000000;fill-opacity:1;" d="M 199.734375 161.480469 L 203.792969 161.480469 L 203.792969 166.582031 L 199.734375 166.582031 Z M 199.734375 161.480469 "/><path style=" stroke:none;fill-rule:nonzero;fill:#000000;fill-opacity:1;" d="M 192.289062 161.480469 L 196.347656 161.480469 L 196.347656 166.582031 L 192.289062 166.582031 Z M 192.289062 161.480469 "/><path style=" stroke:none;fill-rule:nonzero;fill:#000000;fill-opacity:1;" d="M 184.84375 161.480469 L 188.902344 161.480469 L 188.902344 166.582031 L 184.84375 166.582031 Z M 184.84375 161.480469 "/><path style=" stroke:none;fill-rule:nonzero;fill:#000000;fill-opacity:1;" d="M 236.683594 160.273438 L 240.738281 160.273438 L 240.738281 171.046875 L 236.683594 171.046875 Z M 236.683594 160.273438 "/><path style=" stroke:none;fill-rule:nonzero;fill:#000000;fill-opacity:1;" d="M 229.238281 160.273438 L 233.292969 160.273438 L 233.292969 171.046875 L 229.238281 171.046875 Z M 229.238281 160.273438 "/><path style=" stroke:none;fill-rule:nonzero;fill:#000000;fill-opacity:1;" d="M 221.792969 160.273438 L 225.847656 160.273438 L 225.847656 171.046875 L 221.792969 171.046875 Z M 221.792969 160.273438 "/><path style=" stroke:none;fill-rule:nonzero;fill:#000000;fill-opacity:1;" d="M 236.683594 178.25 L 240.738281 178.25 L 240.738281 208.992188 L 236.683594 208.992188 Z M 236.683594 178.25 "/><path style=" stroke:none;fill-rule:nonzero;fill:#000000;fill-opacity:1;" d="M 229.238281 178.25 L 233.292969 178.25 L 233.292969 208.992188 L 229.238281 208.992188 Z M 229.238281 178.25 "/><path style=" stroke:none;fill-rule:nonzero;fill:#000000;fill-opacity:1;" d="M 221.792969 178.25 L 225.847656 178.25 L 225.847656 208.992188 L 221.792969 208.992188 Z M 221.792969 178.25 "/><path style=" stroke:none;fill-rule:nonzero;fill:#000000;fill-opacity:1;" d="M 246.949219 118.03125 L 250.285156 118.03125 L 250.285156 176.949219 L 246.949219 176.949219 Z M 246.949219 118.03125 "/><path style=" stroke:none;fill-rule:nonzero;fill:#000000;fill-opacity:1;" d="M 247.832031 120.441406 C 247.832031 120.441406 241.269531 131.226562 234.03125 134.847656 C 226.785156 138.476562 232.5625 124.847656 243.035156 119.160156 Z M 247.832031 120.441406 "/><path style=" stroke:none;fill-rule:nonzero;fill:#000000;fill-opacity:1;" d="M 242.441406 121.816406 C 242.441406 121.816406 228.640625 123.972656 226.191406 121.816406 C 223.746094 119.65625 231.671875 113.1875 246.742188 117.898438 L 247.8125 120.441406 L 245.15625 121.714844 Z M 242.441406 121.816406 "/><path style=" stroke:none;fill-rule:nonzero;fill:#000000;fill-opacity:1;" d="M 249.003906 116.714844 C 249.003906 116.714844 243.035156 103.285156 235.203125 102.996094 C 227.371094 102.699219 244.503906 117.898438 244.503906 117.898438 L 247.832031 120.441406 L 249.003906 119.496094 Z M 249.003906 116.714844 "/><path style=" stroke:none;fill-rule:nonzero;fill:#000000;fill-opacity:1;" d="M 249.796875 120.441406 C 249.796875 120.441406 256.359375 131.226562 263.597656 134.847656 C 270.84375 138.476562 265.066406 124.847656 254.59375 119.160156 Z M 249.796875 120.441406 "/><path style=" stroke:none;fill-rule:nonzero;fill:#000000;fill-opacity:1;" d="M 255.175781 121.816406 C 255.175781 121.816406 268.976562 123.972656 271.429688 121.816406 C 273.871094 119.65625 265.949219 113.1875 250.878906 117.898438 L 249.804688 120.441406 L 252.484375 121.714844 Z M 255.175781 121.816406 "/><path style=" stroke:none;fill-rule:nonzero;fill:#000000;fill-opacity:1;" d="M 248.617188 116.714844 C 248.617188 116.714844 254.582031 103.285156 262.414062 102.996094 C 270.25 102.699219 253.113281 117.898438 253.113281 117.898438 L 249.789062 120.441406 L 248.617188 119.496094 Z M 248.617188 116.714844 "/><g clip-rule="nonzero" clip-path="url(#d0304d133f)"><path style=" stroke:none;fill-rule:nonzero;fill:#000000;fill-opacity:1;" d="M 250.734375 116.183594 C 250.734375 116.183594 250.988281 97.796875 248.570312 97.796875 C 246.15625 97.796875 246.921875 116.183594 246.921875 116.183594 L 248.570312 118.03125 Z M 250.734375 116.183594 "/></g><path style=" stroke:none;fill-rule:nonzero;fill:#000000;fill-opacity:1;" d="M 140.15625 154.132812 L 142.949219 154.132812 L 142.949219 203.496094 L 140.15625 203.496094 Z M 140.15625 154.132812 "/><path style=" stroke:none;fill-rule:nonzero;fill:#000000;fill-opacity:1;" d="M 140.894531 156.148438 C 140.894531 156.148438 135.40625 165.179688 129.332031 168.214844 C 123.265625 171.253906 128.105469 159.839844 136.875 155.082031 Z M 140.894531 156.148438 "/><path style=" stroke:none;fill-rule:nonzero;fill:#000000;fill-opacity:1;" d="M 136.378906 157.292969 C 136.378906 157.292969 124.816406 159.097656 122.769531 157.292969 C 120.722656 155.488281 127.359375 150.074219 139.984375 154.007812 L 140.886719 156.148438 L 138.640625 157.210938 Z M 136.378906 157.292969 "/><path style=" stroke:none;fill-rule:nonzero;fill:#000000;fill-opacity:1;" d="M 141.878906 153.023438 C 141.878906 153.023438 136.875 141.777344 130.3125 141.527344 C 123.753906 141.28125 138.101562 154.007812 138.101562 154.007812 L 140.886719 156.148438 L 141.871094 155.351562 L 141.871094 153.023438 Z M 141.878906 153.023438 "/><path style=" stroke:none;fill-rule:nonzero;fill:#000000;fill-opacity:1;" d="M 142.535156 156.148438 C 142.535156 156.148438 148.027344 165.179688 154.101562 168.214844 C 160.167969 171.253906 155.328125 159.839844 146.554688 155.082031 Z M 142.535156 156.148438 "/><path style=" stroke:none;fill-rule:nonzero;fill:#000000;fill-opacity:1;" d="M 147.050781 157.292969 C 147.050781 157.292969 158.617188 159.097656 160.664062 157.292969 C 162.707031 155.488281 156.074219 150.074219 143.445312 154.007812 L 142.546875 156.148438 L 144.789062 157.210938 Z M 147.050781 157.292969 "/><path style=" stroke:none;fill-rule:nonzero;fill:#000000;fill-opacity:1;" d="M 141.554688 153.023438 C 141.554688 153.023438 146.554688 141.777344 153.117188 141.527344 C 159.679688 141.28125 145.332031 154.007812 145.332031 154.007812 L 142.546875 156.148438 L 141.5625 155.351562 L 141.5625 153.023438 Z M 141.554688 153.023438 "/><path style=" stroke:none;fill-rule:nonzero;fill:#000000;fill-opacity:1;" d="M 143.320312 152.582031 C 143.320312 152.582031 143.535156 137.175781 141.507812 137.175781 C 139.488281 137.175781 140.121094 152.582031 140.121094 152.582031 L 141.507812 154.132812 Z M 143.320312 152.582031 "/><g clip-rule="nonzero" clip-path="url(#e8e7b63ae4)"><path style=" stroke:none;fill-rule:nonzero;fill:#000000;fill-opacity:1;" d="M 101.660156 208.125 L 267.832031 208.125 L 267.832031 211.472656 L 101.660156 211.472656 Z M 101.660156 208.125 "/></g><path style=" stroke:none;fill-rule:nonzero;fill:#f8be3e;fill-opacity:1;" d="M 128.21875 178.269531 C 128.808594 178.859375 129.332031 179.5 129.792969 180.191406 C 130.253906 180.882812 130.644531 181.613281 130.964844 182.382812 C 131.28125 183.148438 131.523438 183.941406 131.683594 184.757812 C 131.847656 185.574219 131.925781 186.398438 131.925781 187.230469 C 131.925781 188.0625 131.847656 188.886719 131.683594 189.703125 C 131.523438 190.519531 131.28125 191.3125 130.964844 192.078125 C 130.644531 192.847656 130.257812 193.578125 129.792969 194.269531 C 129.332031 194.960938 128.808594 195.601562 128.21875 196.191406 C 127.632812 196.777344 126.992188 197.304688 126.304688 197.765625 C 125.613281 198.230469 124.882812 198.617188 124.113281 198.9375 C 123.347656 199.257812 122.554688 199.496094 121.742188 199.660156 C 120.925781 199.820312 120.101562 199.902344 119.273438 199.902344 C 118.441406 199.902344 117.617188 199.820312 116.804688 199.660156 C 115.988281 199.496094 115.195312 199.257812 114.429688 198.9375 C 113.660156 198.621094 112.933594 198.230469 112.242188 197.765625 C 111.550781 197.304688 110.910156 196.777344 110.324219 196.191406 C 109.734375 195.601562 109.210938 194.960938 108.75 194.269531 C 108.289062 193.578125 107.898438 192.847656 107.582031 192.078125 C 107.261719 191.3125 107.023438 190.519531 106.859375 189.703125 C 106.699219 188.886719 106.617188 188.0625 106.617188 187.230469 C 106.617188 186.398438 106.699219 185.574219 106.859375 184.757812 C 107.023438 183.941406 107.261719 183.148438 107.582031 182.382812 C 107.898438 181.613281 108.289062 180.882812 108.75 180.191406 C 109.210938 179.5 109.734375 178.859375 110.324219 178.269531 C 110.910156 177.683594 111.550781 177.15625 112.242188 176.695312 C 112.933594 176.230469 113.660156 175.84375 114.429688 175.523438 C 115.195312 175.207031 115.988281 174.964844 116.804688 174.800781 C 117.617188 174.640625 118.441406 174.558594 119.273438 174.558594 C 120.101562 174.558594 120.925781 174.640625 121.742188 174.800781 C 122.554688 174.964844 123.347656 175.203125 124.113281 175.523438 C 124.882812 175.84375 125.613281 176.230469 126.300781 176.695312 C 126.992188 177.15625 127.632812 177.683594 128.21875 178.269531 Z M 128.21875 178.269531 "/><g transform="matrix(1,0,0,1,70,208)"><g clip-path="url(#a8c855c0e4)"><g style="fill:#000000;fill-opacity:1;"><g transform="translate(1.457795, 42.180066)"><path style="stroke:none" d="M 3.265625 -32.625 L 6.609375 -32.625 L 21.53125 -3.484375 L 36.5 -32.625 L 39.765625 -32.625 L 39.765625 0 L 36.796875 0 L 36.796875 -28.40625 L 21.40625 1.5625 L 6.09375 -28.359375 L 6.09375 0 L 3.265625 0 Z M 3.265625 -32.625 "/></g></g><g style="fill:#000000;fill-opacity:1;"><g transform="translate(44.471927, 42.180066)"><path style="stroke:none" d="M 3.484375 -32.625 L 6.4375 -32.625 L 6.4375 0 L 3.484375 0 Z M 3.484375 -32.625 "/></g></g><g style="fill:#000000;fill-opacity:1;"><g transform="translate(54.388225, 42.180066)"><path style="stroke:none" d="M 6.21875 -32.625 L 6.21875 -2.78125 L 16.3125 -2.78125 L 16.3125 0 L 3.265625 0 L 3.265625 -32.625 Z M 6.21875 -32.625 "/></g></g><g style="fill:#000000;fill-opacity:1;"><g transform="translate(71.56778, 42.180066)"><path style="stroke:none" d="M 28.578125 -32.625 L 31.53125 -32.625 L 31.53125 0 L 28.578125 0 L 28.578125 -11.65625 L 6.21875 -11.65625 L 6.21875 0 L 3.265625 0 L 3.265625 -32.625 L 6.21875 -32.625 L 6.21875 -14.4375 L 28.578125 -14.4375 Z M 28.578125 -32.625 "/></g></g><g style="fill:#000000;fill-opacity:1;"><g transform="translate(106.361825, 42.180066)"><path style="stroke:none" d="M 20.09375 0.5625 C 15.082031 0.5625 10.75 -1.132812 7.09375 -4.53125 C 3.664062 -7.914062 1.953125 -11.878906 1.953125 -16.421875 C 1.953125 -20.960938 3.691406 -24.898438 7.171875 -28.234375 C 10.890625 -31.535156 15.335938 -33.1875 20.515625 -33.1875 C 25.691406 -33.1875 30.101562 -31.535156 33.75 -28.234375 C 37.207031 -24.921875 38.9375 -20.976562 38.9375 -16.40625 C 38.9375 -11.84375 37.222656 -7.882812 33.796875 -4.53125 C 30.171875 -1.132812 25.820312 0.5625 20.75 0.5625 Z M 31.5 -6.390625 C 34.476562 -9.148438 35.96875 -12.460938 35.96875 -16.328125 C 35.96875 -20.203125 34.488281 -23.519531 31.53125 -26.28125 C 28.457031 -29.03125 24.765625 -30.40625 20.453125 -30.40625 C 16.148438 -30.40625 12.460938 -29.03125 9.390625 -26.28125 C 6.410156 -23.519531 4.921875 -20.203125 4.921875 -16.328125 C 4.921875 -12.460938 6.410156 -9.148438 9.390625 -6.390625 C 12.460938 -3.609375 16.144531 -2.21875 20.4375 -2.21875 C 24.738281 -2.21875 28.425781 -3.609375 31.5 -6.390625 Z M 31.5 -6.390625 "/></g></g><g style="fill:#000000;fill-opacity:1;"><g transform="translate(147.244826, 42.180066)"><path style="stroke:none" d="M 7.875 -29.84375 L 7.875 -32.625 L 20.09375 -32.625 L 20.09375 -10.265625 C 20.09375 -7.046875 19.164062 -4.4375 17.3125 -2.4375 C 15.394531 -0.375 12.613281 0.65625 8.96875 0.65625 L 8.4375 0.65625 C 5.65625 0.65625 3.21875 -0.226562 1.125 -2 L 0.875 -2.21875 L 0.875 -6.34375 L 2.171875 -4.875 C 3.859375 -3.039062 6.019531 -2.125 8.65625 -2.125 C 11.4375 -2.125 13.597656 -2.851562 15.140625 -4.3125 C 16.472656 -5.8125 17.140625 -7.753906 17.140625 -10.140625 L 17.140625 -29.84375 Z M 7.875 -29.84375 "/></g></g><g style="fill:#000000;fill-opacity:1;"><g transform="translate(170.600327, 42.180066)"><path style="stroke:none" d="M 19.53125 -34.359375 L 20.265625 -32.96875 L 37.328125 -1.046875 L 37.84375 0 L 34.625 0 L 34.40625 -0.4375 L 28.1875 -12.4375 L 10.65625 -12.4375 L 4.5625 -0.4375 L 4.34375 0 L 1.3125 0 L 1.828125 -1.046875 L 18.828125 -32.96875 Z M 26.84375 -14.4375 L 19.40625 -28.671875 L 12.046875 -14.4375 Z M 26.84375 -14.4375 "/></g></g><g style="fill:#000000;fill-opacity:1;"><g transform="translate(208.830288, 42.180066)"><path style="stroke:none" d="M 18.015625 -26.890625 C 17.347656 -27.984375 16.414062 -28.851562 15.21875 -29.5 C 14.03125 -30.101562 12.679688 -30.40625 11.171875 -30.40625 C 9.753906 -30.40625 8.539062 -30.039062 7.53125 -29.3125 C 6.65625 -28.625 6.21875 -27.65625 6.21875 -26.40625 L 6.21875 -26.1875 C 6.21875 -25.457031 6.4375 -24.75 6.875 -24.0625 C 7.394531 -23.363281 8.191406 -22.679688 9.265625 -22.015625 C 9.785156 -21.691406 10.335938 -21.382812 10.921875 -21.09375 C 11.210938 -20.945312 11.492188 -20.800781 11.765625 -20.65625 C 12.046875 -20.507812 12.328125 -20.378906 12.609375 -20.265625 C 13.046875 -20.066406 13.472656 -19.859375 13.890625 -19.640625 C 14.316406 -19.421875 14.742188 -19.203125 15.171875 -18.984375 C 15.609375 -18.765625 16.03125 -18.539062 16.4375 -18.3125 C 17.101562 -17.96875 17.695312 -17.601562 18.21875 -17.21875 C 18.75 -16.875 19.242188 -16.5 19.703125 -16.09375 C 20.660156 -15.28125 21.441406 -14.28125 22.046875 -13.09375 C 22.660156 -11.875 22.96875 -10.554688 22.96875 -9.140625 L 22.96875 -8.703125 C 22.96875 -5.859375 21.9375 -3.582031 19.875 -1.875 C 17.789062 -0.21875 15.035156 0.609375 11.609375 0.609375 C 7.265625 0.609375 4.019531 -1 1.875 -4.21875 L 1.734375 -4.390625 L 1.734375 -10.484375 L 3.171875 -7.3125 C 3.867188 -5.769531 4.898438 -4.519531 6.265625 -3.5625 C 7.742188 -2.632812 9.65625 -2.171875 12 -2.171875 C 14.320312 -2.171875 16.3125 -2.78125 17.96875 -4 C 19.382812 -5.15625 20.09375 -6.738281 20.09375 -8.75 L 20.09375 -9 C 20.09375 -10.25 19.757812 -11.378906 19.09375 -12.390625 C 18.601562 -13.148438 17.992188 -13.804688 17.265625 -14.359375 C 16.953125 -14.585938 16.617188 -14.800781 16.265625 -15 L 11.96875 -17.3125 C 10.945312 -17.832031 9.957031 -18.335938 9 -18.828125 C 8.539062 -19.066406 8.09375 -19.300781 7.65625 -19.53125 C 6.375 -20.28125 5.332031 -21.222656 4.53125 -22.359375 C 3.6875 -23.515625 3.265625 -24.789062 3.265625 -26.1875 L 3.265625 -26.484375 C 3.265625 -28.660156 4.003906 -30.332031 5.484375 -31.5 C 7.015625 -32.625 9 -33.1875 11.4375 -33.1875 C 12.28125 -33.1875 13.078125 -33.117188 13.828125 -32.984375 C 14.585938 -32.859375 15.304688 -32.65625 15.984375 -32.375 C 16.671875 -32.101562 17.300781 -31.765625 17.875 -31.359375 C 18.394531 -30.953125 18.859375 -30.472656 19.265625 -29.921875 L 19.4375 -29.75 L 19.4375 -24.265625 Z M 18.015625 -26.890625 "/></g></g></g></g><g clip-rule="nonzero" clip-path="url(#c6dc7fca23)"><g clip-rule="nonzero" clip-path="url(#44ce3d5ec4)"><g transform="matrix(1,0,0,1,251,221)"><g clip-path="url(#c478c935e9)"><g clip-rule="nonzero" clip-path="url(#7e3413c86e)"><g clip-rule="nonzero" clip-path="url(#971a35e95a)"><path style=" stroke:none;fill-rule:nonzero;fill:#f8be3e;fill-opacity:1;" d="M 0.257812 0.0664062 L 20.964844 0.0664062 L 20.964844 20.777344 L 0.257812 20.777344 Z M 0.257812 0.0664062 "/></g></g></g></g></g></g><g style="fill:#000000;fill-opacity:1;"><g transform="translate(114.612888, 262.969466)"><path style="stroke:none" d="M 5.40625 0 L 5.40625 -3.03125 L 1.828125 -3.03125 L 1.828125 0 L 0.984375 0 L 0.984375 -6.734375 L 1.828125 -6.734375 L 1.828125 -3.84375 L 5.40625 -3.84375 L 5.40625 -6.734375 L 6.25 -6.734375 L 6.25 0 Z M 5.40625 0 "/></g></g><g style="fill:#000000;fill-opacity:1;"><g transform="translate(126.632411, 262.969466)"><path style="stroke:none" d="M 4.046875 0.125 C 3.359375 0.125 2.75 -0.0195312 2.21875 -0.3125 C 1.695312 -0.613281 1.289062 -1.023438 1 -1.546875 C 0.707031 -2.078125 0.5625 -2.6875 0.5625 -3.375 C 0.5625 -4.0625 0.707031 -4.664062 1 -5.1875 C 1.289062 -5.707031 1.695312 -6.113281 2.21875 -6.40625 C 2.75 -6.707031 3.359375 -6.859375 4.046875 -6.859375 C 4.734375 -6.859375 5.335938 -6.707031 5.859375 -6.40625 C 6.378906 -6.113281 6.785156 -5.707031 7.078125 -5.1875 C 7.378906 -4.664062 7.53125 -4.0625 7.53125 -3.375 C 7.53125 -2.6875 7.378906 -2.078125 7.078125 -1.546875 C 6.785156 -1.023438 6.378906 -0.613281 5.859375 -0.3125 C 5.335938 -0.0195312 4.734375 0.125 4.046875 0.125 Z M 1.421875 -3.375 C 1.421875 -2.851562 1.53125 -2.390625 1.75 -1.984375 C 1.976562 -1.585938 2.285156 -1.273438 2.671875 -1.046875 C 3.066406 -0.828125 3.523438 -0.71875 4.046875 -0.71875 C 4.566406 -0.71875 5.019531 -0.828125 5.40625 -1.046875 C 5.800781 -1.273438 6.109375 -1.585938 6.328125 -1.984375 C 6.546875 -2.390625 6.65625 -2.851562 6.65625 -3.375 C 6.65625 -3.894531 6.546875 -4.351562 6.328125 -4.75 C 6.109375 -5.144531 5.800781 -5.453125 5.40625 -5.671875 C 5.019531 -5.898438 4.566406 -6.015625 4.046875 -6.015625 C 3.523438 -6.015625 3.066406 -5.898438 2.671875 -5.671875 C 2.285156 -5.453125 1.976562 -5.144531 1.75 -4.75 C 1.53125 -4.351562 1.421875 -3.894531 1.421875 -3.375 Z M 1.421875 -3.375 "/></g></g><g style="fill:#000000;fill-opacity:1;"><g transform="translate(139.508215, 262.969466)"><path style="stroke:none" d="M 2.609375 0 L 2.609375 -5.921875 L 0.328125 -5.921875 L 0.328125 -6.734375 L 5.734375 -6.734375 L 5.734375 -5.921875 L 3.453125 -5.921875 L 3.453125 0 Z M 2.609375 0 "/></g></g><g style="fill:#000000;fill-opacity:1;"><g transform="translate(150.363588, 262.969466)"><path style="stroke:none" d="M 0.984375 0 L 0.984375 -6.734375 L 5.078125 -6.734375 L 5.078125 -5.953125 L 1.828125 -5.953125 L 1.828125 -3.828125 L 4.828125 -3.828125 L 4.828125 -3.046875 L 1.828125 -3.046875 L 1.828125 -0.796875 L 5.171875 -0.796875 L 5.171875 0 Z M 0.984375 0 "/></g></g><g style="fill:#000000;fill-opacity:1;"><g transform="translate(160.959191, 262.969466)"><path style="stroke:none" d="M 0.984375 0 L 0.984375 -6.734375 L 1.828125 -6.734375 L 1.828125 -0.8125 L 5.09375 -0.8125 L 5.09375 0 Z M 0.984375 0 "/></g></g><g style="fill:#000000;fill-opacity:1;"><g transform="translate(171.150704, 262.969466)"><path style="stroke:none" d=""/></g></g><g style="fill:#000000;fill-opacity:1;"><g transform="translate(178.330818, 262.969466)"><path style="stroke:none" d="M 2.8125 0.125 C 2.09375 0.125 1.53125 -0.0351562 1.125 -0.359375 C 0.71875 -0.679688 0.515625 -1.125 0.515625 -1.6875 C 0.515625 -2.101562 0.625 -2.460938 0.84375 -2.765625 C 1.070312 -3.066406 1.421875 -3.328125 1.890625 -3.546875 C 1.617188 -3.835938 1.410156 -4.125 1.265625 -4.40625 C 1.117188 -4.6875 1.046875 -4.976562 1.046875 -5.28125 C 1.046875 -5.59375 1.128906 -5.863281 1.296875 -6.09375 C 1.460938 -6.332031 1.691406 -6.519531 1.984375 -6.65625 C 2.273438 -6.789062 2.613281 -6.859375 3 -6.859375 C 3.394531 -6.859375 3.738281 -6.785156 4.03125 -6.640625 C 4.332031 -6.503906 4.566406 -6.3125 4.734375 -6.0625 C 4.898438 -5.820312 4.984375 -5.535156 4.984375 -5.203125 C 4.984375 -4.347656 4.410156 -3.703125 3.265625 -3.265625 L 4.78125 -1.734375 C 5.007812 -2.148438 5.125 -2.660156 5.125 -3.265625 L 5.9375 -3.265625 C 5.914062 -2.378906 5.722656 -1.664062 5.359375 -1.125 L 6.46875 0 L 5.375 0 L 4.84375 -0.53125 C 4.3125 -0.09375 3.632812 0.125 2.8125 0.125 Z M 1.328125 -1.71875 C 1.328125 -1.382812 1.457031 -1.125 1.71875 -0.9375 C 1.988281 -0.75 2.351562 -0.65625 2.8125 -0.65625 C 3.40625 -0.65625 3.890625 -0.804688 4.265625 -1.109375 L 2.4375 -2.96875 C 1.695312 -2.664062 1.328125 -2.25 1.328125 -1.71875 Z M 1.84375 -5.28125 C 1.84375 -5.101562 1.90625 -4.90625 2.03125 -4.6875 C 2.15625 -4.46875 2.375 -4.195312 2.6875 -3.875 C 3.21875 -4.0625 3.601562 -4.257812 3.84375 -4.46875 C 4.082031 -4.6875 4.203125 -4.929688 4.203125 -5.203125 C 4.203125 -5.484375 4.09375 -5.707031 3.875 -5.875 C 3.65625 -6.039062 3.363281 -6.125 3 -6.125 C 2.644531 -6.125 2.363281 -6.046875 2.15625 -5.890625 C 1.945312 -5.742188 1.84375 -5.539062 1.84375 -5.28125 Z M 1.84375 -5.28125 "/></g></g><g style="fill:#000000;fill-opacity:1;"><g transform="translate(189.946261, 262.969466)"><path style="stroke:none" d=""/></g></g><g style="fill:#000000;fill-opacity:1;"><g transform="translate(197.126376, 262.969466)"><path style="stroke:none" d="M 0.984375 0 L 0.984375 -6.734375 L 3.546875 -6.734375 C 4.015625 -6.734375 4.421875 -6.644531 4.765625 -6.46875 C 5.117188 -6.289062 5.390625 -6.039062 5.578125 -5.71875 C 5.773438 -5.40625 5.875 -5.023438 5.875 -4.578125 C 5.875 -4.023438 5.734375 -3.570312 5.453125 -3.21875 C 5.171875 -2.863281 4.78125 -2.625 4.28125 -2.5 L 5.984375 0 L 4.953125 0 L 3.3125 -2.421875 L 1.828125 -2.421875 L 1.828125 0 Z M 1.828125 -3.21875 L 3.453125 -3.21875 C 3.953125 -3.21875 4.332031 -3.332031 4.59375 -3.5625 C 4.863281 -3.800781 5 -4.140625 5 -4.578125 C 5 -5.003906 4.863281 -5.332031 4.59375 -5.5625 C 4.332031 -5.800781 3.953125 -5.921875 3.453125 -5.921875 L 1.828125 -5.921875 Z M 1.828125 -3.21875 "/></g></g><g style="fill:#000000;fill-opacity:1;"><g transform="translate(208.472425, 262.969466)"><path style="stroke:none" d="M 0.984375 0 L 0.984375 -6.734375 L 5.078125 -6.734375 L 5.078125 -5.953125 L 1.828125 -5.953125 L 1.828125 -3.828125 L 4.828125 -3.828125 L 4.828125 -3.046875 L 1.828125 -3.046875 L 1.828125 -0.796875 L 5.171875 -0.796875 L 5.171875 0 Z M 0.984375 0 "/></g></g><g style="fill:#000000;fill-opacity:1;"><g transform="translate(219.068028, 262.969466)"><path style="stroke:none" d="M 3.21875 0.125 C 2.6875 0.125 2.222656 0.0351562 1.828125 -0.140625 C 1.429688 -0.328125 1.125 -0.585938 0.90625 -0.921875 C 0.695312 -1.253906 0.585938 -1.632812 0.578125 -2.0625 L 1.421875 -2.0625 C 1.429688 -1.632812 1.601562 -1.296875 1.9375 -1.046875 C 2.269531 -0.804688 2.695312 -0.6875 3.21875 -0.6875 C 3.695312 -0.6875 4.078125 -0.773438 4.359375 -0.953125 C 4.640625 -1.140625 4.78125 -1.398438 4.78125 -1.734375 C 4.78125 -2.054688 4.644531 -2.3125 4.375 -2.5 C 4.101562 -2.6875 3.660156 -2.851562 3.046875 -3 C 2.222656 -3.195312 1.617188 -3.445312 1.234375 -3.75 C 0.847656 -4.0625 0.65625 -4.476562 0.65625 -5 C 0.65625 -5.570312 0.867188 -6.023438 1.296875 -6.359375 C 1.734375 -6.691406 2.320312 -6.859375 3.0625 -6.859375 C 3.820312 -6.859375 4.421875 -6.671875 4.859375 -6.296875 C 5.296875 -5.921875 5.519531 -5.40625 5.53125 -4.75 L 4.6875 -4.75 C 4.675781 -5.144531 4.523438 -5.457031 4.234375 -5.6875 C 3.941406 -5.925781 3.550781 -6.046875 3.0625 -6.046875 C 2.582031 -6.046875 2.203125 -5.953125 1.921875 -5.765625 C 1.648438 -5.578125 1.515625 -5.320312 1.515625 -5 C 1.515625 -4.726562 1.640625 -4.492188 1.890625 -4.296875 C 2.148438 -4.109375 2.609375 -3.9375 3.265625 -3.78125 C 4.117188 -3.570312 4.726562 -3.304688 5.09375 -2.984375 C 5.46875 -2.671875 5.65625 -2.265625 5.65625 -1.765625 C 5.65625 -1.179688 5.429688 -0.71875 4.984375 -0.375 C 4.546875 -0.0390625 3.957031 0.125 3.21875 0.125 Z M 3.21875 0.125 "/></g></g><g style="fill:#000000;fill-opacity:1;"><g transform="translate(230.08696, 262.969466)"><path style="stroke:none" d="M 4.046875 0.125 C 3.359375 0.125 2.75 -0.0195312 2.21875 -0.3125 C 1.695312 -0.613281 1.289062 -1.023438 1 -1.546875 C 0.707031 -2.078125 0.5625 -2.6875 0.5625 -3.375 C 0.5625 -4.0625 0.707031 -4.664062 1 -5.1875 C 1.289062 -5.707031 1.695312 -6.113281 2.21875 -6.40625 C 2.75 -6.707031 3.359375 -6.859375 4.046875 -6.859375 C 4.734375 -6.859375 5.335938 -6.707031 5.859375 -6.40625 C 6.378906 -6.113281 6.785156 -5.707031 7.078125 -5.1875 C 7.378906 -4.664062 7.53125 -4.0625 7.53125 -3.375 C 7.53125 -2.6875 7.378906 -2.078125 7.078125 -1.546875 C 6.785156 -1.023438 6.378906 -0.613281 5.859375 -0.3125 C 5.335938 -0.0195312 4.734375 0.125 4.046875 0.125 Z M 1.421875 -3.375 C 1.421875 -2.851562 1.53125 -2.390625 1.75 -1.984375 C 1.976562 -1.585938 2.285156 -1.273438 2.671875 -1.046875 C 3.066406 -0.828125 3.523438 -0.71875 4.046875 -0.71875 C 4.566406 -0.71875 5.019531 -0.828125 5.40625 -1.046875 C 5.800781 -1.273438 6.109375 -1.585938 6.328125 -1.984375 C 6.546875 -2.390625 6.65625 -2.851562 6.65625 -3.375 C 6.65625 -3.894531 6.546875 -4.351562 6.328125 -4.75 C 6.109375 -5.144531 5.800781 -5.453125 5.40625 -5.671875 C 5.019531 -5.898438 4.566406 -6.015625 4.046875 -6.015625 C 3.523438 -6.015625 3.066406 -5.898438 2.671875 -5.671875 C 2.285156 -5.453125 1.976562 -5.144531 1.75 -4.75 C 1.53125 -4.351562 1.421875 -3.894531 1.421875 -3.375 Z M 1.421875 -3.375 "/></g></g><g style="fill:#000000;fill-opacity:1;"><g transform="translate(242.962764, 262.969466)"><path style="stroke:none" d="M 0.984375 0 L 0.984375 -6.734375 L 3.546875 -6.734375 C 4.015625 -6.734375 4.421875 -6.644531 4.765625 -6.46875 C 5.117188 -6.289062 5.390625 -6.039062 5.578125 -5.71875 C 5.773438 -5.40625 5.875 -5.023438 5.875 -4.578125 C 5.875 -4.023438 5.734375 -3.570312 5.453125 -3.21875 C 5.171875 -2.863281 4.78125 -2.625 4.28125 -2.5 L 5.984375 0 L 4.953125 0 L 3.3125 -2.421875 L 1.828125 -2.421875 L 1.828125 0 Z M 1.828125 -3.21875 L 3.453125 -3.21875 C 3.953125 -3.21875 4.332031 -3.332031 4.59375 -3.5625 C 4.863281 -3.800781 5 -4.140625 5 -4.578125 C 5 -5.003906 4.863281 -5.332031 4.59375 -5.5625 C 4.332031 -5.800781 3.953125 -5.921875 3.453125 -5.921875 L 1.828125 -5.921875 Z M 1.828125 -3.21875 "/></g></g><g style="fill:#000000;fill-opacity:1;"><g transform="translate(254.308814, 262.969466)"><path style="stroke:none" d="M 2.609375 0 L 2.609375 -5.921875 L 0.328125 -5.921875 L 0.328125 -6.734375 L 5.734375 -6.734375 L 5.734375 -5.921875 L 3.453125 -5.921875 L 3.453125 0 Z M 2.609375 0 "/></g></g></g></svg>