<svg xmlns="http://www.w3.org/2000/svg" xmlns:xlink="http://www.w3.org/1999/xlink" width="500" zoomAndPan="magnify" viewBox="0 0 375 374.999991" height="500" preserveAspectRatio="xMidYMid meet" version="1.2"><defs><clipPath id="907a2323c4"><path d="M 132 147.183594 L 243 147.183594 L 243 234.933594 L 132 234.933594 Z M 132 147.183594 "/></clipPath><clipPath id="45bc424fc6"><path d="M 0.160156 65 L 16 65 L 16 79 L 0.160156 79 Z M 0.160156 65 "/></clipPath><clipPath id="b30d7ba39c"><path d="M 93 0.28125 L 105 0.28125 L 105 15 L 93 15 Z M 93 0.28125 "/></clipPath><clipPath id="5cb45a8b18"><path d="M 163 65 L 178.71875 65 L 178.71875 79 L 163 79 Z M 163 65 "/></clipPath><clipPath id="181a01eead"><rect x="0" width="179" y="0" height="80"/></clipPath><clipPath id="a640777acb"><path d="M 0.199219 1 L 9 1 L 9 10 L 0.199219 10 Z M 0.199219 1 "/></clipPath><clipPath id="13463dcb77"><rect x="0" width="62" y="0" height="13"/></clipPath></defs><g id="79152ae3c3"><rect x="0" width="375" y="0" height="374.999991" style="fill:#ffffff;fill-opacity:1;stroke:none;"/><rect x="0" width="375" y="0" height="374.999991" style="fill:#ffffff;fill-opacity:1;stroke:none;"/><path style=" stroke:none;fill-rule:nonzero;fill:#643636;fill-opacity:1;" d="M 170.976562 175.070312 C 170.234375 174.667969 169.53125 174.511719 168.859375 174.597656 C 167.601562 174.753906 166.558594 175.757812 165.84375 177.472656 C 164.167969 181.476562 164.46875 185.957031 164.726562 189.902344 C 164.753906 190.261719 165.054688 190.546875 165.414062 190.546875 C 165.425781 190.546875 165.441406 190.546875 165.457031 190.546875 C 165.828125 190.519531 166.113281 190.203125 166.085938 189.816406 C 165.828125 186.011719 165.542969 181.707031 167.101562 178 C 167.402344 177.285156 168.046875 176.085938 169.03125 175.957031 C 169.402344 175.914062 169.847656 176.011719 170.332031 176.285156 C 172.664062 177.515625 173.582031 180.535156 173.925781 182.851562 C 174.253906 185.011719 174.324219 187.214844 174.125 189.386719 C 174.097656 189.761719 174.367188 190.089844 174.738281 190.132812 C 175.113281 190.175781 175.441406 189.890625 175.484375 189.515625 C 175.683594 187.226562 175.613281 184.925781 175.269531 182.652344 C 174.695312 178.832031 173.238281 176.285156 170.964844 175.082031 Z M 170.976562 175.070312 "/><g clip-rule="nonzero" clip-path="url(#907a2323c4)"><path style=" stroke:none;fill-rule:nonzero;fill:#643636;fill-opacity:1;" d="M 237.753906 186.527344 C 234.519531 183.625 230.058594 182.019531 225.265625 182.007812 C 227.984375 179.546875 229.84375 176.5 230.585938 173.253906 C 231.574219 168.933594 230.457031 164.410156 227.667969 161.4375 C 224.421875 157.976562 218.972656 156.660156 213.777344 158.089844 C 210.117188 159.105469 206.855469 161.308594 203.992188 163.269531 C 203.578125 163.554688 203.179688 163.824219 202.761719 164.097656 C 203.050781 161.09375 202.664062 158.230469 201.605469 155.714844 C 200.230469 152.425781 197.714844 149.820312 194.695312 148.546875 C 192.621094 147.691406 190.117188 147.375 187.257812 147.605469 C 184.753906 147.816406 182.492188 148.390625 180.546875 149.304688 C 175.582031 151.652344 172.164062 156.730469 171.707031 162.253906 C 168.429688 159.460938 164.039062 158.089844 159.878906 158.617188 C 155.054688 159.234375 150.707031 162.421875 148.804688 166.730469 C 147.074219 170.621094 147.402344 175.441406 149.589844 179.402344 C 144.828125 178.902344 140.007812 180.503906 136.71875 183.796875 C 132.957031 187.558594 131.539062 193.367188 133.199219 198.242188 C 134.328125 201.578125 136.875 204.59375 140.363281 206.742188 C 143.15625 208.441406 146.457031 209.617188 150.792969 210.445312 C 151.808594 210.632812 152.851562 210.804688 153.996094 210.960938 C 154.441406 214.191406 155.328125 218.113281 157.960938 221.015625 C 159.707031 222.949219 162.164062 224.378906 165.242188 225.25 C 166.328125 225.566406 167.53125 225.808594 168.933594 226.007812 C 170.519531 229.898438 172.75 230.585938 174.78125 230.671875 C 174.867188 230.671875 174.941406 230.671875 175.027344 230.671875 C 175.527344 230.671875 175.984375 230.601562 176.398438 230.53125 C 178.789062 233.132812 182.136719 234.636719 185.683594 234.636719 L 190.488281 234.636719 C 194.039062 234.636719 197.398438 233.132812 199.773438 230.515625 C 200.273438 230.601562 200.730469 230.660156 201.160156 230.660156 C 201.261719 230.660156 201.347656 230.660156 201.445312 230.660156 C 203.507812 230.542969 205.765625 229.84375 207.328125 225.808594 C 208.242188 225.636719 209.101562 225.453125 209.886719 225.238281 C 212.960938 224.363281 215.421875 222.933594 217.167969 221.003906 C 219.644531 218.257812 220.542969 214.695312 221.003906 211.777344 C 224.863281 211.546875 228.898438 211.160156 232.632812 209.730469 C 237.28125 207.941406 240.6875 204.710938 242 200.847656 C 243.605469 196.113281 241.859375 190.21875 237.753906 186.527344 Z M 163.480469 217.425781 C 162.066406 215.925781 161.738281 213.808594 161.679688 211.675781 C 162.324219 211.71875 162.96875 211.761719 163.609375 211.789062 C 166.757812 211.976562 169.917969 212.105469 173.082031 212.21875 L 173.082031 213.949219 C 171.105469 214.394531 169.589844 215.308594 168.6875 216.710938 C 168.132812 217.582031 167.800781 218.628906 167.730469 219.816406 C 166.269531 219.34375 164.597656 218.613281 163.480469 217.441406 Z M 184.308594 204.765625 C 184.4375 204.953125 184.652344 205.066406 184.867188 205.066406 C 184.996094 205.066406 185.140625 205.023438 185.253906 204.953125 C 185.570312 204.738281 185.640625 204.308594 185.425781 204.007812 C 184.753906 203.035156 184.824219 201.5625 185.582031 200.660156 C 185.625 200.605469 185.699219 200.5625 185.742188 200.503906 C 186.484375 200.476562 187.242188 200.460938 188.058594 200.460938 C 188.15625 200.460938 188.257812 200.460938 188.371094 200.460938 C 187.5 201.777344 186.957031 203.621094 188.027344 205.023438 C 188.15625 205.195312 188.371094 205.296875 188.574219 205.296875 C 188.714844 205.296875 188.859375 205.253906 188.988281 205.152344 C 189.289062 204.921875 189.34375 204.496094 189.117188 204.195312 C 188.445312 203.320312 188.960938 201.875 189.730469 200.902344 C 189.847656 200.761719 189.960938 200.632812 190.074219 200.488281 C 197.3125 200.730469 201.363281 202.261719 201.660156 203.148438 C 201.519531 203.363281 201.117188 203.863281 200.175781 204.378906 C 198.113281 205.222656 193.996094 206.066406 188.058594 206.066406 C 181.550781 206.066406 177.230469 205.050781 175.414062 204.136719 C 174.652344 203.679688 174.46875 203.308594 174.441406 203.222656 C 174.511719 202.421875 177.859375 201.019531 184.039062 200.574219 C 183.410156 201.890625 183.480469 203.550781 184.308594 204.765625 Z M 208.386719 219.441406 C 208.269531 218.398438 207.957031 217.46875 207.457031 216.683594 C 206.554688 215.292969 205.039062 214.378906 203.078125 213.949219 L 203.078125 212.492188 C 206.527344 212.417969 209.972656 212.320312 213.40625 212.175781 C 213.320312 214.035156 212.976562 216.011719 211.632812 217.425781 C 210.886719 218.214844 209.773438 218.898438 208.386719 219.441406 Z M 174.824219 229.3125 C 173.238281 229.242188 171.476562 228.828125 170.132812 225.378906 C 170.132812 225.207031 170.078125 225.050781 169.976562 224.9375 C 169.832031 224.535156 169.691406 224.105469 169.5625 223.621094 C 168.832031 220.960938 168.933594 218.886719 169.847656 217.441406 C 170.621094 216.222656 171.980469 215.464844 173.882812 215.152344 C 174.382812 215.066406 174.925781 215.023438 175.527344 215.007812 C 176.226562 215.007812 176.972656 215.007812 177.613281 215.25 C 178.085938 215.4375 178.660156 215.824219 178.789062 216.410156 C 178.988281 217.226562 178.289062 218.097656 177.488281 218.542969 C 177.214844 218.699219 176.929688 218.8125 176.640625 218.914062 C 175.828125 219.128906 175.027344 219.386719 174.238281 219.714844 C 174.238281 219.714844 174.226562 219.714844 174.210938 219.714844 C 173.867188 219.859375 173.695312 220.257812 173.851562 220.601562 C 173.96875 220.859375 174.210938 221.015625 174.480469 221.015625 C 174.566406 221.015625 174.652344 221.003906 174.738281 220.960938 C 174.738281 220.960938 174.769531 220.960938 174.78125 220.945312 C 175.210938 220.773438 175.640625 220.628906 176.085938 220.5 C 176.414062 220.402344 176.742188 220.300781 177.058594 220.1875 C 177.457031 220.074219 177.871094 219.988281 178.289062 219.914062 C 178.84375 219.816406 179.488281 219.730469 180.0625 219.859375 C 180.589844 219.972656 181.019531 220.257812 181.207031 220.628906 C 181.433594 221.089844 181.320312 221.761719 180.917969 222.277344 C 180.460938 222.875 179.730469 223.261719 179.144531 223.535156 C 177.988281 224.078125 176.742188 224.464844 175.484375 224.664062 C 175.125 224.722656 174.867188 225.066406 174.925781 225.421875 C 174.96875 225.78125 175.296875 226.050781 175.65625 226.023438 L 177.957031 225.835938 C 178.601562 225.78125 179.21875 225.765625 179.574219 226.050781 C 179.789062 226.222656 179.847656 226.480469 179.859375 226.667969 C 179.890625 227.082031 179.730469 227.539062 179.460938 227.839844 C 178.886719 228.46875 177.945312 228.742188 177.042969 228.96875 L 176.484375 229.097656 C 176 229.199219 175.414062 229.300781 174.824219 229.269531 Z M 201.363281 229.3125 C 200.890625 229.34375 200.359375 229.285156 199.660156 229.128906 L 199.160156 229.011719 C 198.285156 228.8125 197.3125 228.542969 196.726562 227.898438 C 196.441406 227.597656 196.28125 227.125 196.3125 226.722656 C 196.324219 226.539062 196.382812 226.28125 196.597656 226.109375 C 196.957031 225.824219 197.570312 225.835938 198.214844 225.894531 L 200.515625 226.066406 C 200.875 226.09375 201.203125 225.824219 201.246094 225.464844 C 201.289062 225.109375 201.03125 224.765625 200.675781 224.707031 C 199.414062 224.507812 198.1875 224.136719 197.011719 223.589844 C 196.425781 223.320312 195.695312 222.933594 195.238281 222.347656 C 194.910156 221.917969 194.679688 221.230469 194.953125 220.703125 C 195.140625 220.332031 195.566406 220.03125 196.097656 219.914062 C 196.683594 219.800781 197.328125 219.871094 197.886719 219.972656 C 198.285156 220.042969 198.6875 220.128906 199.085938 220.230469 C 199.414062 220.34375 199.746094 220.445312 200.089844 220.542969 C 200.546875 220.6875 200.988281 220.816406 201.433594 221.003906 C 201.519531 221.03125 201.605469 221.058594 201.691406 221.058594 C 201.960938 221.058594 202.207031 220.902344 202.320312 220.644531 C 202.347656 220.558594 202.378906 220.472656 202.378906 220.386719 C 202.378906 220.117188 202.21875 219.871094 201.960938 219.757812 C 201.160156 219.429688 200.332031 219.15625 199.5 218.941406 C 199.214844 218.84375 198.945312 218.726562 198.671875 218.570312 C 197.871094 218.128906 197.15625 217.269531 197.355469 216.453125 C 197.5 215.882812 198.058594 215.480469 198.527344 215.292969 C 199.171875 215.050781 199.917969 215.039062 200.617188 215.039062 C 201.203125 215.039062 201.777344 215.09375 202.292969 215.179688 C 204.179688 215.480469 205.523438 216.238281 206.3125 217.441406 C 207.242188 218.871094 207.339844 220.945312 206.625 223.605469 C 205.253906 228.699219 203.191406 229.226562 201.375 229.328125 Z M 240.699219 200.402344 C 239.511719 203.878906 236.394531 206.828125 232.132812 208.457031 C 228.410156 209.886719 224.277344 210.214844 220.359375 210.445312 C 220.03125 210.460938 219.773438 210.703125 219.730469 211.03125 C 219.113281 215.238281 218.011719 218.027344 216.152344 220.085938 C 214.59375 221.804688 212.304688 223.132812 209.515625 223.921875 C 208.972656 224.078125 208.414062 224.207031 207.8125 224.320312 C 207.855469 224.191406 207.898438 224.0625 207.925781 223.921875 C 208.226562 222.820312 208.386719 221.804688 208.429688 220.859375 C 210.230469 220.203125 211.648438 219.355469 212.621094 218.328125 C 214.464844 216.367188 214.75 213.605469 214.792969 211.433594 C 214.792969 211.246094 214.722656 211.058594 214.59375 210.933594 C 214.464844 210.804688 214.292969 210.730469 214.09375 210.746094 C 210.429688 210.902344 206.769531 211.019531 203.09375 211.089844 L 203.09375 203.207031 C 203.09375 200.746094 197.398438 199.445312 191.234375 199.117188 C 191.75 198.488281 192.21875 197.8125 192.476562 197 C 192.863281 195.769531 192.722656 194.324219 192.0625 192.921875 C 191.503906 191.71875 190.703125 190.703125 189.902344 189.730469 C 189.675781 189.429688 189.246094 189.386719 188.945312 189.632812 C 188.644531 189.859375 188.601562 190.289062 188.84375 190.589844 C 189.574219 191.503906 190.347656 192.464844 190.820312 193.507812 C 191.320312 194.609375 191.449219 195.710938 191.160156 196.613281 C 190.890625 197.5 190.230469 198.230469 189.546875 199 C 189.53125 199.03125 189.503906 199.042969 189.488281 199.074219 C 189.015625 199.074219 188.558594 199.058594 188.085938 199.058594 C 187.742188 199.058594 187.386719 199.058594 187.042969 199.058594 C 187.628906 198.1875 187.929688 197.097656 187.800781 195.96875 C 187.65625 194.652344 187.027344 193.480469 186.054688 192.75 C 185.753906 192.519531 185.324219 192.59375 185.097656 192.894531 C 184.867188 193.195312 184.9375 193.621094 185.238281 193.851562 C 185.910156 194.351562 186.355469 195.183594 186.441406 196.113281 C 186.527344 197.042969 186.285156 197.941406 185.726562 198.574219 C 185.570312 198.742188 185.398438 198.902344 185.226562 199.074219 C 185.210938 199.085938 185.195312 199.117188 185.167969 199.128906 C 178.917969 199.429688 173.082031 200.746094 173.082031 203.234375 L 173.082031 210.847656 C 169.949219 210.71875 166.816406 210.601562 163.695312 210.417969 C 162.808594 210.359375 161.9375 210.316406 161.050781 210.246094 C 160.851562 210.246094 160.679688 210.300781 160.535156 210.429688 C 160.390625 210.558594 160.320312 210.746094 160.320312 210.933594 C 160.320312 213.464844 160.59375 216.308594 162.496094 218.339844 C 163.910156 219.84375 166.058594 220.730469 167.746094 221.230469 C 167.816406 222.074219 167.960938 222.992188 168.230469 223.964844 C 168.289062 224.164062 168.34375 224.335938 168.402344 224.523438 C 167.386719 224.351562 166.441406 224.164062 165.585938 223.921875 C 162.796875 223.132812 160.492188 221.804688 158.933594 220.085938 C 156.429688 217.3125 155.644531 213.363281 155.242188 210.246094 C 155.199219 209.929688 154.957031 209.703125 154.65625 209.660156 C 153.339844 209.488281 152.152344 209.300781 151.007812 209.085938 C 146.859375 208.300781 143.683594 207.183594 141.050781 205.566406 C 137.832031 203.59375 135.488281 200.832031 134.457031 197.800781 C 132.957031 193.410156 134.242188 188.160156 137.660156 184.753906 C 140.921875 181.492188 146.085938 180.003906 150.792969 180.964844 C 151.066406 181.019531 151.351562 180.90625 151.496094 180.675781 C 151.652344 180.449219 151.636719 180.148438 151.496094 179.917969 C 148.890625 176.140625 148.320312 171.179688 150.050781 167.289062 C 151.78125 163.394531 155.699219 160.519531 160.046875 159.964844 C 164.28125 159.417969 168.804688 161.066406 171.851562 164.253906 C 172.050781 164.453125 172.351562 164.527344 172.609375 164.410156 C 172.867188 164.3125 173.039062 164.054688 173.023438 163.769531 C 172.921875 158.1875 176.183594 152.867188 181.132812 150.535156 C 182.921875 149.691406 185.023438 149.164062 187.371094 148.960938 C 190.019531 148.75 192.304688 149.035156 194.167969 149.808594 C 196.855469 150.9375 199.117188 153.269531 200.347656 156.230469 C 201.460938 158.917969 201.761719 162.082031 201.21875 165.355469 C 201.175781 165.628906 201.289062 165.886719 201.519531 166.042969 C 201.746094 166.1875 202.035156 166.199219 202.261719 166.042969 C 203.078125 165.527344 203.90625 164.957031 204.75 164.382812 C 207.667969 162.394531 210.6875 160.347656 214.136719 159.390625 C 218.84375 158.105469 223.761719 159.261719 226.667969 162.351562 C 229.15625 165 230.144531 169.0625 229.257812 172.9375 C 228.441406 176.484375 226.152344 179.777344 222.832031 182.222656 C 222.589844 182.40625 222.488281 182.722656 222.605469 183.007812 C 222.71875 183.292969 222.992188 183.480469 223.304688 183.453125 C 228.484375 182.980469 233.417969 184.480469 236.835938 187.542969 C 240.558594 190.875 242.144531 196.167969 240.699219 200.402344 Z M 240.699219 200.402344 "/></g><path style=" stroke:none;fill-rule:nonzero;fill:#643636;fill-opacity:1;" d="M 205.96875 175.070312 C 205.222656 174.667969 204.507812 174.511719 203.851562 174.597656 C 202.589844 174.753906 201.546875 175.757812 200.832031 177.472656 C 199.160156 181.476562 199.457031 185.957031 199.714844 189.902344 C 199.746094 190.261719 200.046875 190.546875 200.402344 190.546875 C 200.417969 190.546875 200.429688 190.546875 200.445312 190.546875 C 200.816406 190.519531 201.105469 190.203125 201.074219 189.816406 C 200.816406 186.011719 200.53125 181.707031 202.089844 178 C 202.390625 177.285156 203.035156 176.085938 204.023438 175.957031 C 204.394531 175.914062 204.835938 176.011719 205.324219 176.285156 C 207.65625 177.515625 208.570312 180.535156 208.914062 182.851562 C 209.242188 185.011719 209.316406 187.214844 209.113281 189.386719 C 209.085938 189.761719 209.359375 190.089844 209.730469 190.132812 C 210.101562 190.175781 210.429688 189.890625 210.472656 189.515625 C 210.675781 187.226562 210.601562 184.925781 210.257812 182.652344 C 209.6875 178.832031 208.226562 176.285156 205.953125 175.082031 Z M 205.96875 175.070312 "/><g transform="matrix(1,0,0,1,98,119)"><g clip-path="url(#181a01eead)"><g clip-rule="nonzero" clip-path="url(#45bc424fc6)"><g style="fill:#643636;fill-opacity:1;"><g transform="translate(12.960667, 77.702938)"><path style="stroke:none" d="M -10.703125 -6.15625 C -10.710938 -6.476562 -10.703125 -6.816406 -10.671875 -7.171875 C -10.648438 -7.535156 -10.601562 -7.890625 -10.53125 -8.234375 C -10.457031 -8.410156 -10.382812 -8.597656 -10.3125 -8.796875 C -10.25 -8.992188 -10.175781 -9.191406 -10.09375 -9.390625 C -9.894531 -9.878906 -9.582031 -10.265625 -9.15625 -10.546875 C -8.738281 -10.835938 -8.28125 -11.015625 -7.78125 -11.078125 C -7.28125 -11.148438 -6.796875 -11.101562 -6.328125 -10.9375 C -5.660156 -10.707031 -5.097656 -10.351562 -4.640625 -9.875 C -4.191406 -9.40625 -3.835938 -8.847656 -3.578125 -8.203125 C -3.546875 -8.140625 -3.519531 -8.070312 -3.5 -8 C -3.488281 -7.925781 -3.46875 -7.847656 -3.4375 -7.765625 C -3.351562 -7.492188 -3.273438 -7.335938 -3.203125 -7.296875 C -3.128906 -7.253906 -2.941406 -7.242188 -2.640625 -7.265625 C -2.296875 -7.316406 -1.953125 -7.375 -1.609375 -7.4375 C -1.265625 -7.507812 -0.914062 -7.582031 -0.5625 -7.65625 C -0.476562 -7.664062 -0.390625 -7.679688 -0.296875 -7.703125 C -0.203125 -7.734375 -0.109375 -7.753906 -0.015625 -7.765625 C 0.359375 -7.816406 0.632812 -7.863281 0.8125 -7.90625 C 0.988281 -7.945312 1.101562 -7.941406 1.15625 -7.890625 C 1.21875 -7.835938 1.265625 -7.71875 1.296875 -7.53125 C 1.335938 -7.34375 1.398438 -7.054688 1.484375 -6.671875 C 1.492188 -6.609375 1.503906 -6.546875 1.515625 -6.484375 C 1.523438 -6.421875 1.539062 -6.351562 1.5625 -6.28125 C 1.570312 -5.832031 1.363281 -5.570312 0.9375 -5.5 L -2.4375 -4.90625 C -2.519531 -4.894531 -2.597656 -4.878906 -2.671875 -4.859375 C -2.753906 -4.847656 -2.832031 -4.832031 -2.90625 -4.8125 C -3.09375 -4.78125 -3.203125 -4.6875 -3.234375 -4.53125 C -3.253906 -4.445312 -3.269531 -4.367188 -3.28125 -4.296875 C -3.289062 -4.222656 -3.304688 -4.144531 -3.328125 -4.0625 C -3.367188 -3.820312 -3.367188 -3.675781 -3.328125 -3.625 C -3.296875 -3.570312 -3.164062 -3.472656 -2.9375 -3.328125 C -2.425781 -3.035156 -1.914062 -2.742188 -1.40625 -2.453125 C -0.894531 -2.171875 -0.394531 -1.863281 0.09375 -1.53125 C 0.226562 -1.414062 0.300781 -1.328125 0.3125 -1.265625 C 0.320312 -1.203125 0.273438 -1.078125 0.171875 -0.890625 C 0.117188 -0.796875 0.0546875 -0.691406 -0.015625 -0.578125 C -0.0859375 -0.460938 -0.144531 -0.347656 -0.1875 -0.234375 C -0.238281 -0.117188 -0.304688 -0.0195312 -0.390625 0.0625 C -0.484375 0.15625 -0.578125 0.25 -0.671875 0.34375 C -0.898438 0.488281 -1.132812 0.492188 -1.375 0.359375 C -1.800781 0.0859375 -2.222656 -0.164062 -2.640625 -0.40625 C -3.066406 -0.644531 -3.488281 -0.890625 -3.90625 -1.140625 L -9.390625 -4.25 C -9.421875 -4.269531 -9.457031 -4.289062 -9.5 -4.3125 C -9.539062 -4.332031 -9.582031 -4.351562 -9.625 -4.375 C -9.945312 -4.539062 -10.1875 -4.691406 -10.34375 -4.828125 C -10.5 -4.960938 -10.601562 -5.125 -10.65625 -5.3125 C -10.707031 -5.507812 -10.722656 -5.789062 -10.703125 -6.15625 Z M -6.0625 -7.875 C -6.320312 -8.289062 -6.6875 -8.5625 -7.15625 -8.6875 C -7.382812 -8.738281 -7.554688 -8.726562 -7.671875 -8.65625 C -7.796875 -8.59375 -7.90625 -8.46875 -8 -8.28125 C -8.09375 -8.039062 -8.160156 -7.796875 -8.203125 -7.546875 C -8.242188 -7.304688 -8.28125 -7.054688 -8.3125 -6.796875 C -8.363281 -6.523438 -8.265625 -6.316406 -8.015625 -6.171875 C -7.765625 -6.035156 -7.507812 -5.898438 -7.25 -5.765625 C -7 -5.640625 -6.75 -5.515625 -6.5 -5.390625 C -6.375 -5.304688 -6.238281 -5.207031 -6.09375 -5.09375 C -5.945312 -4.988281 -5.804688 -4.972656 -5.671875 -5.046875 C -5.492188 -5.140625 -5.421875 -5.28125 -5.453125 -5.46875 C -5.484375 -5.664062 -5.507812 -5.84375 -5.53125 -6 C -5.539062 -6.351562 -5.585938 -6.679688 -5.671875 -6.984375 C -5.753906 -7.285156 -5.882812 -7.582031 -6.0625 -7.875 Z M -6.0625 -7.875 "/></g></g></g><g style="fill:#643636;fill-opacity:1;"><g transform="translate(18.658719, 58.811039)"><path style="stroke:none" d="M -0.09375 -6.84375 C -0.144531 -6.945312 -0.191406 -7.054688 -0.234375 -7.171875 C -0.273438 -7.296875 -0.316406 -7.429688 -0.359375 -7.578125 C -0.148438 -7.691406 0.0546875 -7.8125 0.265625 -7.9375 C 0.472656 -8.0625 0.675781 -8.171875 0.875 -8.265625 C 1.019531 -8.347656 1.171875 -8.394531 1.328125 -8.40625 C 1.597656 -8.4375 1.800781 -8.328125 1.9375 -8.078125 C 2.300781 -7.429688 2.515625 -6.765625 2.578125 -6.078125 C 2.640625 -5.398438 2.578125 -4.707031 2.390625 -4 C 2.242188 -3.476562 2.035156 -2.988281 1.765625 -2.53125 C 1.492188 -2.070312 1.117188 -1.675781 0.640625 -1.34375 C 0.265625 -1.09375 -0.140625 -0.9375 -0.578125 -0.875 C -1.140625 -0.8125 -1.710938 -0.859375 -2.296875 -1.015625 C -2.890625 -1.179688 -3.429688 -1.46875 -3.921875 -1.875 C -4.410156 -2.289062 -4.769531 -2.820312 -5 -3.46875 C -5.019531 -3.539062 -5.039062 -3.601562 -5.0625 -3.65625 C -5.082031 -3.71875 -5.097656 -3.78125 -5.109375 -3.84375 C -5.171875 -4.007812 -5.207031 -4.1875 -5.21875 -4.375 C -5.238281 -4.5625 -5.296875 -4.710938 -5.390625 -4.828125 C -5.492188 -4.929688 -5.632812 -5.003906 -5.8125 -5.046875 C -6 -5.097656 -6.175781 -5.15625 -6.34375 -5.21875 C -6.601562 -5.34375 -6.835938 -5.503906 -7.046875 -5.703125 C -7.253906 -5.910156 -7.429688 -6.132812 -7.578125 -6.375 C -7.992188 -7.03125 -8.222656 -7.695312 -8.265625 -8.375 C -8.316406 -9.0625 -8.242188 -9.765625 -8.046875 -10.484375 C -8.003906 -10.671875 -7.929688 -10.832031 -7.828125 -10.96875 C -7.734375 -11.113281 -7.578125 -11.222656 -7.359375 -11.296875 C -7.160156 -11.367188 -6.988281 -11.492188 -6.84375 -11.671875 C -6.695312 -11.859375 -6.535156 -12.023438 -6.359375 -12.171875 C -5.878906 -12.554688 -5.375 -12.753906 -4.84375 -12.765625 C -4.320312 -12.785156 -3.785156 -12.675781 -3.234375 -12.4375 C -2.992188 -12.332031 -2.925781 -12.175781 -3.03125 -11.96875 C -3.1875 -11.625 -3.320312 -11.269531 -3.4375 -10.90625 C -3.5 -10.664062 -3.59375 -10.503906 -3.71875 -10.421875 C -3.84375 -10.335938 -4.046875 -10.316406 -4.328125 -10.359375 C -4.804688 -10.441406 -5.175781 -10.265625 -5.4375 -9.828125 C -5.488281 -9.742188 -5.535156 -9.65625 -5.578125 -9.5625 C -5.628906 -9.476562 -5.671875 -9.398438 -5.703125 -9.328125 C -6.023438 -8.671875 -5.941406 -8.050781 -5.453125 -7.46875 C -5.367188 -7.394531 -5.28125 -7.359375 -5.1875 -7.359375 C -5.101562 -7.359375 -5.023438 -7.398438 -4.953125 -7.484375 C -4.773438 -7.710938 -4.625 -7.957031 -4.5 -8.21875 C -4.375 -8.476562 -4.269531 -8.742188 -4.1875 -9.015625 C -4.132812 -9.160156 -4.078125 -9.242188 -4.015625 -9.265625 C -3.953125 -9.296875 -3.84375 -9.289062 -3.6875 -9.25 C -3.5 -9.207031 -3.300781 -9.15625 -3.09375 -9.09375 C -2.894531 -9.03125 -2.695312 -8.972656 -2.5 -8.921875 C -2.257812 -8.828125 -2.109375 -8.71875 -2.046875 -8.59375 C -1.984375 -8.46875 -1.984375 -8.285156 -2.046875 -8.046875 C -2.203125 -7.472656 -2.425781 -6.941406 -2.71875 -6.453125 C -2.925781 -6.140625 -3.023438 -5.804688 -3.015625 -5.453125 C -3.003906 -5.109375 -2.945312 -4.765625 -2.84375 -4.421875 C -2.726562 -4.054688 -2.503906 -3.753906 -2.171875 -3.515625 C -1.835938 -3.285156 -1.472656 -3.175781 -1.078125 -3.1875 C -0.941406 -3.1875 -0.828125 -3.21875 -0.734375 -3.28125 C -0.554688 -3.425781 -0.394531 -3.578125 -0.25 -3.734375 C -0.101562 -3.898438 -0.00390625 -4.097656 0.046875 -4.328125 C 0.140625 -4.753906 0.195312 -5.175781 0.21875 -5.59375 C 0.25 -6.007812 0.144531 -6.425781 -0.09375 -6.84375 Z M -0.09375 -6.84375 "/></g></g><g style="fill:#643636;fill-opacity:1;"><g transform="translate(28.925449, 42.055885)"><path style="stroke:none" d="M -3.453125 -13.109375 C -3.328125 -13.171875 -3.210938 -13.179688 -3.109375 -13.140625 C -3.015625 -13.109375 -2.925781 -13.054688 -2.84375 -12.984375 C -2.800781 -12.953125 -2.765625 -12.898438 -2.734375 -12.828125 C -2.085938 -11.898438 -1.4375 -10.972656 -0.78125 -10.046875 C -0.132812 -9.128906 0.507812 -8.203125 1.15625 -7.265625 C 1.46875 -6.804688 1.707031 -6.316406 1.875 -5.796875 C 2.050781 -5.273438 2.144531 -4.734375 2.15625 -4.171875 C 2.15625 -3.785156 2.097656 -3.414062 1.984375 -3.0625 C 1.878906 -2.71875 1.722656 -2.398438 1.515625 -2.109375 C 1.003906 -1.421875 0.445312 -1.015625 -0.15625 -0.890625 C -0.757812 -0.765625 -1.410156 -0.832031 -2.109375 -1.09375 C -2.140625 -1.09375 -2.164062 -1.097656 -2.1875 -1.109375 C -2.21875 -1.128906 -2.25 -1.15625 -2.28125 -1.1875 C -2.414062 -1.269531 -2.566406 -1.332031 -2.734375 -1.375 C -2.898438 -1.425781 -2.992188 -1.546875 -3.015625 -1.734375 C -3.023438 -1.910156 -2.992188 -2.085938 -2.921875 -2.265625 C -2.859375 -2.453125 -2.757812 -2.625 -2.625 -2.78125 C -2.59375 -2.8125 -2.554688 -2.847656 -2.515625 -2.890625 C -2.484375 -2.929688 -2.472656 -2.945312 -2.484375 -2.9375 L -2.125 -3.328125 C -1.976562 -3.492188 -1.804688 -3.539062 -1.609375 -3.46875 C -1.554688 -3.457031 -1.492188 -3.429688 -1.421875 -3.390625 C -1.359375 -3.359375 -1.300781 -3.332031 -1.25 -3.3125 C -0.976562 -3.226562 -0.742188 -3.25 -0.546875 -3.375 C -0.347656 -3.507812 -0.238281 -3.722656 -0.21875 -4.015625 C -0.21875 -4.210938 -0.226562 -4.414062 -0.25 -4.625 C -0.28125 -4.84375 -0.34375 -5.046875 -0.4375 -5.234375 C -0.5625 -5.515625 -0.707031 -5.78125 -0.875 -6.03125 C -1.039062 -6.289062 -1.203125 -6.535156 -1.359375 -6.765625 L -4.078125 -10.578125 C -4.171875 -10.703125 -4.253906 -10.820312 -4.328125 -10.9375 C -4.410156 -11.050781 -4.484375 -11.171875 -4.546875 -11.296875 C -4.628906 -11.410156 -4.71875 -11.53125 -4.8125 -11.65625 C -4.914062 -11.789062 -4.929688 -11.921875 -4.859375 -12.046875 C -4.753906 -12.265625 -4.625 -12.472656 -4.46875 -12.671875 C -4.320312 -12.878906 -4.097656 -13.003906 -3.796875 -13.046875 C -3.734375 -13.054688 -3.671875 -13.066406 -3.609375 -13.078125 C -3.546875 -13.085938 -3.492188 -13.097656 -3.453125 -13.109375 Z M -3.453125 -13.109375 "/></g></g><g style="fill:#643636;fill-opacity:1;"><g transform="translate(41.372731, 29.555845)"><path style="stroke:none" d="M -1.40625 -2.5625 C -1.582031 -2.75 -1.75 -2.9375 -1.90625 -3.125 C -2.070312 -3.3125 -2.203125 -3.519531 -2.296875 -3.75 C -2.628906 -4.21875 -2.894531 -4.703125 -3.09375 -5.203125 C -3.289062 -5.703125 -3.457031 -6.210938 -3.59375 -6.734375 C -3.8125 -7.609375 -3.898438 -8.472656 -3.859375 -9.328125 C -3.816406 -10.191406 -3.617188 -11.039062 -3.265625 -11.875 C -3.140625 -12.175781 -2.984375 -12.453125 -2.796875 -12.703125 C -2.617188 -12.960938 -2.398438 -13.191406 -2.140625 -13.390625 C -1.941406 -13.554688 -1.726562 -13.707031 -1.5 -13.84375 C -1.269531 -13.976562 -1 -14.019531 -0.6875 -13.96875 C -0.664062 -13.96875 -0.632812 -13.972656 -0.59375 -13.984375 C -0.5625 -13.992188 -0.53125 -13.992188 -0.5 -13.984375 C 0.25 -14.171875 0.914062 -14.128906 1.5 -13.859375 C 2.09375 -13.585938 2.640625 -13.191406 3.140625 -12.671875 C 3.578125 -12.210938 3.9375 -11.707031 4.21875 -11.15625 C 4.5 -10.613281 4.75 -10.050781 4.96875 -9.46875 C 5.082031 -9.15625 5.1875 -8.835938 5.28125 -8.515625 C 5.382812 -8.203125 5.476562 -7.878906 5.5625 -7.546875 C 5.71875 -6.867188 5.757812 -6.203125 5.6875 -5.546875 C 5.613281 -4.898438 5.398438 -4.273438 5.046875 -3.671875 C 4.585938 -2.890625 4.003906 -2.320312 3.296875 -1.96875 C 2.597656 -1.625 1.800781 -1.429688 0.90625 -1.390625 C 0.4375 -1.390625 0.0078125 -1.5 -0.375 -1.71875 C -0.757812 -1.9375 -1.101562 -2.21875 -1.40625 -2.5625 Z M 3.140625 -7.265625 C 3.023438 -7.816406 2.863281 -8.359375 2.65625 -8.890625 C 2.445312 -9.421875 2.207031 -9.925781 1.9375 -10.40625 C 1.882812 -10.476562 1.835938 -10.539062 1.796875 -10.59375 C 1.765625 -10.644531 1.722656 -10.695312 1.671875 -10.75 C 1.585938 -10.851562 1.492188 -10.953125 1.390625 -11.046875 C 1.285156 -11.148438 1.179688 -11.253906 1.078125 -11.359375 C 0.609375 -11.804688 0.0859375 -11.851562 -0.484375 -11.5 C -0.816406 -11.289062 -1.046875 -11.03125 -1.171875 -10.71875 C -1.304688 -10.414062 -1.394531 -10.085938 -1.4375 -9.734375 C -1.53125 -8.910156 -1.484375 -8.117188 -1.296875 -7.359375 C -1.109375 -6.597656 -0.8125 -5.863281 -0.40625 -5.15625 C -0.269531 -4.945312 -0.132812 -4.738281 0 -4.53125 C 0.132812 -4.320312 0.304688 -4.140625 0.515625 -3.984375 C 0.617188 -3.929688 0.710938 -3.878906 0.796875 -3.828125 C 0.890625 -3.773438 1 -3.75 1.125 -3.75 C 1.4375 -3.8125 1.734375 -3.882812 2.015625 -3.96875 C 2.296875 -4.0625 2.546875 -4.21875 2.765625 -4.4375 C 3.171875 -4.925781 3.34375 -5.492188 3.28125 -6.140625 C 3.25 -6.328125 3.222656 -6.515625 3.203125 -6.703125 C 3.191406 -6.890625 3.171875 -7.078125 3.140625 -7.265625 Z M 3.140625 -7.265625 "/></g></g><g style="fill:#643636;fill-opacity:1;"><g transform="translate(58.882758, 19.133427)"><path style="stroke:none" d="M 2.859375 -5.5625 C 2.898438 -5.488281 2.953125 -5.398438 3.015625 -5.296875 C 3.078125 -5.203125 3.164062 -5.070312 3.28125 -4.90625 C 3.351562 -5.4375 3.40625 -5.921875 3.4375 -6.359375 C 3.476562 -6.804688 3.503906 -7.238281 3.515625 -7.65625 L 3.859375 -13.546875 C 3.859375 -13.753906 3.878906 -13.875 3.921875 -13.90625 C 3.960938 -13.945312 4.097656 -14.003906 4.328125 -14.078125 C 4.390625 -14.097656 4.445312 -14.117188 4.5 -14.140625 C 4.5625 -14.171875 4.625 -14.195312 4.6875 -14.21875 C 4.945312 -14.34375 5.179688 -14.351562 5.390625 -14.25 C 5.597656 -14.144531 5.796875 -14.019531 5.984375 -13.875 C 6.097656 -13.800781 6.160156 -13.6875 6.171875 -13.53125 C 6.191406 -13.375 6.195312 -13.226562 6.1875 -13.09375 L 6.078125 -10.71875 L 5.6875 -4.0625 C 5.664062 -3.78125 5.640625 -3.507812 5.609375 -3.25 C 5.578125 -2.988281 5.546875 -2.722656 5.515625 -2.453125 C 5.492188 -2.304688 5.445312 -2.195312 5.375 -2.125 C 5.300781 -2.050781 5.175781 -2.023438 5 -2.046875 C 4.59375 -2.160156 4.191406 -2.113281 3.796875 -1.90625 C 3.703125 -1.84375 3.585938 -1.789062 3.453125 -1.75 C 3.328125 -1.707031 3.207031 -1.671875 3.09375 -1.640625 C 2.875 -1.597656 2.703125 -1.609375 2.578125 -1.671875 C 2.460938 -1.734375 2.34375 -1.851562 2.21875 -2.03125 C 1.882812 -2.59375 1.546875 -3.144531 1.203125 -3.6875 C 0.859375 -4.238281 0.539062 -4.804688 0.25 -5.390625 C -0.0625 -6.035156 -0.375 -6.679688 -0.6875 -7.328125 C -1.007812 -7.972656 -1.328125 -8.613281 -1.640625 -9.25 C -1.765625 -9.507812 -1.882812 -9.765625 -2 -10.015625 C -2.125 -10.273438 -2.242188 -10.535156 -2.359375 -10.796875 C -2.429688 -10.972656 -2.457031 -11.09375 -2.4375 -11.15625 C -2.414062 -11.226562 -2.328125 -11.316406 -2.171875 -11.421875 C -2.097656 -11.460938 -2.023438 -11.5 -1.953125 -11.53125 C -1.890625 -11.570312 -1.835938 -11.617188 -1.796875 -11.671875 C -1.691406 -11.785156 -1.582031 -11.847656 -1.46875 -11.859375 C -1.351562 -11.878906 -1.226562 -11.882812 -1.09375 -11.875 C -0.84375 -11.875 -0.628906 -11.828125 -0.453125 -11.734375 C -0.285156 -11.640625 -0.144531 -11.476562 -0.03125 -11.25 C 0.144531 -10.851562 0.335938 -10.46875 0.546875 -10.09375 C 0.753906 -9.71875 0.941406 -9.34375 1.109375 -8.96875 C 1.421875 -8.40625 1.71875 -7.835938 2 -7.265625 C 2.28125 -6.691406 2.566406 -6.125 2.859375 -5.5625 Z M 2.859375 -5.5625 "/></g></g><g style="fill:#643636;fill-opacity:1;"><g transform="translate(77.908566, 13.780475)"><path style="stroke:none" d=""/></g></g><g clip-rule="nonzero" clip-path="url(#b30d7ba39c)"><g style="fill:#643636;fill-opacity:1;"><g transform="translate(93.942658, 12.897126)"><path style="stroke:none" d="M 7.265625 -2.359375 C 7.390625 -2.484375 7.5 -2.617188 7.59375 -2.765625 C 7.6875 -2.910156 7.796875 -3.066406 7.921875 -3.234375 C 8.097656 -3.203125 8.257812 -3.144531 8.40625 -3.0625 C 8.5625 -2.976562 8.71875 -2.929688 8.875 -2.921875 C 9.101562 -2.910156 9.273438 -2.828125 9.390625 -2.671875 C 9.503906 -2.515625 9.625 -2.367188 9.75 -2.234375 C 9.75 -2.191406 9.753906 -2.144531 9.765625 -2.09375 C 9.773438 -2.039062 9.78125 -1.992188 9.78125 -1.953125 C 9.757812 -1.859375 9.722656 -1.773438 9.671875 -1.703125 C 9.253906 -1.023438 8.753906 -0.457031 8.171875 0 C 7.585938 0.445312 6.890625 0.75 6.078125 0.90625 C 5.359375 1.039062 4.671875 1.003906 4.015625 0.796875 C 3.367188 0.597656 2.757812 0.265625 2.1875 -0.203125 C 1.25 -0.941406 0.753906 -1.929688 0.703125 -3.171875 C 0.648438 -4.015625 0.753906 -4.828125 1.015625 -5.609375 C 1.273438 -6.398438 1.613281 -7.148438 2.03125 -7.859375 C 2.1875 -8.117188 2.351562 -8.367188 2.53125 -8.609375 C 2.707031 -8.859375 2.894531 -9.09375 3.09375 -9.3125 C 3.507812 -9.832031 3.976562 -10.257812 4.5 -10.59375 C 5.019531 -10.9375 5.59375 -11.203125 6.21875 -11.390625 C 6.726562 -11.535156 7.222656 -11.554688 7.703125 -11.453125 C 8.191406 -11.359375 8.625 -11.164062 9 -10.875 C 9.382812 -10.59375 9.695312 -10.242188 9.9375 -9.828125 C 10.1875 -9.410156 10.320312 -8.957031 10.34375 -8.46875 C 10.382812 -8.226562 10.390625 -7.988281 10.359375 -7.75 C 10.328125 -7.519531 10.28125 -7.289062 10.21875 -7.0625 C 10.082031 -6.476562 9.867188 -5.945312 9.578125 -5.46875 C 9.285156 -4.988281 8.96875 -4.519531 8.625 -4.0625 C 8.414062 -3.757812 8.175781 -3.742188 7.90625 -4.015625 C 7.789062 -4.140625 7.660156 -4.242188 7.515625 -4.328125 C 7.367188 -4.421875 7.210938 -4.515625 7.046875 -4.609375 C 6.859375 -4.703125 6.742188 -4.84375 6.703125 -5.03125 C 6.671875 -5.226562 6.71875 -5.410156 6.84375 -5.578125 C 7.070312 -5.878906 7.265625 -6.1875 7.421875 -6.5 C 7.585938 -6.820312 7.75 -7.15625 7.90625 -7.5 C 7.976562 -7.6875 8.019531 -7.882812 8.03125 -8.09375 C 8.039062 -8.300781 7.988281 -8.492188 7.875 -8.671875 C 7.800781 -8.804688 7.707031 -8.910156 7.59375 -8.984375 C 7.488281 -9.054688 7.347656 -9.09375 7.171875 -9.09375 C 6.679688 -9.070312 6.253906 -8.941406 5.890625 -8.703125 C 5.535156 -8.460938 5.207031 -8.171875 4.90625 -7.828125 C 4.144531 -6.960938 3.585938 -5.945312 3.234375 -4.78125 C 3.171875 -4.5625 3.117188 -4.34375 3.078125 -4.125 C 3.046875 -3.90625 3.039062 -3.679688 3.0625 -3.453125 C 3.070312 -2.992188 3.203125 -2.597656 3.453125 -2.265625 C 3.710938 -1.929688 4.0625 -1.695312 4.5 -1.5625 C 5.0625 -1.394531 5.566406 -1.382812 6.015625 -1.53125 C 6.472656 -1.6875 6.890625 -1.960938 7.265625 -2.359375 Z M 7.265625 -2.359375 "/></g></g></g><g style="fill:#643636;fill-opacity:1;"><g transform="translate(114.141434, 16.757268)"><path style="stroke:none" d="M 1.34375 -2.59375 C 1.40625 -2.84375 1.472656 -3.082031 1.546875 -3.3125 C 1.617188 -3.550781 1.726562 -3.769531 1.875 -3.96875 C 2.082031 -4.507812 2.335938 -5 2.640625 -5.4375 C 2.941406 -5.875 3.28125 -6.289062 3.65625 -6.6875 C 4.257812 -7.351562 4.929688 -7.90625 5.671875 -8.34375 C 6.410156 -8.78125 7.226562 -9.078125 8.125 -9.234375 C 8.445312 -9.304688 8.765625 -9.332031 9.078125 -9.3125 C 9.390625 -9.289062 9.703125 -9.226562 10.015625 -9.125 C 10.265625 -9.050781 10.503906 -8.953125 10.734375 -8.828125 C 10.972656 -8.710938 11.15625 -8.519531 11.28125 -8.25 C 11.289062 -8.21875 11.3125 -8.191406 11.34375 -8.171875 C 11.375 -8.148438 11.394531 -8.125 11.40625 -8.09375 C 11.96875 -7.550781 12.296875 -6.960938 12.390625 -6.328125 C 12.492188 -5.703125 12.460938 -5.035156 12.296875 -4.328125 C 12.148438 -3.710938 11.925781 -3.132812 11.625 -2.59375 C 11.332031 -2.050781 10.992188 -1.535156 10.609375 -1.046875 C 10.421875 -0.773438 10.21875 -0.507812 10 -0.25 C 9.78125 0 9.5625 0.242188 9.34375 0.484375 C 8.863281 1.003906 8.332031 1.410156 7.75 1.703125 C 7.164062 2.003906 6.53125 2.171875 5.84375 2.203125 C 4.925781 2.253906 4.125 2.078125 3.4375 1.671875 C 2.757812 1.273438 2.164062 0.71875 1.65625 0 C 1.40625 -0.394531 1.257812 -0.8125 1.21875 -1.25 C 1.175781 -1.695312 1.21875 -2.144531 1.34375 -2.59375 Z M 7.765625 -1.375 C 8.179688 -1.757812 8.546875 -2.1875 8.859375 -2.65625 C 9.179688 -3.132812 9.484375 -3.613281 9.765625 -4.09375 C 9.785156 -4.175781 9.804688 -4.242188 9.828125 -4.296875 C 9.859375 -4.359375 9.878906 -4.425781 9.890625 -4.5 C 9.910156 -4.632812 9.9375 -4.769531 9.96875 -4.90625 C 10 -5.050781 10.035156 -5.191406 10.078125 -5.328125 C 10.191406 -5.960938 9.941406 -6.425781 9.328125 -6.71875 C 8.972656 -6.882812 8.628906 -6.9375 8.296875 -6.875 C 7.972656 -6.8125 7.65625 -6.703125 7.34375 -6.546875 C 6.59375 -6.171875 5.953125 -5.695312 5.421875 -5.125 C 4.898438 -4.550781 4.453125 -3.90625 4.078125 -3.1875 C 3.972656 -2.957031 3.867188 -2.726562 3.765625 -2.5 C 3.671875 -2.269531 3.617188 -2.019531 3.609375 -1.75 C 3.609375 -1.644531 3.609375 -1.535156 3.609375 -1.421875 C 3.617188 -1.316406 3.664062 -1.21875 3.75 -1.125 C 3.96875 -0.894531 4.191406 -0.6875 4.421875 -0.5 C 4.648438 -0.320312 4.910156 -0.203125 5.203125 -0.140625 C 5.847656 -0.0546875 6.421875 -0.21875 6.921875 -0.625 C 7.054688 -0.75 7.195312 -0.867188 7.34375 -0.984375 C 7.488281 -1.109375 7.628906 -1.238281 7.765625 -1.375 Z M 7.765625 -1.375 "/></g></g><g style="fill:#643636;fill-opacity:1;"><g transform="translate(132.46417, 25.774924)"><path style="stroke:none" d="M 8.4375 -4.71875 C 8.175781 -4.53125 7.914062 -4.332031 7.65625 -4.125 C 7.40625 -3.925781 7.15625 -3.707031 6.90625 -3.46875 C 7.289062 -3.226562 7.648438 -2.992188 7.984375 -2.765625 C 8.316406 -2.535156 8.644531 -2.3125 8.96875 -2.09375 C 9.1875 -1.9375 9.234375 -1.742188 9.109375 -1.515625 C 8.984375 -1.316406 8.851562 -1.117188 8.71875 -0.921875 C 8.59375 -0.722656 8.453125 -0.535156 8.296875 -0.359375 C 8.128906 -0.128906 7.910156 -0.09375 7.640625 -0.25 L 5.828125 -1.3125 L 5.4375 -1.578125 C 5.269531 -1.691406 5.144531 -1.765625 5.0625 -1.796875 C 4.976562 -1.835938 4.894531 -1.835938 4.8125 -1.796875 C 4.726562 -1.765625 4.609375 -1.679688 4.453125 -1.546875 C 4.035156 -1.242188 3.625 -0.941406 3.21875 -0.640625 C 2.8125 -0.335938 2.394531 -0.0390625 1.96875 0.25 C 1.914062 0.300781 1.851562 0.347656 1.78125 0.390625 C 1.71875 0.429688 1.648438 0.472656 1.578125 0.515625 C 1.429688 0.640625 1.296875 0.625 1.171875 0.46875 C 1.015625 0.3125 0.859375 0.148438 0.703125 -0.015625 C 0.554688 -0.191406 0.421875 -0.359375 0.296875 -0.515625 C 0.191406 -0.671875 0.132812 -0.828125 0.125 -0.984375 C 0.125 -1.148438 0.207031 -1.3125 0.375 -1.46875 C 0.445312 -1.519531 0.515625 -1.578125 0.578125 -1.640625 C 0.648438 -1.710938 0.726562 -1.773438 0.8125 -1.828125 C 1.832031 -2.609375 2.847656 -3.390625 3.859375 -4.171875 C 4.878906 -4.960938 5.898438 -5.753906 6.921875 -6.546875 C 7.148438 -6.722656 7.390625 -6.898438 7.640625 -7.078125 C 7.890625 -7.253906 8.128906 -7.429688 8.359375 -7.609375 C 8.441406 -7.660156 8.523438 -7.691406 8.609375 -7.703125 C 8.703125 -7.722656 8.789062 -7.691406 8.875 -7.609375 C 8.9375 -7.554688 9 -7.515625 9.0625 -7.484375 C 9.125 -7.460938 9.195312 -7.441406 9.28125 -7.421875 C 9.332031 -7.429688 9.382812 -7.429688 9.4375 -7.421875 C 9.5 -7.410156 9.539062 -7.382812 9.5625 -7.34375 C 9.757812 -7.0625 9.992188 -6.828125 10.265625 -6.640625 C 10.535156 -6.460938 10.8125 -6.296875 11.09375 -6.140625 C 11.382812 -5.984375 11.648438 -5.804688 11.890625 -5.609375 C 11.953125 -5.546875 12.015625 -5.492188 12.078125 -5.453125 C 12.148438 -5.421875 12.222656 -5.378906 12.296875 -5.328125 C 12.515625 -5.171875 12.65625 -5.046875 12.71875 -4.953125 C 12.789062 -4.867188 12.800781 -4.765625 12.75 -4.640625 C 12.707031 -4.515625 12.601562 -4.347656 12.4375 -4.140625 C 12.351562 -4.023438 12.269531 -3.90625 12.1875 -3.78125 C 12.113281 -3.664062 12.03125 -3.554688 11.9375 -3.453125 C 11.71875 -3.191406 11.46875 -3.128906 11.1875 -3.265625 C 11.039062 -3.335938 10.894531 -3.414062 10.75 -3.5 C 10.613281 -3.582031 10.484375 -3.664062 10.359375 -3.75 C 10.128906 -3.914062 9.894531 -4.078125 9.65625 -4.234375 C 9.425781 -4.398438 9.1875 -4.5625 8.9375 -4.71875 C 8.78125 -4.832031 8.613281 -4.832031 8.4375 -4.71875 Z M 8.4375 -4.71875 "/></g></g><g style="fill:#643636;fill-opacity:1;"><g transform="translate(145.745945, 36.885782)"><path style="stroke:none" d="M 9.265625 -2.734375 C 8.972656 -2.609375 8.679688 -2.472656 8.390625 -2.328125 C 8.097656 -2.191406 7.800781 -2.03125 7.5 -1.84375 C 7.832031 -1.53125 8.132812 -1.222656 8.40625 -0.921875 C 8.675781 -0.628906 8.941406 -0.335938 9.203125 -0.046875 C 9.390625 0.148438 9.394531 0.34375 9.21875 0.53125 C 9.0625 0.695312 8.894531 0.863281 8.71875 1.03125 C 8.550781 1.195312 8.367188 1.347656 8.171875 1.484375 C 7.960938 1.671875 7.742188 1.660156 7.515625 1.453125 L 5.96875 0.015625 L 5.65625 -0.34375 C 5.519531 -0.476562 5.410156 -0.570312 5.328125 -0.625 C 5.253906 -0.675781 5.171875 -0.695312 5.078125 -0.6875 C 4.992188 -0.675781 4.863281 -0.617188 4.6875 -0.515625 C 4.207031 -0.316406 3.734375 -0.117188 3.265625 0.078125 C 2.804688 0.285156 2.335938 0.488281 1.859375 0.6875 C 1.796875 0.71875 1.722656 0.742188 1.640625 0.765625 C 1.566406 0.796875 1.5 0.828125 1.4375 0.859375 C 1.257812 0.941406 1.125 0.894531 1.03125 0.71875 C 0.914062 0.519531 0.804688 0.320312 0.703125 0.125 C 0.597656 -0.0703125 0.5 -0.257812 0.40625 -0.4375 C 0.332031 -0.613281 0.3125 -0.78125 0.34375 -0.9375 C 0.375 -1.09375 0.488281 -1.226562 0.6875 -1.34375 C 0.769531 -1.382812 0.847656 -1.425781 0.921875 -1.46875 C 1.003906 -1.519531 1.09375 -1.5625 1.1875 -1.59375 C 2.363281 -2.132812 3.535156 -2.675781 4.703125 -3.21875 C 5.867188 -3.757812 7.03125 -4.300781 8.1875 -4.84375 C 8.445312 -4.96875 8.722656 -5.085938 9.015625 -5.203125 C 9.304688 -5.328125 9.582031 -5.445312 9.84375 -5.5625 C 9.9375 -5.601562 10.023438 -5.617188 10.109375 -5.609375 C 10.203125 -5.609375 10.273438 -5.554688 10.328125 -5.453125 C 10.378906 -5.378906 10.4375 -5.328125 10.5 -5.296875 C 10.5625 -5.265625 10.628906 -5.226562 10.703125 -5.1875 C 10.742188 -5.175781 10.789062 -5.160156 10.84375 -5.140625 C 10.90625 -5.117188 10.9375 -5.085938 10.9375 -5.046875 C 11.082031 -4.722656 11.265625 -4.441406 11.484375 -4.203125 C 11.703125 -3.960938 11.929688 -3.734375 12.171875 -3.515625 C 12.421875 -3.304688 12.644531 -3.078125 12.84375 -2.828125 C 12.882812 -2.765625 12.9375 -2.703125 13 -2.640625 C 13.0625 -2.585938 13.117188 -2.53125 13.171875 -2.46875 C 13.347656 -2.269531 13.460938 -2.113281 13.515625 -2 C 13.566406 -1.894531 13.554688 -1.789062 13.484375 -1.6875 C 13.410156 -1.582031 13.257812 -1.445312 13.03125 -1.28125 C 12.925781 -1.1875 12.828125 -1.085938 12.734375 -0.984375 C 12.640625 -0.890625 12.523438 -0.800781 12.390625 -0.71875 C 12.128906 -0.519531 11.875 -0.515625 11.625 -0.703125 C 11.488281 -0.804688 11.367188 -0.910156 11.265625 -1.015625 C 11.160156 -1.128906 11.054688 -1.242188 10.953125 -1.359375 C 10.742188 -1.578125 10.546875 -1.785156 10.359375 -1.984375 C 10.171875 -2.191406 9.972656 -2.398438 9.765625 -2.609375 C 9.640625 -2.765625 9.472656 -2.804688 9.265625 -2.734375 Z M 9.265625 -2.734375 "/></g></g><g style="fill:#643636;fill-opacity:1;"><g transform="translate(156.262383, 50.586871)"><path style="stroke:none" d="M 5.8125 3.8125 C 5.9375 3.832031 6.054688 3.859375 6.171875 3.890625 C 6.296875 3.929688 6.4375 3.96875 6.59375 4 L 6.453125 5.453125 C 6.429688 5.617188 6.375 5.757812 6.28125 5.875 C 6.15625 6.113281 5.945312 6.222656 5.65625 6.203125 C 4.925781 6.117188 4.265625 5.90625 3.671875 5.5625 C 3.078125 5.21875 2.546875 4.773438 2.078125 4.234375 C 1.734375 3.804688 1.453125 3.347656 1.234375 2.859375 C 1.015625 2.367188 0.90625 1.84375 0.90625 1.28125 C 0.914062 0.8125 1.023438 0.382812 1.234375 0 C 1.492188 -0.507812 1.863281 -0.953125 2.34375 -1.328125 C 2.820312 -1.703125 3.367188 -1.972656 3.984375 -2.140625 C 4.597656 -2.304688 5.238281 -2.300781 5.90625 -2.125 C 5.957031 -2.101562 6.015625 -2.082031 6.078125 -2.0625 C 6.140625 -2.050781 6.195312 -2.035156 6.25 -2.015625 C 6.425781 -1.960938 6.59375 -1.890625 6.75 -1.796875 C 6.914062 -1.703125 7.070312 -1.660156 7.21875 -1.671875 C 7.375 -1.679688 7.519531 -1.75 7.65625 -1.875 C 7.800781 -2 7.953125 -2.109375 8.109375 -2.203125 C 8.347656 -2.367188 8.609375 -2.472656 8.890625 -2.515625 C 9.179688 -2.566406 9.46875 -2.59375 9.75 -2.59375 C 10.519531 -2.550781 11.203125 -2.347656 11.796875 -1.984375 C 12.390625 -1.628906 12.914062 -1.171875 13.375 -0.609375 C 13.519531 -0.460938 13.617188 -0.304688 13.671875 -0.140625 C 13.722656 0.015625 13.71875 0.203125 13.65625 0.421875 C 13.613281 0.628906 13.625 0.84375 13.6875 1.0625 C 13.75 1.289062 13.78125 1.515625 13.78125 1.734375 C 13.832031 2.359375 13.710938 2.890625 13.421875 3.328125 C 13.128906 3.765625 12.726562 4.140625 12.21875 4.453125 C 12 4.585938 11.835938 4.554688 11.734375 4.359375 C 11.523438 4.035156 11.300781 3.71875 11.0625 3.40625 C 10.894531 3.21875 10.816406 3.046875 10.828125 2.890625 C 10.847656 2.742188 10.957031 2.566406 11.15625 2.359375 C 11.488281 2.015625 11.546875 1.613281 11.328125 1.15625 C 11.296875 1.0625 11.257812 0.972656 11.21875 0.890625 C 11.175781 0.804688 11.132812 0.722656 11.09375 0.640625 C 10.738281 0.00390625 10.179688 -0.273438 9.421875 -0.203125 C 9.304688 -0.191406 9.222656 -0.148438 9.171875 -0.078125 C 9.128906 -0.00390625 9.125 0.0859375 9.15625 0.203125 C 9.238281 0.484375 9.351562 0.742188 9.5 0.984375 C 9.644531 1.234375 9.796875 1.472656 9.953125 1.703125 C 10.054688 1.847656 10.097656 1.945312 10.078125 2 C 10.066406 2.0625 10 2.148438 9.875 2.265625 C 9.71875 2.390625 9.554688 2.515625 9.390625 2.640625 C 9.234375 2.773438 9.070312 2.90625 8.90625 3.03125 C 8.695312 3.175781 8.523438 3.238281 8.390625 3.21875 C 8.253906 3.195312 8.101562 3.09375 7.9375 2.90625 C 7.550781 2.4375 7.25 1.953125 7.03125 1.453125 C 6.882812 1.097656 6.664062 0.828125 6.375 0.640625 C 6.09375 0.453125 5.78125 0.300781 5.4375 0.1875 C 5.0625 0.0625 4.679688 0.0664062 4.296875 0.203125 C 3.921875 0.347656 3.625 0.582031 3.40625 0.90625 C 3.332031 1.019531 3.289062 1.132812 3.28125 1.25 C 3.300781 1.476562 3.332031 1.703125 3.375 1.921875 C 3.425781 2.140625 3.53125 2.328125 3.6875 2.484375 C 3.976562 2.816406 4.289062 3.109375 4.625 3.359375 C 4.957031 3.617188 5.351562 3.769531 5.8125 3.8125 Z M 5.8125 3.8125 "/></g></g><g clip-rule="nonzero" clip-path="url(#5cb45a8b18)"><g style="fill:#643636;fill-opacity:1;"><g transform="translate(164.14457, 68.583494)"><path style="stroke:none" d="M 4.671875 5.15625 C 4.785156 5.207031 4.894531 5.265625 5 5.328125 C 5.113281 5.398438 5.234375 5.46875 5.359375 5.53125 L 4.875 6.890625 C 4.8125 7.046875 4.722656 7.171875 4.609375 7.265625 C 4.429688 7.460938 4.203125 7.515625 3.921875 7.421875 C 3.234375 7.160156 2.644531 6.789062 2.15625 6.3125 C 1.675781 5.832031 1.273438 5.269531 0.953125 4.625 C 0.722656 4.125 0.5625 3.609375 0.46875 3.078125 C 0.382812 2.546875 0.414062 2.003906 0.5625 1.453125 C 0.675781 1.003906 0.882812 0.617188 1.1875 0.296875 C 1.570312 -0.117188 2.039062 -0.445312 2.59375 -0.6875 C 3.15625 -0.9375 3.753906 -1.0625 4.390625 -1.0625 C 5.023438 -1.070312 5.644531 -0.90625 6.25 -0.5625 C 6.300781 -0.539062 6.351562 -0.515625 6.40625 -0.484375 C 6.46875 -0.453125 6.519531 -0.421875 6.5625 -0.390625 C 6.707031 -0.296875 6.847656 -0.179688 6.984375 -0.046875 C 7.117188 0.0859375 7.257812 0.164062 7.40625 0.1875 C 7.5625 0.21875 7.722656 0.1875 7.890625 0.09375 C 8.054688 0.0078125 8.226562 -0.0546875 8.40625 -0.109375 C 8.675781 -0.203125 8.953125 -0.238281 9.234375 -0.21875 C 9.523438 -0.195312 9.8125 -0.144531 10.09375 -0.0625 C 10.820312 0.164062 11.425781 0.53125 11.90625 1.03125 C 12.394531 1.53125 12.796875 2.113281 13.109375 2.78125 C 13.203125 2.945312 13.253906 3.113281 13.265625 3.28125 C 13.273438 3.457031 13.226562 3.640625 13.125 3.828125 C 13.03125 4.023438 12.984375 4.238281 12.984375 4.46875 C 12.984375 4.707031 12.957031 4.929688 12.90625 5.140625 C 12.800781 5.753906 12.550781 6.238281 12.15625 6.59375 C 11.769531 6.945312 11.285156 7.203125 10.703125 7.359375 C 10.460938 7.441406 10.316406 7.378906 10.265625 7.171875 C 10.140625 6.796875 10.007812 6.4375 9.875 6.09375 C 9.75 5.851562 9.710938 5.660156 9.765625 5.515625 C 9.816406 5.378906 9.960938 5.234375 10.203125 5.078125 C 10.617188 4.828125 10.785156 4.453125 10.703125 3.953125 C 10.679688 3.859375 10.660156 3.765625 10.640625 3.671875 C 10.617188 3.585938 10.597656 3.5 10.578125 3.40625 C 10.398438 2.707031 9.929688 2.296875 9.171875 2.171875 C 9.066406 2.148438 8.976562 2.164062 8.90625 2.21875 C 8.84375 2.28125 8.8125 2.375 8.8125 2.5 C 8.8125 2.78125 8.851562 3.054688 8.9375 3.328125 C 9.03125 3.609375 9.125 3.882812 9.21875 4.15625 C 9.269531 4.3125 9.28125 4.414062 9.25 4.46875 C 9.21875 4.519531 9.128906 4.582031 8.984375 4.65625 C 8.804688 4.75 8.625 4.835938 8.4375 4.921875 C 8.25 5.003906 8.050781 5.085938 7.84375 5.171875 C 7.613281 5.253906 7.4375 5.269531 7.3125 5.21875 C 7.195312 5.164062 7.078125 5.023438 6.953125 4.796875 C 6.703125 4.253906 6.53125 3.710938 6.4375 3.171875 C 6.382812 2.804688 6.242188 2.492188 6.015625 2.234375 C 5.796875 1.972656 5.523438 1.742188 5.203125 1.546875 C 4.878906 1.328125 4.515625 1.238281 4.109375 1.28125 C 3.710938 1.320312 3.367188 1.472656 3.078125 1.734375 C 2.960938 1.816406 2.894531 1.914062 2.875 2.03125 C 2.820312 2.25 2.789062 2.472656 2.78125 2.703125 C 2.78125 2.929688 2.835938 3.144531 2.953125 3.34375 C 3.140625 3.726562 3.363281 4.085938 3.625 4.421875 C 3.882812 4.753906 4.234375 5 4.671875 5.15625 Z M 4.671875 5.15625 "/></g></g></g></g></g><g transform="matrix(1,0,0,1,157,244)"><g clip-path="url(#13463dcb77)"><g clip-rule="nonzero" clip-path="url(#a640777acb)"><g style="fill:#643636;fill-opacity:1;"><g transform="translate(0.937257, 9.419908)"><path style="stroke:none" d="M 2.1875 -5.3125 C 2.164062 -5.3125 2.144531 -5.304688 2.125 -5.296875 C 2.101562 -5.296875 2.082031 -5.296875 2.0625 -5.296875 L 1.578125 -3.265625 C 1.515625 -3.035156 1.453125 -2.8125 1.390625 -2.59375 C 1.328125 -2.375 1.265625 -2.144531 1.203125 -1.90625 C 1.140625 -1.675781 1.078125 -1.441406 1.015625 -1.203125 C 0.953125 -0.972656 0.890625 -0.738281 0.828125 -0.5 C 0.765625 -0.257812 0.601562 -0.117188 0.34375 -0.078125 C 0.21875 -0.0546875 0.113281 -0.078125 0.03125 -0.140625 C -0.0507812 -0.203125 -0.0859375 -0.296875 -0.078125 -0.421875 C -0.0546875 -0.617188 -0.03125 -0.816406 0 -1.015625 C 0.0195312 -1.222656 0.0546875 -1.421875 0.109375 -1.609375 C 0.390625 -2.765625 0.695312 -3.914062 1.03125 -5.0625 C 1.125 -5.40625 1.222656 -5.75 1.328125 -6.09375 C 1.441406 -6.4375 1.550781 -6.78125 1.65625 -7.125 C 1.675781 -7.195312 1.707031 -7.265625 1.75 -7.328125 C 1.789062 -7.390625 1.832031 -7.457031 1.875 -7.53125 C 1.914062 -7.539062 1.953125 -7.546875 1.984375 -7.546875 C 2.023438 -7.554688 2.070312 -7.5625 2.125 -7.5625 C 2.28125 -7.5625 2.394531 -7.550781 2.46875 -7.53125 C 2.550781 -7.507812 2.613281 -7.460938 2.65625 -7.390625 C 2.695312 -7.316406 2.738281 -7.207031 2.78125 -7.0625 C 2.894531 -6.5625 3.007812 -6.0625 3.125 -5.5625 C 3.238281 -5.070312 3.351562 -4.578125 3.46875 -4.078125 C 3.5 -3.960938 3.523438 -3.835938 3.546875 -3.703125 C 3.566406 -3.578125 3.59375 -3.453125 3.625 -3.328125 C 3.632812 -3.296875 3.648438 -3.257812 3.671875 -3.21875 C 3.703125 -3.1875 3.726562 -3.140625 3.75 -3.078125 C 3.875 -3.210938 3.976562 -3.347656 4.0625 -3.484375 C 4.144531 -3.617188 4.226562 -3.75 4.3125 -3.875 C 4.613281 -4.351562 4.914062 -4.828125 5.21875 -5.296875 C 5.519531 -5.765625 5.828125 -6.234375 6.140625 -6.703125 C 6.191406 -6.796875 6.253906 -6.882812 6.328125 -6.96875 C 6.398438 -7.050781 6.460938 -7.132812 6.515625 -7.21875 C 6.648438 -7.414062 6.8125 -7.519531 7 -7.53125 C 7.1875 -7.539062 7.375 -7.539062 7.5625 -7.53125 C 7.632812 -7.53125 7.691406 -7.492188 7.734375 -7.421875 C 7.785156 -7.359375 7.816406 -7.285156 7.828125 -7.203125 C 7.835938 -7.097656 7.832031 -6.972656 7.8125 -6.828125 C 7.769531 -6.585938 7.722656 -6.347656 7.671875 -6.109375 C 7.628906 -5.867188 7.582031 -5.628906 7.53125 -5.390625 C 7.46875 -5.035156 7.398438 -4.679688 7.328125 -4.328125 C 7.265625 -3.972656 7.210938 -3.617188 7.171875 -3.265625 C 7.117188 -2.828125 7.039062 -2.394531 6.9375 -1.96875 C 6.84375 -1.550781 6.738281 -1.128906 6.625 -0.703125 C 6.582031 -0.554688 6.507812 -0.410156 6.40625 -0.265625 C 6.269531 -0.0976562 6.097656 -0.0507812 5.890625 -0.125 C 5.816406 -0.144531 5.753906 -0.171875 5.703125 -0.203125 C 5.660156 -0.242188 5.640625 -0.300781 5.640625 -0.375 C 5.628906 -0.457031 5.617188 -0.539062 5.609375 -0.625 C 5.609375 -0.71875 5.613281 -0.800781 5.625 -0.875 C 5.6875 -1.21875 5.753906 -1.5625 5.828125 -1.90625 C 5.898438 -2.25 5.972656 -2.59375 6.046875 -2.9375 C 6.097656 -3.25 6.148438 -3.5625 6.203125 -3.875 C 6.265625 -4.1875 6.328125 -4.5 6.390625 -4.8125 C 6.410156 -4.925781 6.4375 -5.046875 6.46875 -5.171875 C 6.5 -5.296875 6.53125 -5.441406 6.5625 -5.609375 C 6.476562 -5.535156 6.410156 -5.472656 6.359375 -5.421875 C 6.316406 -5.378906 6.28125 -5.335938 6.25 -5.296875 C 6.113281 -5.078125 5.984375 -4.851562 5.859375 -4.625 C 5.742188 -4.40625 5.625 -4.1875 5.5 -3.96875 C 5.332031 -3.707031 5.164062 -3.441406 5 -3.171875 C 4.84375 -2.910156 4.679688 -2.65625 4.515625 -2.40625 C 4.398438 -2.25 4.28125 -2.097656 4.15625 -1.953125 C 4.03125 -1.804688 3.898438 -1.664062 3.765625 -1.53125 C 3.648438 -1.414062 3.523438 -1.363281 3.390625 -1.375 C 3.265625 -1.394531 3.160156 -1.472656 3.078125 -1.609375 C 3.003906 -1.734375 2.9375 -1.867188 2.875 -2.015625 C 2.8125 -2.160156 2.765625 -2.300781 2.734375 -2.4375 C 2.660156 -2.78125 2.59375 -3.125 2.53125 -3.46875 C 2.476562 -3.8125 2.414062 -4.15625 2.34375 -4.5 Z M 2.1875 -5.3125 "/></g></g></g><g style="fill:#643636;fill-opacity:1;"><g transform="translate(9.585303, 9.419908)"><path style="stroke:none" d="M 5.3125 -7.1875 C 5.664062 -6.757812 5.894531 -6.289062 6 -5.78125 C 6.113281 -5.28125 6.171875 -4.726562 6.171875 -4.125 C 6.109375 -3.363281 5.898438 -2.648438 5.546875 -1.984375 C 5.191406 -1.328125 4.679688 -0.75 4.015625 -0.25 C 3.816406 -0.113281 3.609375 -0.00390625 3.390625 0.078125 C 3.179688 0.160156 2.953125 0.1875 2.703125 0.15625 C 2.453125 0.125 2.210938 0.0664062 1.984375 -0.015625 C 1.753906 -0.109375 1.546875 -0.253906 1.359375 -0.453125 C 1.066406 -0.742188 0.847656 -1.054688 0.703125 -1.390625 C 0.554688 -1.734375 0.460938 -2.097656 0.421875 -2.484375 C 0.328125 -3.441406 0.441406 -4.304688 0.765625 -5.078125 C 1.097656 -5.859375 1.625 -6.554688 2.34375 -7.171875 C 2.457031 -7.265625 2.578125 -7.347656 2.703125 -7.421875 C 2.828125 -7.503906 2.957031 -7.582031 3.09375 -7.65625 C 3.3125 -7.769531 3.5625 -7.820312 3.84375 -7.8125 C 4.125 -7.800781 4.398438 -7.738281 4.671875 -7.625 C 4.941406 -7.519531 5.15625 -7.375 5.3125 -7.1875 Z M 2.09375 -5.765625 C 1.832031 -5.347656 1.625 -4.914062 1.46875 -4.46875 C 1.320312 -4.03125 1.257812 -3.570312 1.28125 -3.09375 C 1.25 -2.695312 1.285156 -2.332031 1.390625 -2 C 1.492188 -1.664062 1.679688 -1.359375 1.953125 -1.078125 C 2.128906 -0.890625 2.34375 -0.769531 2.59375 -0.71875 C 2.8125 -0.675781 3.003906 -0.6875 3.171875 -0.75 C 3.335938 -0.820312 3.492188 -0.914062 3.640625 -1.03125 C 3.859375 -1.21875 4.050781 -1.421875 4.21875 -1.640625 C 4.394531 -1.859375 4.539062 -2.09375 4.65625 -2.34375 C 4.789062 -2.613281 4.890625 -2.898438 4.953125 -3.203125 C 5.023438 -3.503906 5.09375 -3.804688 5.15625 -4.109375 C 5.238281 -4.492188 5.25 -4.863281 5.1875 -5.21875 C 5.125 -5.570312 5.019531 -5.921875 4.875 -6.265625 C 4.820312 -6.410156 4.75 -6.539062 4.65625 -6.65625 C 4.582031 -6.75 4.492188 -6.828125 4.390625 -6.890625 C 4.296875 -6.953125 4.1875 -6.976562 4.0625 -6.96875 C 3.851562 -6.957031 3.648438 -6.929688 3.453125 -6.890625 C 3.265625 -6.847656 3.085938 -6.765625 2.921875 -6.640625 C 2.753906 -6.523438 2.597656 -6.394531 2.453125 -6.25 C 2.316406 -6.101562 2.195312 -5.941406 2.09375 -5.765625 Z M 2.09375 -5.765625 "/></g></g><g style="fill:#643636;fill-opacity:1;"><g transform="translate(16.824845, 9.419908)"><path style="stroke:none" d="M 4.171875 -3.28125 C 4.210938 -3.28125 4.242188 -3.28125 4.265625 -3.28125 C 4.367188 -3.675781 4.472656 -4.070312 4.578125 -4.46875 C 4.691406 -4.863281 4.804688 -5.265625 4.921875 -5.671875 C 4.992188 -5.921875 5.066406 -6.171875 5.140625 -6.421875 C 5.222656 -6.679688 5.304688 -6.9375 5.390625 -7.1875 C 5.410156 -7.25 5.4375 -7.304688 5.46875 -7.359375 C 5.507812 -7.410156 5.554688 -7.457031 5.609375 -7.5 C 5.671875 -7.539062 5.765625 -7.5625 5.890625 -7.5625 C 6.015625 -7.5625 6.101562 -7.539062 6.15625 -7.5 C 6.207031 -7.445312 6.238281 -7.382812 6.25 -7.3125 C 6.269531 -7.238281 6.273438 -7.160156 6.265625 -7.078125 C 6.222656 -6.890625 6.179688 -6.703125 6.140625 -6.515625 C 6.097656 -6.335938 6.050781 -6.15625 6 -5.96875 C 5.78125 -5.101562 5.554688 -4.238281 5.328125 -3.375 C 5.097656 -2.519531 4.875 -1.660156 4.65625 -0.796875 C 4.632812 -0.722656 4.609375 -0.648438 4.578125 -0.578125 C 4.554688 -0.515625 4.523438 -0.453125 4.484375 -0.390625 C 4.398438 -0.253906 4.285156 -0.164062 4.140625 -0.125 C 4.003906 -0.09375 3.875 -0.101562 3.75 -0.15625 C 3.625 -0.207031 3.53125 -0.304688 3.46875 -0.453125 C 3.414062 -0.554688 3.378906 -0.660156 3.359375 -0.765625 C 3.347656 -0.867188 3.332031 -0.972656 3.3125 -1.078125 C 3.269531 -1.484375 3.222656 -1.882812 3.171875 -2.28125 C 3.128906 -2.675781 3.082031 -3.070312 3.03125 -3.46875 C 2.976562 -3.851562 2.894531 -4.226562 2.78125 -4.59375 C 2.664062 -4.957031 2.546875 -5.320312 2.421875 -5.6875 C 2.410156 -5.71875 2.394531 -5.742188 2.375 -5.765625 C 2.351562 -5.796875 2.328125 -5.832031 2.296875 -5.875 C 2.222656 -5.601562 2.148438 -5.335938 2.078125 -5.078125 C 2.003906 -4.828125 1.9375 -4.578125 1.875 -4.328125 L 0.890625 -0.703125 C 0.867188 -0.628906 0.84375 -0.554688 0.8125 -0.484375 C 0.789062 -0.410156 0.765625 -0.34375 0.734375 -0.28125 C 0.671875 -0.175781 0.578125 -0.09375 0.453125 -0.03125 C 0.359375 0.0195312 0.257812 0.0234375 0.15625 -0.015625 C 0.0507812 -0.0664062 -0.0078125 -0.148438 -0.03125 -0.265625 C -0.0390625 -0.328125 -0.046875 -0.390625 -0.046875 -0.453125 C -0.046875 -0.523438 -0.046875 -0.585938 -0.046875 -0.640625 C 0.046875 -1.078125 0.144531 -1.515625 0.25 -1.953125 C 0.289062 -2.097656 0.332031 -2.238281 0.375 -2.375 C 0.414062 -2.519531 0.453125 -2.664062 0.484375 -2.8125 C 0.585938 -3.28125 0.691406 -3.753906 0.796875 -4.234375 C 0.910156 -4.710938 1.046875 -5.179688 1.203125 -5.640625 C 1.253906 -5.828125 1.300781 -6.015625 1.34375 -6.203125 C 1.382812 -6.390625 1.429688 -6.570312 1.484375 -6.75 C 1.503906 -6.832031 1.523438 -6.914062 1.546875 -7 C 1.578125 -7.082031 1.609375 -7.160156 1.640625 -7.234375 C 1.691406 -7.390625 1.785156 -7.5 1.921875 -7.5625 C 2.054688 -7.632812 2.203125 -7.660156 2.359375 -7.640625 C 2.515625 -7.617188 2.632812 -7.539062 2.71875 -7.40625 C 2.789062 -7.289062 2.859375 -7.179688 2.921875 -7.078125 C 2.992188 -6.972656 3.054688 -6.859375 3.109375 -6.734375 C 3.316406 -6.242188 3.5 -5.742188 3.65625 -5.234375 C 3.8125 -4.734375 3.945312 -4.226562 4.0625 -3.71875 C 4.070312 -3.644531 4.085938 -3.570312 4.109375 -3.5 C 4.128906 -3.425781 4.148438 -3.351562 4.171875 -3.28125 Z M 4.171875 -3.28125 "/></g></g><g style="fill:#643636;fill-opacity:1;"><g transform="translate(23.660396, 9.419908)"><path style="stroke:none" d="M 2.625 -6.015625 C 2.632812 -6.097656 2.648438 -6.179688 2.671875 -6.265625 C 2.703125 -6.359375 2.734375 -6.472656 2.765625 -6.609375 C 2.578125 -6.617188 2.410156 -6.625 2.265625 -6.625 C 2.128906 -6.632812 1.992188 -6.644531 1.859375 -6.65625 C 1.742188 -6.65625 1.625 -6.65625 1.5 -6.65625 C 1.382812 -6.65625 1.269531 -6.65625 1.15625 -6.65625 C 1.03125 -6.675781 0.941406 -6.738281 0.890625 -6.84375 C 0.847656 -6.957031 0.863281 -7.070312 0.9375 -7.1875 C 1.03125 -7.320312 1.15625 -7.390625 1.3125 -7.390625 C 1.46875 -7.410156 1.625 -7.425781 1.78125 -7.4375 C 1.945312 -7.457031 2.109375 -7.457031 2.265625 -7.4375 C 2.578125 -7.40625 2.894531 -7.40625 3.21875 -7.4375 C 3.539062 -7.46875 3.859375 -7.488281 4.171875 -7.5 C 4.335938 -7.507812 4.503906 -7.515625 4.671875 -7.515625 C 4.847656 -7.515625 5.019531 -7.507812 5.1875 -7.5 C 5.34375 -7.488281 5.484375 -7.445312 5.609375 -7.375 C 5.710938 -7.3125 5.765625 -7.210938 5.765625 -7.078125 C 5.765625 -6.941406 5.707031 -6.847656 5.59375 -6.796875 C 5.4375 -6.710938 5.257812 -6.664062 5.0625 -6.65625 C 4.875 -6.632812 4.691406 -6.625 4.515625 -6.625 C 4.335938 -6.625 4.15625 -6.617188 3.96875 -6.609375 C 3.90625 -6.609375 3.84375 -6.597656 3.78125 -6.578125 C 3.71875 -6.554688 3.644531 -6.539062 3.5625 -6.53125 C 3.507812 -6.300781 3.453125 -6.066406 3.390625 -5.828125 C 3.335938 -5.597656 3.289062 -5.363281 3.25 -5.125 C 3.09375 -4.394531 2.9375 -3.664062 2.78125 -2.9375 C 2.632812 -2.21875 2.484375 -1.492188 2.328125 -0.765625 C 2.304688 -0.679688 2.269531 -0.59375 2.21875 -0.5 C 2.175781 -0.414062 2.132812 -0.335938 2.09375 -0.265625 C 1.976562 -0.128906 1.84375 -0.09375 1.6875 -0.15625 C 1.519531 -0.207031 1.4375 -0.316406 1.4375 -0.484375 C 1.4375 -0.628906 1.445312 -0.78125 1.46875 -0.9375 C 1.539062 -1.28125 1.609375 -1.625 1.671875 -1.96875 C 1.734375 -2.3125 1.804688 -2.65625 1.890625 -3 C 2.003906 -3.5 2.125 -4 2.25 -4.5 C 2.375 -5.007812 2.5 -5.515625 2.625 -6.015625 Z M 2.625 -6.015625 "/></g></g><g style="fill:#643636;fill-opacity:1;"><g transform="translate(29.141958, 9.419908)"><path style="stroke:none" d="M 0.25 -2.96875 C 0.34375 -3.226562 0.472656 -3.46875 0.640625 -3.6875 C 0.804688 -3.914062 1 -4.128906 1.21875 -4.328125 C 1.09375 -4.753906 1.066406 -5.144531 1.140625 -5.5 C 1.222656 -5.863281 1.394531 -6.203125 1.65625 -6.515625 C 1.832031 -6.734375 2.035156 -6.914062 2.265625 -7.0625 C 2.492188 -7.21875 2.742188 -7.335938 3.015625 -7.421875 C 3.222656 -7.492188 3.4375 -7.546875 3.65625 -7.578125 C 3.882812 -7.609375 4.113281 -7.613281 4.34375 -7.59375 C 4.726562 -7.550781 5.046875 -7.363281 5.296875 -7.03125 C 5.335938 -6.988281 5.367188 -6.9375 5.390625 -6.875 C 5.410156 -6.8125 5.425781 -6.75 5.4375 -6.6875 C 5.457031 -6.5 5.382812 -6.359375 5.21875 -6.265625 C 5.144531 -6.222656 5.070312 -6.210938 5 -6.234375 C 4.9375 -6.253906 4.875 -6.285156 4.8125 -6.328125 C 4.769531 -6.359375 4.726562 -6.394531 4.6875 -6.4375 C 4.65625 -6.476562 4.625 -6.515625 4.59375 -6.546875 C 4.488281 -6.679688 4.367188 -6.769531 4.234375 -6.8125 C 4.097656 -6.851562 3.953125 -6.851562 3.796875 -6.8125 C 3.429688 -6.75 3.101562 -6.628906 2.8125 -6.453125 C 2.519531 -6.285156 2.289062 -6.03125 2.125 -5.6875 C 2.0625 -5.570312 2.019531 -5.453125 2 -5.328125 C 1.976562 -5.203125 1.988281 -5.066406 2.03125 -4.921875 C 2.09375 -4.921875 2.15625 -4.921875 2.21875 -4.921875 C 2.28125 -4.921875 2.34375 -4.925781 2.40625 -4.9375 C 2.820312 -5.039062 3.238281 -5.070312 3.65625 -5.03125 C 3.738281 -5.03125 3.820312 -5.015625 3.90625 -4.984375 C 3.988281 -4.960938 4.066406 -4.925781 4.140625 -4.875 C 4.273438 -4.800781 4.367188 -4.695312 4.421875 -4.5625 C 4.472656 -4.4375 4.476562 -4.304688 4.4375 -4.171875 C 4.394531 -4.035156 4.304688 -3.921875 4.171875 -3.828125 C 3.992188 -3.722656 3.804688 -3.632812 3.609375 -3.5625 C 3.410156 -3.488281 3.195312 -3.46875 2.96875 -3.5 C 2.789062 -3.53125 2.601562 -3.5625 2.40625 -3.59375 C 2.21875 -3.632812 2.023438 -3.671875 1.828125 -3.703125 C 1.617188 -3.566406 1.453125 -3.382812 1.328125 -3.15625 C 1.203125 -2.9375 1.101562 -2.707031 1.03125 -2.46875 C 0.9375 -2.175781 0.929688 -1.910156 1.015625 -1.671875 C 1.109375 -1.441406 1.253906 -1.257812 1.453125 -1.125 C 1.648438 -0.988281 1.867188 -0.914062 2.109375 -0.90625 C 2.453125 -0.894531 2.742188 -0.953125 2.984375 -1.078125 C 3.222656 -1.203125 3.429688 -1.394531 3.609375 -1.65625 C 3.660156 -1.71875 3.707031 -1.773438 3.75 -1.828125 C 3.789062 -1.890625 3.835938 -1.945312 3.890625 -2 C 3.921875 -2.03125 3.960938 -2.050781 4.015625 -2.0625 C 4.066406 -2.082031 4.117188 -2.097656 4.171875 -2.109375 C 4.253906 -2.117188 4.320312 -2.097656 4.375 -2.046875 C 4.4375 -1.992188 4.472656 -1.925781 4.484375 -1.84375 C 4.484375 -1.726562 4.472656 -1.613281 4.453125 -1.5 C 4.441406 -1.382812 4.398438 -1.273438 4.328125 -1.171875 C 4.097656 -0.859375 3.835938 -0.59375 3.546875 -0.375 C 3.253906 -0.164062 2.90625 -0.0546875 2.5 -0.046875 C 2.382812 -0.0351562 2.269531 -0.03125 2.15625 -0.03125 C 2.039062 -0.0390625 1.921875 -0.046875 1.796875 -0.046875 C 1.484375 -0.046875 1.210938 -0.125 0.984375 -0.28125 C 0.753906 -0.445312 0.554688 -0.648438 0.390625 -0.890625 C 0.171875 -1.222656 0.0625 -1.566406 0.0625 -1.921875 C 0.0703125 -2.273438 0.132812 -2.625 0.25 -2.96875 Z M 0.25 -2.96875 "/></g></g><g style="fill:#643636;fill-opacity:1;"><g transform="translate(35.213201, 9.419908)"><path style="stroke:none" d="M 4.21875 -3.609375 C 4.125 -3.566406 4.035156 -3.53125 3.953125 -3.5 C 3.867188 -3.46875 3.773438 -3.429688 3.671875 -3.390625 C 3.691406 -3.316406 3.707031 -3.25 3.71875 -3.1875 C 3.738281 -3.132812 3.757812 -3.078125 3.78125 -3.015625 C 3.925781 -2.648438 4.070312 -2.285156 4.21875 -1.921875 C 4.375 -1.554688 4.523438 -1.191406 4.671875 -0.828125 C 4.691406 -0.773438 4.707031 -0.71875 4.71875 -0.65625 C 4.738281 -0.59375 4.75 -0.523438 4.75 -0.453125 C 4.757812 -0.265625 4.671875 -0.132812 4.484375 -0.0625 C 4.410156 -0.03125 4.332031 -0.015625 4.25 -0.015625 C 4.164062 -0.0234375 4.085938 -0.0664062 4.015625 -0.140625 C 3.960938 -0.203125 3.914062 -0.257812 3.875 -0.3125 C 3.832031 -0.375 3.796875 -0.4375 3.765625 -0.5 C 3.710938 -0.613281 3.660156 -0.726562 3.609375 -0.84375 C 3.566406 -0.96875 3.523438 -1.09375 3.484375 -1.21875 C 3.359375 -1.550781 3.234375 -1.882812 3.109375 -2.21875 C 2.992188 -2.5625 2.875 -2.90625 2.75 -3.25 L 1.578125 -3.4375 C 1.578125 -3.425781 1.5625 -3.410156 1.53125 -3.390625 C 1.507812 -3.367188 1.492188 -3.34375 1.484375 -3.3125 C 1.410156 -3.070312 1.335938 -2.820312 1.265625 -2.5625 C 1.203125 -2.300781 1.140625 -2.046875 1.078125 -1.796875 C 1.023438 -1.578125 0.960938 -1.359375 0.890625 -1.140625 C 0.828125 -0.929688 0.765625 -0.71875 0.703125 -0.5 C 0.703125 -0.46875 0.695312 -0.4375 0.6875 -0.40625 C 0.675781 -0.382812 0.660156 -0.359375 0.640625 -0.328125 C 0.597656 -0.253906 0.550781 -0.179688 0.5 -0.109375 C 0.445312 -0.046875 0.367188 -0.0195312 0.265625 -0.03125 C 0.171875 -0.0390625 0.0820312 -0.0859375 0 -0.171875 C -0.0703125 -0.265625 -0.109375 -0.363281 -0.109375 -0.46875 C -0.109375 -0.5625 -0.101562 -0.65625 -0.09375 -0.75 C -0.09375 -0.851562 -0.078125 -0.945312 -0.046875 -1.03125 C 0.179688 -1.695312 0.367188 -2.367188 0.515625 -3.046875 C 0.671875 -3.734375 0.84375 -4.414062 1.03125 -5.09375 C 1.132812 -5.4375 1.238281 -5.78125 1.34375 -6.125 C 1.457031 -6.46875 1.570312 -6.804688 1.6875 -7.140625 C 1.75 -7.335938 1.8125 -7.453125 1.875 -7.484375 C 1.945312 -7.523438 2.085938 -7.546875 2.296875 -7.546875 C 2.484375 -7.546875 2.671875 -7.546875 2.859375 -7.546875 C 3.054688 -7.554688 3.242188 -7.578125 3.421875 -7.609375 C 3.640625 -7.640625 3.851562 -7.632812 4.0625 -7.59375 C 4.269531 -7.550781 4.472656 -7.503906 4.671875 -7.453125 C 4.847656 -7.421875 5 -7.34375 5.125 -7.21875 C 5.25 -7.101562 5.351562 -6.96875 5.4375 -6.8125 C 5.863281 -6.050781 5.867188 -5.300781 5.453125 -4.5625 C 5.316406 -4.34375 5.140625 -4.148438 4.921875 -3.984375 C 4.703125 -3.828125 4.46875 -3.703125 4.21875 -3.609375 Z M 2.296875 -6.71875 C 2.203125 -6.34375 2.109375 -5.960938 2.015625 -5.578125 C 1.921875 -5.203125 1.820312 -4.804688 1.71875 -4.390625 C 1.820312 -4.359375 1.898438 -4.328125 1.953125 -4.296875 C 2.015625 -4.265625 2.078125 -4.242188 2.140625 -4.234375 C 2.546875 -4.179688 2.9375 -4.191406 3.3125 -4.265625 C 3.6875 -4.335938 4.046875 -4.484375 4.390625 -4.703125 C 4.523438 -4.785156 4.628906 -4.890625 4.703125 -5.015625 C 4.773438 -5.140625 4.832031 -5.273438 4.875 -5.421875 C 4.945312 -5.765625 4.894531 -6.070312 4.71875 -6.34375 C 4.550781 -6.613281 4.296875 -6.773438 3.953125 -6.828125 C 3.679688 -6.859375 3.40625 -6.867188 3.125 -6.859375 C 2.851562 -6.847656 2.578125 -6.800781 2.296875 -6.71875 Z M 2.296875 -6.71875 "/></g></g><g style="fill:#643636;fill-opacity:1;"><g transform="translate(41.841296, 9.419908)"><path style="stroke:none" d="M 4.21875 -3.609375 C 4.125 -3.566406 4.035156 -3.53125 3.953125 -3.5 C 3.867188 -3.46875 3.773438 -3.429688 3.671875 -3.390625 C 3.691406 -3.316406 3.707031 -3.25 3.71875 -3.1875 C 3.738281 -3.132812 3.757812 -3.078125 3.78125 -3.015625 C 3.925781 -2.648438 4.070312 -2.285156 4.21875 -1.921875 C 4.375 -1.554688 4.523438 -1.191406 4.671875 -0.828125 C 4.691406 -0.773438 4.707031 -0.71875 4.71875 -0.65625 C 4.738281 -0.59375 4.75 -0.523438 4.75 -0.453125 C 4.757812 -0.265625 4.671875 -0.132812 4.484375 -0.0625 C 4.410156 -0.03125 4.332031 -0.015625 4.25 -0.015625 C 4.164062 -0.0234375 4.085938 -0.0664062 4.015625 -0.140625 C 3.960938 -0.203125 3.914062 -0.257812 3.875 -0.3125 C 3.832031 -0.375 3.796875 -0.4375 3.765625 -0.5 C 3.710938 -0.613281 3.660156 -0.726562 3.609375 -0.84375 C 3.566406 -0.96875 3.523438 -1.09375 3.484375 -1.21875 C 3.359375 -1.550781 3.234375 -1.882812 3.109375 -2.21875 C 2.992188 -2.5625 2.875 -2.90625 2.75 -3.25 L 1.578125 -3.4375 C 1.578125 -3.425781 1.5625 -3.410156 1.53125 -3.390625 C 1.507812 -3.367188 1.492188 -3.34375 1.484375 -3.3125 C 1.410156 -3.070312 1.335938 -2.820312 1.265625 -2.5625 C 1.203125 -2.300781 1.140625 -2.046875 1.078125 -1.796875 C 1.023438 -1.578125 0.960938 -1.359375 0.890625 -1.140625 C 0.828125 -0.929688 0.765625 -0.71875 0.703125 -0.5 C 0.703125 -0.46875 0.695312 -0.4375 0.6875 -0.40625 C 0.675781 -0.382812 0.660156 -0.359375 0.640625 -0.328125 C 0.597656 -0.253906 0.550781 -0.179688 0.5 -0.109375 C 0.445312 -0.046875 0.367188 -0.0195312 0.265625 -0.03125 C 0.171875 -0.0390625 0.0820312 -0.0859375 0 -0.171875 C -0.0703125 -0.265625 -0.109375 -0.363281 -0.109375 -0.46875 C -0.109375 -0.5625 -0.101562 -0.65625 -0.09375 -0.75 C -0.09375 -0.851562 -0.078125 -0.945312 -0.046875 -1.03125 C 0.179688 -1.695312 0.367188 -2.367188 0.515625 -3.046875 C 0.671875 -3.734375 0.84375 -4.414062 1.03125 -5.09375 C 1.132812 -5.4375 1.238281 -5.78125 1.34375 -6.125 C 1.457031 -6.46875 1.570312 -6.804688 1.6875 -7.140625 C 1.75 -7.335938 1.8125 -7.453125 1.875 -7.484375 C 1.945312 -7.523438 2.085938 -7.546875 2.296875 -7.546875 C 2.484375 -7.546875 2.671875 -7.546875 2.859375 -7.546875 C 3.054688 -7.554688 3.242188 -7.578125 3.421875 -7.609375 C 3.640625 -7.640625 3.851562 -7.632812 4.0625 -7.59375 C 4.269531 -7.550781 4.472656 -7.503906 4.671875 -7.453125 C 4.847656 -7.421875 5 -7.34375 5.125 -7.21875 C 5.25 -7.101562 5.351562 -6.96875 5.4375 -6.8125 C 5.863281 -6.050781 5.867188 -5.300781 5.453125 -4.5625 C 5.316406 -4.34375 5.140625 -4.148438 4.921875 -3.984375 C 4.703125 -3.828125 4.46875 -3.703125 4.21875 -3.609375 Z M 2.296875 -6.71875 C 2.203125 -6.34375 2.109375 -5.960938 2.015625 -5.578125 C 1.921875 -5.203125 1.820312 -4.804688 1.71875 -4.390625 C 1.820312 -4.359375 1.898438 -4.328125 1.953125 -4.296875 C 2.015625 -4.265625 2.078125 -4.242188 2.140625 -4.234375 C 2.546875 -4.179688 2.9375 -4.191406 3.3125 -4.265625 C 3.6875 -4.335938 4.046875 -4.484375 4.390625 -4.703125 C 4.523438 -4.785156 4.628906 -4.890625 4.703125 -5.015625 C 4.773438 -5.140625 4.832031 -5.273438 4.875 -5.421875 C 4.945312 -5.765625 4.894531 -6.070312 4.71875 -6.34375 C 4.550781 -6.613281 4.296875 -6.773438 3.953125 -6.828125 C 3.679688 -6.859375 3.40625 -6.867188 3.125 -6.859375 C 2.851562 -6.847656 2.578125 -6.800781 2.296875 -6.71875 Z M 2.296875 -6.71875 "/></g></g><g style="fill:#643636;fill-opacity:1;"><g transform="translate(48.360148, 9.419908)"><path style="stroke:none" d="M 0.25 -2.96875 C 0.34375 -3.226562 0.472656 -3.46875 0.640625 -3.6875 C 0.804688 -3.914062 1 -4.128906 1.21875 -4.328125 C 1.09375 -4.753906 1.066406 -5.144531 1.140625 -5.5 C 1.222656 -5.863281 1.394531 -6.203125 1.65625 -6.515625 C 1.832031 -6.734375 2.035156 -6.914062 2.265625 -7.0625 C 2.492188 -7.21875 2.742188 -7.335938 3.015625 -7.421875 C 3.222656 -7.492188 3.4375 -7.546875 3.65625 -7.578125 C 3.882812 -7.609375 4.113281 -7.613281 4.34375 -7.59375 C 4.726562 -7.550781 5.046875 -7.363281 5.296875 -7.03125 C 5.335938 -6.988281 5.367188 -6.9375 5.390625 -6.875 C 5.410156 -6.8125 5.425781 -6.75 5.4375 -6.6875 C 5.457031 -6.5 5.382812 -6.359375 5.21875 -6.265625 C 5.144531 -6.222656 5.070312 -6.210938 5 -6.234375 C 4.9375 -6.253906 4.875 -6.285156 4.8125 -6.328125 C 4.769531 -6.359375 4.726562 -6.394531 4.6875 -6.4375 C 4.65625 -6.476562 4.625 -6.515625 4.59375 -6.546875 C 4.488281 -6.679688 4.367188 -6.769531 4.234375 -6.8125 C 4.097656 -6.851562 3.953125 -6.851562 3.796875 -6.8125 C 3.429688 -6.75 3.101562 -6.628906 2.8125 -6.453125 C 2.519531 -6.285156 2.289062 -6.03125 2.125 -5.6875 C 2.0625 -5.570312 2.019531 -5.453125 2 -5.328125 C 1.976562 -5.203125 1.988281 -5.066406 2.03125 -4.921875 C 2.09375 -4.921875 2.15625 -4.921875 2.21875 -4.921875 C 2.28125 -4.921875 2.34375 -4.925781 2.40625 -4.9375 C 2.820312 -5.039062 3.238281 -5.070312 3.65625 -5.03125 C 3.738281 -5.03125 3.820312 -5.015625 3.90625 -4.984375 C 3.988281 -4.960938 4.066406 -4.925781 4.140625 -4.875 C 4.273438 -4.800781 4.367188 -4.695312 4.421875 -4.5625 C 4.472656 -4.4375 4.476562 -4.304688 4.4375 -4.171875 C 4.394531 -4.035156 4.304688 -3.921875 4.171875 -3.828125 C 3.992188 -3.722656 3.804688 -3.632812 3.609375 -3.5625 C 3.410156 -3.488281 3.195312 -3.46875 2.96875 -3.5 C 2.789062 -3.53125 2.601562 -3.5625 2.40625 -3.59375 C 2.21875 -3.632812 2.023438 -3.671875 1.828125 -3.703125 C 1.617188 -3.566406 1.453125 -3.382812 1.328125 -3.15625 C 1.203125 -2.9375 1.101562 -2.707031 1.03125 -2.46875 C 0.9375 -2.175781 0.929688 -1.910156 1.015625 -1.671875 C 1.109375 -1.441406 1.253906 -1.257812 1.453125 -1.125 C 1.648438 -0.988281 1.867188 -0.914062 2.109375 -0.90625 C 2.453125 -0.894531 2.742188 -0.953125 2.984375 -1.078125 C 3.222656 -1.203125 3.429688 -1.394531 3.609375 -1.65625 C 3.660156 -1.71875 3.707031 -1.773438 3.75 -1.828125 C 3.789062 -1.890625 3.835938 -1.945312 3.890625 -2 C 3.921875 -2.03125 3.960938 -2.050781 4.015625 -2.0625 C 4.066406 -2.082031 4.117188 -2.097656 4.171875 -2.109375 C 4.253906 -2.117188 4.320312 -2.097656 4.375 -2.046875 C 4.4375 -1.992188 4.472656 -1.925781 4.484375 -1.84375 C 4.484375 -1.726562 4.472656 -1.613281 4.453125 -1.5 C 4.441406 -1.382812 4.398438 -1.273438 4.328125 -1.171875 C 4.097656 -0.859375 3.835938 -0.59375 3.546875 -0.375 C 3.253906 -0.164062 2.90625 -0.0546875 2.5 -0.046875 C 2.382812 -0.0351562 2.269531 -0.03125 2.15625 -0.03125 C 2.039062 -0.0390625 1.921875 -0.046875 1.796875 -0.046875 C 1.484375 -0.046875 1.210938 -0.125 0.984375 -0.28125 C 0.753906 -0.445312 0.554688 -0.648438 0.390625 -0.890625 C 0.171875 -1.222656 0.0625 -1.566406 0.0625 -1.921875 C 0.0703125 -2.273438 0.132812 -2.625 0.25 -2.96875 Z M 0.25 -2.96875 "/></g></g><g style="fill:#643636;fill-opacity:1;"><g transform="translate(54.431392, 9.419908)"><path style="stroke:none" d="M 1.609375 -2.40625 C 1.734375 -2.550781 1.851562 -2.691406 1.96875 -2.828125 C 2.082031 -2.960938 2.203125 -3.101562 2.328125 -3.25 C 2.054688 -3.925781 1.796875 -4.597656 1.546875 -5.265625 C 1.296875 -5.929688 1.113281 -6.613281 1 -7.3125 C 1.070312 -7.363281 1.132812 -7.40625 1.1875 -7.4375 C 1.25 -7.476562 1.304688 -7.507812 1.359375 -7.53125 C 1.578125 -7.582031 1.738281 -7.515625 1.84375 -7.328125 C 1.90625 -7.210938 1.960938 -7.097656 2.015625 -6.984375 L 3 -4.234375 C 3.113281 -4.253906 3.207031 -4.300781 3.28125 -4.375 C 3.351562 -4.445312 3.421875 -4.53125 3.484375 -4.625 L 5.25 -6.953125 C 5.394531 -7.140625 5.554688 -7.304688 5.734375 -7.453125 C 5.828125 -7.523438 5.941406 -7.5625 6.078125 -7.5625 C 6.179688 -7.570312 6.265625 -7.53125 6.328125 -7.4375 C 6.390625 -7.351562 6.40625 -7.265625 6.375 -7.171875 C 6.34375 -7.117188 6.3125 -7.0625 6.28125 -7 C 6.257812 -6.945312 6.226562 -6.894531 6.1875 -6.84375 C 5.757812 -6.25 5.332031 -5.648438 4.90625 -5.046875 C 4.476562 -4.453125 4.046875 -3.863281 3.609375 -3.28125 C 3.234375 -2.8125 2.847656 -2.34375 2.453125 -1.875 C 2.066406 -1.414062 1.675781 -0.953125 1.28125 -0.484375 C 1.238281 -0.441406 1.191406 -0.394531 1.140625 -0.34375 C 1.085938 -0.289062 1.03125 -0.234375 0.96875 -0.171875 C 0.894531 -0.117188 0.816406 -0.0859375 0.734375 -0.078125 C 0.648438 -0.0664062 0.566406 -0.078125 0.484375 -0.109375 C 0.410156 -0.128906 0.347656 -0.171875 0.296875 -0.234375 C 0.253906 -0.304688 0.238281 -0.378906 0.25 -0.453125 C 0.257812 -0.679688 0.347656 -0.890625 0.515625 -1.078125 C 0.703125 -1.304688 0.882812 -1.53125 1.0625 -1.75 C 1.25 -1.96875 1.429688 -2.1875 1.609375 -2.40625 Z M 1.609375 -2.40625 "/></g></g></g></g></g></svg>